<svg width="53" height="53" viewBox="0 0 53 53" fill="none" xmlns="http://www.w3.org/2000/svg">
<path d="M33.2748 16.6924C31.1666 16.6924 29.4475 18.4115 29.4475 20.5197C29.4475 22.6279 31.1666 24.347 33.2748 24.347C35.383 24.347 37.1021 22.6279 37.1021 20.5197C37.1021 18.4115 35.383 16.6924 33.2748 16.6924Z" stroke="#CDD0E3" stroke-width="2"/>
<path d="M23.0448 15.1007C20.3127 15.1007 18.0865 17.3268 18.0865 20.0589C18.0865 22.791 20.3127 25.0171 23.0448 25.0171C25.7769 25.0171 28.003 22.791 28.003 20.0589C28.003 17.3268 25.7769 15.1007 23.0448 15.1007Z" stroke="#CDD0E3" stroke-width="2"/>
<path d="M37.8958 26.3638L37.8957 26.3638C36.4851 25.3832 34.539 24.7914 32.4243 24.7914C30.3096 24.7914 28.3634 25.3832 26.9528 26.3638L26.9528 26.3638C25.5514 27.338 24.6387 28.7116 24.6387 30.2506V34.4126V35.4126H25.6387H38.2098C39.3144 35.4126 40.2098 34.5171 40.2098 33.4126V30.2506C40.2098 28.7116 39.2971 27.338 37.8958 26.3638Z" stroke="#CDD0E3" stroke-width="2"/>
<path d="M30.5933 27.5599L30.5933 27.5599C28.6673 26.4281 25.9975 25.7383 23.0819 25.7383C20.1664 25.7383 17.4966 26.4281 15.5706 27.5599L15.5706 27.5599C13.6738 28.6746 12.3831 30.2742 12.3831 32.1265V36.1555C12.3831 37.26 13.2786 38.1555 14.3831 38.1555H31.7807C32.8853 38.1555 33.7807 37.26 33.7807 36.1555V32.1265C33.7807 30.2742 32.49 28.6746 30.5933 27.5599Z" fill="white" stroke="#CDD0E3" stroke-width="2"/>
</svg>
