<svg width="53" height="53" viewBox="0 0 53 53" fill="none" xmlns="http://www.w3.org/2000/svg">
<path fill-rule="evenodd" clip-rule="evenodd" d="M40.6705 23.1404L32.1535 14.5817C29.0905 11.5189 24.1404 11.5189 21.0774 14.5817L12.5604 23.1404C12.2861 23.414 12.2037 23.8273 12.3519 24.1861C12.5001 24.5449 12.8495 24.778 13.2361 24.776H14.6795V34.1062C14.6851 37.8876 17.7342 40.9516 21.4971 40.9573H22.961C23.4884 40.9516 23.913 40.5204 23.913 39.9903V32.1311H29.318V39.9903C29.3179 40.5204 29.7425 40.9516 30.27 40.9573H31.7338C35.4968 40.9516 38.5458 37.8876 38.5515 34.1062V24.776H39.9948C40.3814 24.778 40.7308 24.5449 40.879 24.1861C41.0272 23.8273 40.9448 23.414 40.6705 23.1404ZM22.4262 15.9416C23.5361 14.8247 25.0423 14.1971 26.613 14.1971C28.1837 14.1971 29.69 14.8247 30.7998 15.9416L37.6789 22.8544H15.5471L22.4262 15.9416ZM31.7463 39.0348C34.452 39.0291 36.644 36.8264 36.6497 34.1074V24.7772H16.6062V34.1074C16.6118 36.8264 18.8038 39.0291 21.5096 39.0348H22.0112V31.1653C22.0168 30.6353 22.4459 30.2086 22.9734 30.2086H30.2824C30.8099 30.2086 31.2391 30.6353 31.2447 31.1653V39.0348H31.7463Z" fill="#CDD0E3"/>
<path d="M32.1535 14.5817L32.3307 14.4053L32.3303 14.4049L32.1535 14.5817ZM40.6705 23.1404L40.4933 23.3167L40.4939 23.3174L40.6705 23.1404ZM21.0774 14.5817L20.9006 14.4049L20.9002 14.4053L21.0774 14.5817ZM12.5604 23.1404L12.737 23.3174L12.7377 23.3167L12.5604 23.1404ZM12.3519 24.1861L12.1208 24.2815H12.1208L12.3519 24.1861ZM13.2361 24.776V24.526L13.2348 24.526L13.2361 24.776ZM14.6795 24.776H14.9295V24.526H14.6795V24.776ZM14.6795 34.1062H14.4295L14.4295 34.1066L14.6795 34.1062ZM21.4971 40.9573L21.4967 41.2073H21.4971V40.9573ZM22.961 40.9573V41.2073L22.9636 41.2073L22.961 40.9573ZM23.913 39.9903H23.663V39.9903L23.913 39.9903ZM23.913 32.1311V31.8811H23.663V32.1311H23.913ZM29.318 32.1311H29.568V31.8811H29.318V32.1311ZM29.318 39.9903L29.568 39.9903V39.9903H29.318ZM30.27 40.9573L30.2673 41.2073H30.27V40.9573ZM31.7338 40.9573V41.2073H31.7342L31.7338 40.9573ZM38.5515 34.1062L38.8015 34.1066V34.1062H38.5515ZM38.5515 24.776V24.526H38.3015V24.776H38.5515ZM39.9948 24.776L39.9961 24.526H39.9948V24.776ZM40.879 24.1861L41.1101 24.2815V24.2815L40.879 24.1861ZM22.4262 15.9416L22.6034 16.118L22.6035 16.1179L22.4262 15.9416ZM30.7998 15.9416L30.6225 16.1179L30.6226 16.118L30.7998 15.9416ZM37.6789 22.8544V23.1044H38.2804L37.8561 22.6781L37.6789 22.8544ZM15.5471 22.8544L15.3699 22.6781L14.9457 23.1044H15.5471V22.8544ZM36.6497 34.1074L36.8997 34.1079V34.1074H36.6497ZM31.7463 39.0348V39.2848H31.7468L31.7463 39.0348ZM36.6497 24.7772H36.8997V24.5272H36.6497V24.7772ZM16.6062 24.7772V24.5272H16.3562V24.7772H16.6062ZM16.6062 34.1074H16.3562L16.3562 34.1079L16.6062 34.1074ZM21.5096 39.0348L21.509 39.2848H21.5096V39.0348ZM22.0112 39.0348V39.2848H22.2612V39.0348H22.0112ZM22.0112 31.1653L21.7612 31.1627V31.1653H22.0112ZM22.9734 30.2086L22.9734 30.4586H22.9734V30.2086ZM30.2824 30.2086V30.4586H30.2824L30.2824 30.2086ZM31.2447 31.1653H31.4947L31.4947 31.1627L31.2447 31.1653ZM31.2447 39.0348H30.9947V39.2848H31.2447V39.0348ZM31.9763 14.758L40.4933 23.3167L40.8477 22.964L32.3307 14.4053L31.9763 14.758ZM21.2542 14.7584C24.2196 11.7933 29.0114 11.7933 31.9768 14.7584L32.3303 14.4049C29.1696 11.2445 24.0613 11.2445 20.9006 14.4049L21.2542 14.7584ZM12.7377 23.3167L21.2546 14.758L20.9002 14.4053L12.3832 22.964L12.7377 23.3167ZM12.5829 24.0906C12.4733 23.8251 12.5344 23.5194 12.737 23.3174L12.3839 22.9634C12.0378 23.3086 11.9341 23.8295 12.1208 24.2815L12.5829 24.0906ZM13.2348 24.526C12.9504 24.5275 12.6926 24.356 12.5829 24.0906L12.1208 24.2815C12.3076 24.7338 12.7486 25.0285 13.2374 25.026L13.2348 24.526ZM14.6795 24.526H13.2361V25.026H14.6795V24.526ZM14.9295 34.1062V24.776H14.4295V34.1062H14.9295ZM21.4975 40.7073C17.8735 40.7018 14.9349 37.7506 14.9295 34.1058L14.4295 34.1066C14.4353 38.0246 17.5949 41.2014 21.4967 41.2073L21.4975 40.7073ZM22.961 40.7073H21.4971V41.2073H22.961V40.7073ZM23.663 39.9903C23.663 40.3845 23.3476 40.7031 22.9583 40.7073L22.9636 41.2073C23.6292 41.2001 24.163 40.6562 24.163 39.9903L23.663 39.9903ZM23.663 32.1311V39.9903H24.163V32.1311H23.663ZM29.318 31.8811H23.913V32.3811H29.318V31.8811ZM29.568 39.9903V32.1311H29.068V39.9903H29.568ZM30.2726 40.7073C29.8834 40.7031 29.5679 40.3845 29.568 39.9903L29.068 39.9903C29.0679 40.6562 29.6017 41.2001 30.2673 41.2073L30.2726 40.7073ZM31.7338 40.7073H30.27V41.2073H31.7338V40.7073ZM38.3015 34.1058C38.296 37.7506 35.3575 40.7018 31.7334 40.7073L31.7342 41.2073C35.6361 41.2014 38.7956 38.0246 38.8015 34.1066L38.3015 34.1058ZM38.3015 24.776V34.1062H38.8015V24.776H38.3015ZM39.9948 24.526H38.5515V25.026H39.9948V24.526ZM40.648 24.0906C40.5384 24.356 40.2805 24.5275 39.9961 24.526L39.9935 25.026C40.4824 25.0285 40.9233 24.7338 41.1101 24.2815L40.648 24.0906ZM40.4939 23.3174C40.6965 23.5194 40.7577 23.8251 40.648 24.0906L41.1101 24.2815C41.2968 23.8295 41.1932 23.3086 40.847 22.9634L40.4939 23.3174ZM26.613 13.9471C24.9755 13.9471 23.4055 14.6014 22.2489 15.7654L22.6035 16.1179C23.6666 15.0481 25.1091 14.4471 26.613 14.4471V13.9471ZM30.9772 15.7654C29.8205 14.6014 28.2505 13.9471 26.613 13.9471V14.4471C28.117 14.4471 29.5594 15.0481 30.6225 16.1179L30.9772 15.7654ZM37.8561 22.6781L30.977 15.7653L30.6226 16.118L37.5017 23.0308L37.8561 22.6781ZM15.5471 23.1044H37.6789V22.6044H15.5471V23.1044ZM22.249 15.7653L15.3699 22.6781L15.7243 23.0308L22.6034 16.118L22.249 15.7653ZM36.3997 34.1069C36.3943 36.6893 34.3127 38.7794 31.7458 38.7848L31.7468 39.2848C34.5913 39.2788 36.8937 36.9634 36.8997 34.1079L36.3997 34.1069ZM36.3997 24.7772V34.1074H36.8997V24.7772H36.3997ZM16.6062 25.0272H36.6497V24.5272H16.6062V25.0272ZM16.8562 34.1074V24.7772H16.3562V34.1074H16.8562ZM21.5101 38.7848C18.9432 38.7794 16.8615 36.6893 16.8562 34.1069L16.3562 34.1079C16.3621 36.9634 18.6645 39.2788 21.509 39.2848L21.5101 38.7848ZM22.0112 38.7848H21.5096V39.2848H22.0112V38.7848ZM21.7612 31.1653V39.0348H22.2612V31.1653H21.7612ZM22.9734 29.9586C22.3078 29.9586 21.7682 30.4968 21.7612 31.1627L22.2611 31.168C22.2653 30.7739 22.5841 30.4586 22.9734 30.4586L22.9734 29.9586ZM30.2824 29.9586H22.9734V30.4586H30.2824V29.9586ZM31.4947 31.1627C31.4876 30.4968 30.9481 29.9586 30.2824 29.9586L30.2824 30.4586C30.6717 30.4586 30.9905 30.7739 30.9947 31.168L31.4947 31.1627ZM31.4947 39.0348V31.1653H30.9947V39.0348H31.4947ZM31.7463 38.7848H31.2447V39.2848H31.7463V38.7848Z" fill="#CDD0E3"/>
</svg>
