<svg width="53" height="53" viewBox="0 0 53 53" fill="none" xmlns="http://www.w3.org/2000/svg">
<path d="M29.55 17.4268V27.4661C29.5495 28.3279 29.2756 29.1672 28.7678 29.8625C28.2599 30.5579 27.5446 31.0732 26.7253 31.3339C25.9059 31.5946 25.0251 31.5872 24.2102 31.3128C23.3953 31.0383 22.6887 30.511 22.1926 29.8073C21.6965 29.1035 21.4366 28.2597 21.4505 27.3981C21.4645 26.5364 21.7516 25.7015 22.2703 25.0143C22.7889 24.327 23.5123 23.8231 24.3356 23.5753C25.1589 23.3275 26.0395 23.3488 26.85 23.6361V14C33.6716 14.678 39 20.4489 39 27.4661C39 34.9409 32.9561 40.9999 25.5 40.9999C18.044 40.9999 12 34.9409 12 27.4661C12 20.4489 17.3285 14.678 24.15 14V16.723C21.4267 17.0704 18.9375 18.4443 17.1883 20.5655C15.4392 22.6868 14.5613 25.3961 14.7332 28.1429C14.9051 30.8896 16.1139 33.4677 18.1138 35.3531C20.1137 37.2385 22.7547 38.2898 25.5 38.2932C28.0074 38.2946 30.4372 37.4213 32.3726 35.8231C34.3079 34.225 35.6283 32.0015 36.1072 29.5341C36.5861 27.0666 36.1937 24.5091 34.9973 22.3C33.8009 20.0909 31.875 18.368 29.55 17.4268Z" fill="#CDD0E3"/>
</svg>
