<svg width="53" height="53" viewBox="0 0 53 53" fill="none" xmlns="http://www.w3.org/2000/svg">
<path fill-rule="evenodd" clip-rule="evenodd" d="M40.6705 23.1403L32.1535 14.5816C29.0905 11.5189 24.1404 11.5189 21.0774 14.5816L12.5604 23.1403C12.2861 23.414 12.2037 23.8273 12.3519 24.186C12.5001 24.5448 12.8495 24.778 13.2361 24.7759H14.6794V34.1062C14.6851 37.8876 17.7341 40.9516 21.4971 40.9572H22.9609C23.4884 40.9516 23.913 40.5203 23.913 39.9903V32.1311H29.3179V39.9903C29.3179 40.5203 29.7425 40.9516 30.27 40.9572H31.7338C35.4968 40.9516 38.5458 37.8876 38.5515 34.1062V24.7759H39.9948C40.3814 24.778 40.7308 24.5448 40.879 24.186C41.0272 23.8273 40.9448 23.414 40.6705 23.1403ZM22.4262 15.9416C23.536 14.8247 25.0423 14.1971 26.613 14.1971C28.1837 14.1971 29.69 14.8247 30.7998 15.9416L37.6789 22.8544H15.5471L22.4262 15.9416ZM31.7463 39.0348C34.452 39.0291 36.644 36.8263 36.6496 34.1073V24.7771H16.6062V34.1073C16.6118 36.8263 18.8038 39.0291 21.5095 39.0348H22.0111V31.1653C22.0168 30.6353 22.4459 30.2086 22.9734 30.2086H30.2824C30.8099 30.2086 31.2391 30.6353 31.2447 31.1653V39.0348H31.7463Z" fill="#371B34"/>
<path d="M40.6705 23.1403L32.1535 14.5816C29.0905 11.5189 24.1404 11.5189 21.0774 14.5816L12.5604 23.1403C12.2861 23.414 12.2037 23.8273 12.3519 24.186C12.5001 24.5448 12.8495 24.778 13.2361 24.7759H14.6794V34.1062C14.6851 37.8876 17.7341 40.9516 21.4971 40.9572H22.9609C23.4884 40.9516 23.913 40.5203 23.913 39.9903V32.1311H29.3179V39.9903C29.3179 40.5203 29.7425 40.9516 30.27 40.9572H31.7338C35.4968 40.9516 38.5458 37.8876 38.5515 34.1062V24.7759H39.9948C40.3814 24.778 40.7308 24.5448 40.879 24.186C41.0272 23.8273 40.9448 23.414 40.6705 23.1403Z" fill="#371B34"/>
</svg>
