<svg width="53" height="53" viewBox="0 0 53 53" fill="none" xmlns="http://www.w3.org/2000/svg">
<path d="M27.85 22.6795C27.0395 22.393 26.1589 22.3718 25.3356 22.6189C24.5123 22.8661 23.7889 23.3688 23.2703 24.0543C22.7516 24.7398 22.4645 25.5726 22.4505 26.4321C22.4366 27.2916 22.6965 28.1333 23.1926 28.8353C23.6887 29.5373 24.3953 30.0633 25.2102 30.337C26.0251 30.6108 26.9059 30.6182 27.7253 30.3581C28.5446 30.0981 29.2599 29.584 29.7678 28.8904C30.2756 28.1968 30.5495 27.3597 30.55 26.5V13.6183C36.027 15.3382 40 20.4547 40 26.5C40 33.9561 33.9561 40 26.5 40C19.044 40 13 33.9561 13 26.5C13 19.044 19.044 13 26.5 13C26.955 13 27.4059 13.023 27.85 13.0675V22.6795Z" fill="#371B34"/>
</svg>
