<svg width="50" height="51" viewBox="0 0 50 51" fill="none" xmlns="http://www.w3.org/2000/svg">
<path fill-rule="evenodd" clip-rule="evenodd" d="M33.544 23.312H35.752C36.424 23.312 37 23.888 37 24.56V27.44C37 28.112 36.424 28.688 35.752 28.688H33.544C33.256 28.688 32.872 28.976 32.776 29.264C32.68 29.648 32.68 29.936 32.968 30.224L34.6 31.856C34.888 32.048 34.984 32.432 34.984 32.72C34.984 33.008 34.792 33.392 34.6 33.584L32.584 35.6C32.104 36.08 31.336 36.08 30.856 35.6L29.224 33.968C28.936 33.68 28.552 33.68 28.264 33.776C27.88 33.872 27.688 34.16 27.688 34.544V36.752C27.688 37.424 27.112 38 26.44 38H23.56C22.888 38 22.312 37.424 22.312 36.752V34.544C22.312 34.256 22.024 33.872 21.736 33.776C21.352 33.68 21.064 33.68 20.776 33.968L19.144 35.6C18.664 36.08 17.896 36.08 17.416 35.6L15.4 33.584C15.112 33.392 15.016 33.008 15.016 32.72C15.016 32.432 15.208 32.048 15.4 31.856L17.032 30.224C17.32 29.936 17.32 29.552 17.224 29.264C17.128 28.88 16.84 28.688 16.456 28.688H14.248C13.576 28.688 13 28.112 13 27.44V24.56C13 23.888 13.576 23.312 14.248 23.312H16.456C16.744 23.312 17.128 23.024 17.224 22.736C17.32 22.352 17.32 22.064 17.032 21.776L15.4 20.144C15.112 19.952 15.016 19.568 15.016 19.28C15.016 18.992 15.208 18.608 15.4 18.416L17.416 16.4C17.896 15.92 18.664 15.92 19.144 16.4L20.776 18.032C21.064 18.32 21.448 18.32 21.736 18.224C22.12 18.128 22.312 17.84 22.312 17.456V15.248C22.312 14.576 22.888 14 23.56 14H26.44C27.112 14 27.688 14.576 27.688 15.248V17.456C27.688 17.744 27.976 18.128 28.264 18.224C28.648 18.32 28.936 18.32 29.224 18.032L30.856 16.4C31.336 15.92 32.104 15.92 32.584 16.4L34.6 18.416C34.888 18.608 34.984 18.992 34.984 19.28C34.984 19.568 34.792 19.952 34.6 20.144L32.968 21.776C32.68 22.064 32.68 22.448 32.776 22.736C32.872 23.12 33.16 23.312 33.544 23.312ZM35.752 27.824C35.944 27.824 36.136 27.632 36.136 27.44V24.56C36.136 24.368 35.944 24.176 35.752 24.176H33.544C32.776 24.176 32.2 23.792 31.912 23.12C31.624 22.448 31.816 21.68 32.296 21.2L33.928 19.568C34.024 19.472 34.024 19.184 33.928 19.088L31.912 17.072C31.816 16.976 31.528 16.976 31.432 17.072L29.8 18.704C29.32 19.184 28.552 19.376 27.88 19.088C27.208 18.8 26.824 18.224 26.824 17.456V15.248C26.824 15.056 26.632 14.864 26.44 14.864H23.56C23.368 14.864 23.176 15.056 23.176 15.248V17.456C23.176 18.224 22.792 18.8 22.12 19.088C21.448 19.376 20.68 19.184 20.2 18.704L18.568 17.072C18.472 16.976 18.184 16.976 18.088 17.072L16.072 19.088C15.976 19.184 15.976 19.472 16.072 19.568L17.704 21.2C18.184 21.68 18.376 22.448 18.088 23.12C17.8 23.792 17.224 24.176 16.456 24.176H14.248C14.056 24.176 13.864 24.368 13.864 24.56V27.44C13.864 27.632 14.056 27.824 14.248 27.824H16.456C17.224 27.824 17.8 28.208 18.088 28.88C18.376 29.552 18.184 30.32 17.704 30.8L16.072 32.432C15.976 32.528 15.976 32.816 16.072 32.912L18.088 34.928C18.184 35.024 18.472 35.024 18.568 34.928L20.2 33.296C20.584 33.008 20.968 32.816 21.448 32.816C21.64 32.816 21.928 32.816 22.12 32.912C22.792 33.2 23.176 33.776 23.176 34.544V36.752C23.176 36.944 23.368 37.136 23.56 37.136H26.44C26.632 37.136 26.824 36.944 26.824 36.752V34.544C26.824 33.776 27.208 33.2 27.88 32.912C28.552 32.624 29.32 32.816 29.8 33.296L31.432 34.928C31.528 35.024 31.816 35.024 31.912 34.928L33.928 32.912C34.024 32.816 34.024 32.528 33.928 32.432L32.296 30.8C31.816 30.32 31.624 29.552 31.912 28.88C32.2 28.208 32.776 27.824 33.544 27.824H35.752Z" fill="#CDD0E3"/>
<path d="M32.776 29.264L32.3017 29.1059L32.2956 29.1241L32.2909 29.1427L32.776 29.264ZM34.6 31.856L34.2464 32.2096L34.2815 32.2446L34.3227 32.272L34.6 31.856ZM28.264 33.776L28.3853 34.2611L28.4039 34.2564L28.4221 34.2503L28.264 33.776ZM21.736 33.776L21.8941 33.3017L21.8759 33.2956L21.8573 33.2909L21.736 33.776ZM19.144 35.6L19.4976 35.9536L19.144 35.6ZM17.416 35.6L17.0624 35.9536L17.416 35.6ZM15.4 33.584L15.7536 33.2304L15.7185 33.1954L15.6773 33.168L15.4 33.584ZM15.4 31.856L15.7536 32.2096H15.7536L15.4 31.856ZM17.224 29.264L16.7389 29.3853L16.7436 29.4039L16.7497 29.4221L17.224 29.264ZM17.224 22.736L17.6983 22.8941L17.7044 22.8759L17.7091 22.8573L17.224 22.736ZM15.4 20.144L15.7536 19.7904L15.7185 19.7554L15.6774 19.728L15.4 20.144ZM21.736 18.224L21.6147 17.7389L21.5961 17.7436L21.5779 17.7497L21.736 18.224ZM28.264 18.224L28.1059 18.6983L28.1241 18.7044L28.1427 18.7091L28.264 18.224ZM30.856 16.4L31.2096 16.7536L30.856 16.4ZM32.584 16.4L32.2304 16.7536V16.7536L32.584 16.4ZM34.6 18.416L34.2464 18.7696L34.2815 18.8046L34.3227 18.832L34.6 18.416ZM34.6 20.144L34.9536 20.4976V20.4976L34.6 20.144ZM32.776 22.736L33.2611 22.6147L33.2564 22.5961L33.2503 22.5779L32.776 22.736ZM32.296 21.2L31.9424 20.8464L32.296 21.2ZM33.928 19.568L34.2816 19.9216L34.2816 19.9216L33.928 19.568ZM33.928 19.088L34.2816 18.7344L34.2816 18.7344L33.928 19.088ZM31.912 17.072L32.2656 16.7184L32.2656 16.7184L31.912 17.072ZM31.432 17.072L31.7856 17.4256L31.7856 17.4256L31.432 17.072ZM29.8 18.704L29.4464 18.3504V18.3504L29.8 18.704ZM27.88 19.088L28.077 18.6284V18.6284L27.88 19.088ZM22.12 19.088L21.923 18.6284V18.6284L22.12 19.088ZM18.568 17.072L18.2144 17.4256L18.2144 17.4256L18.568 17.072ZM18.088 17.072L17.7344 16.7184L17.7344 16.7184L18.088 17.072ZM16.072 19.088L15.7184 18.7344L15.7184 18.7344L16.072 19.088ZM16.072 19.568L16.4256 19.2144L16.4256 19.2144L16.072 19.568ZM18.088 23.12L17.6284 22.923H17.6284L18.088 23.12ZM18.088 28.88L17.6284 29.077H17.6284L18.088 28.88ZM17.704 30.8L17.3504 30.4464H17.3504L17.704 30.8ZM16.072 32.432L16.4256 32.7856L16.4256 32.7856L16.072 32.432ZM16.072 32.912L15.7184 33.2656L15.7184 33.2656L16.072 32.912ZM18.088 34.928L17.7344 35.2816L17.7344 35.2816L18.088 34.928ZM18.568 34.928L18.9216 35.2816L18.9216 35.2816L18.568 34.928ZM20.2 33.296L19.9 32.896L19.8716 32.9173L19.8464 32.9424L20.2 33.296ZM22.12 32.912L21.8964 33.3592L21.9095 33.3658L21.923 33.3716L22.12 32.912ZM29.8 33.296L29.4464 33.6496L29.8 33.296ZM31.432 34.928L31.7856 34.5744L31.432 34.928ZM31.912 34.928L32.2656 35.2816L32.2656 35.2816L31.912 34.928ZM33.928 32.912L34.2816 33.2656L34.2816 33.2656L33.928 32.912ZM33.928 32.432L33.5744 32.7856L33.928 32.432ZM32.296 30.8L32.6496 30.4464L32.296 30.8ZM35.752 22.812H33.544V23.812H35.752V22.812ZM37.5 24.56C37.5 23.6119 36.7001 22.812 35.752 22.812V23.812C36.1479 23.812 36.5 24.1641 36.5 24.56H37.5ZM37.5 27.44V24.56H36.5V27.44H37.5ZM35.752 29.188C36.7001 29.188 37.5 28.3881 37.5 27.44H36.5C36.5 27.8359 36.1479 28.188 35.752 28.188V29.188ZM33.544 29.188H35.752V28.188H33.544V29.188ZM33.2503 29.4221C33.2515 29.4187 33.2599 29.398 33.2864 29.3648C33.312 29.3329 33.3469 29.2988 33.388 29.268C33.4292 29.2371 33.4697 29.2147 33.5032 29.2011C33.5386 29.1868 33.5522 29.188 33.544 29.188V28.188C33.2523 28.188 32.9804 28.3237 32.788 28.468C32.5929 28.6143 32.392 28.8348 32.3017 29.1059L33.2503 29.4221ZM33.3216 29.8704C33.2432 29.792 33.2281 29.7422 33.2222 29.704C33.2135 29.6474 33.2181 29.5571 33.2611 29.3853L32.2909 29.1427C32.2379 29.3549 32.1945 29.6006 32.2338 29.856C32.2759 30.1298 32.4048 30.368 32.6144 30.5776L33.3216 29.8704ZM34.9536 31.5024L33.3216 29.8704L32.6144 30.5776L34.2464 32.2096L34.9536 31.5024ZM35.484 32.72C35.484 32.3694 35.3733 31.7706 34.8773 31.44L34.3227 32.272C34.3577 32.2954 34.3991 32.3426 34.4333 32.4315C34.4677 32.5209 34.484 32.6265 34.484 32.72H35.484ZM34.9536 33.9376C35.1007 33.7904 35.2275 33.5935 35.318 33.3975C35.4071 33.2044 35.484 32.9623 35.484 32.72H34.484C34.484 32.7657 34.4649 32.8596 34.41 32.9785C34.3565 33.0945 34.2913 33.1856 34.2464 33.2304L34.9536 33.9376ZM32.9376 35.9536L34.9536 33.9376L34.2464 33.2304L32.2304 35.2464L32.9376 35.9536ZM30.5024 35.9536C31.1777 36.6288 32.2623 36.6288 32.9376 35.9536L32.2304 35.2464C31.9457 35.5312 31.4943 35.5312 31.2096 35.2464L30.5024 35.9536ZM28.8704 34.3216L30.5024 35.9536L31.2096 35.2464L29.5776 33.6144L28.8704 34.3216ZM28.4221 34.2503C28.6021 34.1904 28.7625 34.2136 28.8704 34.3216L29.5776 33.6144C29.1095 33.1464 28.5019 33.1696 28.1059 33.3017L28.4221 34.2503ZM28.188 34.544C28.188 34.4347 28.2148 34.3757 28.2364 34.3461C28.2552 34.3202 28.2929 34.2842 28.3853 34.2611L28.1427 33.2909C27.8511 33.3638 27.6008 33.5198 27.4276 33.7579C27.2572 33.9923 27.188 34.2693 27.188 34.544H28.188ZM28.188 36.752V34.544H27.188V36.752H28.188ZM26.44 38.5C27.3881 38.5 28.188 37.7001 28.188 36.752H27.188C27.188 37.1479 26.8359 37.5 26.44 37.5V38.5ZM23.56 38.5H26.44V37.5H23.56V38.5ZM21.812 36.752C21.812 37.7001 22.6119 38.5 23.56 38.5V37.5C23.1641 37.5 22.812 37.1479 22.812 36.752H21.812ZM21.812 34.544V36.752H22.812V34.544H21.812ZM21.5779 34.2503C21.5813 34.2515 21.602 34.2599 21.6352 34.2864C21.6671 34.312 21.7012 34.3469 21.732 34.388C21.7629 34.4292 21.7853 34.4697 21.7989 34.5032C21.8132 34.5386 21.812 34.5522 21.812 34.544H22.812C22.812 34.2523 22.6763 33.9804 22.532 33.788C22.3857 33.5929 22.1652 33.392 21.8941 33.3017L21.5779 34.2503ZM21.1296 34.3216C21.208 34.2432 21.2578 34.2281 21.296 34.2222C21.3526 34.2135 21.4429 34.2181 21.6147 34.2611L21.8573 33.2909C21.6451 33.2379 21.3994 33.1945 21.144 33.2338C20.8702 33.2759 20.632 33.4048 20.4224 33.6144L21.1296 34.3216ZM19.4976 35.9536L21.1296 34.3216L20.4224 33.6144L18.7904 35.2464L19.4976 35.9536ZM17.0624 35.9536C17.7377 36.6288 18.8223 36.6288 19.4976 35.9536L18.7904 35.2464C18.5057 35.5312 18.0543 35.5312 17.7696 35.2464L17.0624 35.9536ZM15.0464 33.9376L17.0624 35.9536L17.7696 35.2464L15.7536 33.2304L15.0464 33.9376ZM14.516 32.72C14.516 33.0706 14.6267 33.6694 15.1227 34L15.6773 33.168C15.6423 33.1446 15.6009 33.0974 15.5667 33.0085C15.5323 32.9191 15.516 32.8135 15.516 32.72H14.516ZM15.0464 31.5024C14.8993 31.6496 14.7725 31.8465 14.682 32.0425C14.5929 32.2356 14.516 32.4777 14.516 32.72H15.516C15.516 32.6743 15.5351 32.5804 15.59 32.4615C15.6435 32.3455 15.7087 32.2544 15.7536 32.2096L15.0464 31.5024ZM16.6784 29.8704L15.0464 31.5024L15.7536 32.2096L17.3856 30.5776L16.6784 29.8704ZM16.7497 29.4221C16.8096 29.6021 16.7864 29.7625 16.6784 29.8704L17.3856 30.5776C17.8536 30.1095 17.8304 29.5019 17.6983 29.1059L16.7497 29.4221ZM16.456 29.188C16.5653 29.188 16.6243 29.2148 16.6539 29.2364C16.6798 29.2552 16.7158 29.2929 16.7389 29.3853L17.7091 29.1427C17.6362 28.8511 17.4802 28.6008 17.2421 28.4276C17.0077 28.2572 16.7307 28.188 16.456 28.188V29.188ZM14.248 29.188H16.456V28.188H14.248V29.188ZM12.5 27.44C12.5 28.3881 13.2999 29.188 14.248 29.188V28.188C13.8521 28.188 13.5 27.8359 13.5 27.44H12.5ZM12.5 24.56V27.44H13.5V24.56H12.5ZM14.248 22.812C13.2999 22.812 12.5 23.6119 12.5 24.56H13.5C13.5 24.1641 13.8521 23.812 14.248 23.812V22.812ZM16.456 22.812H14.248V23.812H16.456V22.812ZM16.7497 22.5779C16.7485 22.5813 16.7401 22.602 16.7136 22.6352C16.688 22.6671 16.6531 22.7012 16.612 22.732C16.5708 22.7629 16.5303 22.7853 16.4968 22.7989C16.4614 22.8132 16.4478 22.812 16.456 22.812V23.812C16.7477 23.812 17.0196 23.6763 17.212 23.532C17.4071 23.3857 17.608 23.1652 17.6983 22.8941L16.7497 22.5779ZM16.6784 22.1296C16.7568 22.208 16.7719 22.2578 16.7778 22.296C16.7865 22.3526 16.7819 22.4429 16.7389 22.6147L17.7091 22.8573C17.7621 22.6451 17.8055 22.3994 17.7662 22.144C17.7241 21.8702 17.5952 21.632 17.3856 21.4224L16.6784 22.1296ZM15.0464 20.4976L16.6784 22.1296L17.3856 21.4224L15.7536 19.7904L15.0464 20.4976ZM14.516 19.28C14.516 19.6306 14.6267 20.2294 15.1227 20.56L15.6774 19.728C15.6423 19.7046 15.6009 19.6574 15.5667 19.5685C15.5323 19.4791 15.516 19.3735 15.516 19.28H14.516ZM15.0464 18.0624C14.8993 18.2096 14.7725 18.4065 14.682 18.6025C14.5929 18.7956 14.516 19.0377 14.516 19.28H15.516C15.516 19.2343 15.5351 19.1404 15.59 19.0215C15.6435 18.9055 15.7087 18.8144 15.7536 18.7696L15.0464 18.0624ZM17.0624 16.0464L15.0464 18.0624L15.7536 18.7696L17.7696 16.7536L17.0624 16.0464ZM19.4976 16.0464C18.8223 15.3712 17.7377 15.3712 17.0624 16.0464L17.7696 16.7536C18.0543 16.4688 18.5057 16.4688 18.7904 16.7536L19.4976 16.0464ZM21.1296 17.6784L19.4976 16.0464L18.7904 16.7536L20.4224 18.3856L21.1296 17.6784ZM21.5779 17.7497C21.3979 17.8096 21.2375 17.7864 21.1296 17.6784L20.4224 18.3856C20.8905 18.8536 21.4981 18.8304 21.8941 18.6983L21.5779 17.7497ZM21.812 17.456C21.812 17.5653 21.7852 17.6243 21.7636 17.6539C21.7448 17.6798 21.7071 17.7158 21.6147 17.7389L21.8573 18.7091C22.1489 18.6362 22.3992 18.4802 22.5724 18.2421C22.7428 18.0077 22.812 17.7307 22.812 17.456H21.812ZM21.812 15.248V17.456H22.812V15.248H21.812ZM23.56 13.5C22.6119 13.5 21.812 14.2999 21.812 15.248H22.812C22.812 14.8521 23.1641 14.5 23.56 14.5V13.5ZM26.44 13.5H23.56V14.5H26.44V13.5ZM28.188 15.248C28.188 14.2999 27.3881 13.5 26.44 13.5V14.5C26.8359 14.5 27.188 14.8521 27.188 15.248H28.188ZM28.188 17.456V15.248H27.188V17.456H28.188ZM28.4221 17.7497C28.4187 17.7485 28.398 17.7401 28.3648 17.7136C28.3329 17.688 28.2988 17.6531 28.268 17.612C28.2371 17.5708 28.2147 17.5303 28.2011 17.4968C28.1868 17.4614 28.188 17.4478 28.188 17.456H27.188C27.188 17.7477 27.3237 18.0196 27.468 18.212C27.6143 18.4071 27.8348 18.608 28.1059 18.6983L28.4221 17.7497ZM28.8704 17.6784C28.792 17.7568 28.7422 17.7719 28.704 17.7778C28.6474 17.7865 28.5571 17.7819 28.3853 17.7389L28.1427 18.7091C28.3549 18.7621 28.6006 18.8055 28.856 18.7662C29.1298 18.7241 29.368 18.5952 29.5776 18.3856L28.8704 17.6784ZM30.5024 16.0464L28.8704 17.6784L29.5776 18.3856L31.2096 16.7536L30.5024 16.0464ZM32.9376 16.0464C32.2623 15.3712 31.1777 15.3712 30.5024 16.0464L31.2096 16.7536C31.4943 16.4688 31.9457 16.4688 32.2304 16.7536L32.9376 16.0464ZM34.9536 18.0624L32.9376 16.0464L32.2304 16.7536L34.2464 18.7696L34.9536 18.0624ZM35.484 19.28C35.484 18.9294 35.3733 18.3306 34.8773 18L34.3227 18.832C34.3577 18.8554 34.3991 18.9026 34.4333 18.9915C34.4677 19.0809 34.484 19.1865 34.484 19.28H35.484ZM34.9536 20.4976C35.1007 20.3504 35.2275 20.1535 35.318 19.9575C35.4071 19.7644 35.484 19.5223 35.484 19.28H34.484C34.484 19.3257 34.4649 19.4196 34.41 19.5385C34.3565 19.6545 34.2913 19.7456 34.2464 19.7904L34.9536 20.4976ZM33.3216 22.1296L34.9536 20.4976L34.2464 19.7904L32.6144 21.4224L33.3216 22.1296ZM33.2503 22.5779C33.1904 22.3979 33.2136 22.2375 33.3216 22.1296L32.6144 21.4224C32.1464 21.8905 32.1696 22.4981 32.3017 22.8941L33.2503 22.5779ZM33.544 22.812C33.4347 22.812 33.3757 22.7852 33.3461 22.7636C33.3202 22.7448 33.2842 22.7071 33.2611 22.6147L32.2909 22.8573C32.3638 23.1489 32.5198 23.3992 32.7579 23.5724C32.9923 23.7428 33.2693 23.812 33.544 23.812V22.812ZM35.636 27.44C35.636 27.4048 35.6446 27.3809 35.6499 27.3696C35.6552 27.3583 35.6601 27.3528 35.6624 27.3504C35.6648 27.3481 35.6703 27.3432 35.6816 27.3379C35.6929 27.3326 35.7168 27.324 35.752 27.324V28.324C36.0106 28.324 36.2274 28.1997 36.3696 28.0576C36.5117 27.9154 36.636 27.6986 36.636 27.44H35.636ZM35.636 24.56V27.44H36.636V24.56H35.636ZM35.752 24.676C35.7168 24.676 35.6929 24.6674 35.6816 24.6621C35.6703 24.6568 35.6648 24.6519 35.6624 24.6496C35.6601 24.6472 35.6552 24.6417 35.6499 24.6304C35.6446 24.6191 35.636 24.5952 35.636 24.56H36.636C36.636 24.3014 36.5117 24.0846 36.3696 23.9424C36.2274 23.8003 36.0106 23.676 35.752 23.676V24.676ZM33.544 24.676H35.752V23.676H33.544V24.676ZM31.4524 23.317C31.8208 24.1765 32.58 24.676 33.544 24.676V23.676C32.972 23.676 32.5792 23.4075 32.3716 22.923L31.4524 23.317ZM31.9424 20.8464C31.3299 21.459 31.0774 22.4419 31.4524 23.317L32.3716 22.923C32.1706 22.4541 32.3021 21.901 32.6496 21.5536L31.9424 20.8464ZM33.5744 19.2144L31.9424 20.8464L32.6496 21.5536L34.2816 19.9216L33.5744 19.2144ZM33.5744 19.4416C33.543 19.4102 33.5253 19.381 33.5162 19.3635C33.5069 19.3456 33.5028 19.3327 33.5012 19.3274C33.4985 19.318 33.5 19.3189 33.5 19.328C33.5 19.3371 33.4985 19.338 33.5012 19.3286C33.5028 19.3233 33.5069 19.3104 33.5162 19.2925C33.5253 19.275 33.543 19.2458 33.5744 19.2144L34.2816 19.9216C34.388 19.8151 34.438 19.69 34.4628 19.6034C34.4894 19.51 34.5 19.4149 34.5 19.328C34.5 19.2411 34.4894 19.146 34.4628 19.0526C34.438 18.966 34.388 18.8409 34.2816 18.7344L33.5744 19.4416ZM31.5584 17.4256L33.5744 19.4416L34.2816 18.7344L32.2656 16.7184L31.5584 17.4256ZM31.7856 17.4256C31.7542 17.457 31.725 17.4747 31.7075 17.4838C31.6896 17.4931 31.6767 17.4972 31.6714 17.4988C31.662 17.5014 31.6629 17.5 31.672 17.5C31.6811 17.5 31.682 17.5014 31.6726 17.4988C31.6673 17.4972 31.6544 17.4931 31.6365 17.4838C31.619 17.4747 31.5898 17.457 31.5584 17.4256L32.2656 16.7184C32.1591 16.612 32.034 16.562 31.9474 16.5372C31.854 16.5106 31.7589 16.5 31.672 16.5C31.5851 16.5 31.49 16.5106 31.3966 16.5372C31.31 16.562 31.1849 16.612 31.0784 16.7184L31.7856 17.4256ZM30.1536 19.0576L31.7856 17.4256L31.0784 16.7184L29.4464 18.3504L30.1536 19.0576ZM27.683 19.5476C28.5581 19.9226 29.541 19.6701 30.1536 19.0576L29.4464 18.3504C29.099 18.6979 28.5459 18.8294 28.077 18.6284L27.683 19.5476ZM26.324 17.456C26.324 18.42 26.8235 19.1792 27.683 19.5476L28.077 18.6284C27.5925 18.4208 27.324 18.028 27.324 17.456H26.324ZM26.324 15.248V17.456H27.324V15.248H26.324ZM26.44 15.364C26.4048 15.364 26.3809 15.3554 26.3696 15.3501C26.3583 15.3448 26.3528 15.3399 26.3504 15.3376C26.3481 15.3352 26.3432 15.3297 26.3379 15.3184C26.3326 15.3071 26.324 15.2832 26.324 15.248H27.324C27.324 14.9894 27.1997 14.7726 27.0576 14.6304C26.9154 14.4883 26.6986 14.364 26.44 14.364V15.364ZM23.56 15.364H26.44V14.364H23.56V15.364ZM23.676 15.248C23.676 15.2832 23.6674 15.3071 23.6621 15.3184C23.6568 15.3297 23.6519 15.3352 23.6496 15.3376C23.6472 15.3399 23.6417 15.3448 23.6304 15.3501C23.6191 15.3554 23.5952 15.364 23.56 15.364V14.364C23.3014 14.364 23.0846 14.4883 22.9424 14.6304C22.8003 14.7726 22.676 14.9894 22.676 15.248H23.676ZM23.676 17.456V15.248H22.676V17.456H23.676ZM22.317 19.5476C23.1765 19.1792 23.676 18.42 23.676 17.456H22.676C22.676 18.028 22.4075 18.4208 21.923 18.6284L22.317 19.5476ZM19.8464 19.0576C20.459 19.6701 21.4419 19.9226 22.317 19.5476L21.923 18.6284C21.4541 18.8294 20.901 18.6979 20.5536 18.3504L19.8464 19.0576ZM18.2144 17.4256L19.8464 19.0576L20.5536 18.3504L18.9216 16.7184L18.2144 17.4256ZM18.4416 17.4256C18.4102 17.457 18.381 17.4747 18.3635 17.4838C18.3456 17.4931 18.3327 17.4972 18.3274 17.4988C18.318 17.5014 18.3189 17.5 18.328 17.5C18.3371 17.5 18.338 17.5014 18.3286 17.4988C18.3233 17.4972 18.3104 17.4931 18.2925 17.4838C18.275 17.4747 18.2458 17.457 18.2144 17.4256L18.9216 16.7184C18.8151 16.612 18.69 16.562 18.6034 16.5372C18.51 16.5106 18.4149 16.5 18.328 16.5C18.2411 16.5 18.146 16.5106 18.0526 16.5372C17.966 16.562 17.8409 16.612 17.7344 16.7184L18.4416 17.4256ZM16.4256 19.4416L18.4416 17.4256L17.7344 16.7184L15.7184 18.7344L16.4256 19.4416ZM16.4256 19.2144C16.457 19.2458 16.4747 19.275 16.4838 19.2925C16.4931 19.3104 16.4972 19.3233 16.4988 19.3286C16.5014 19.338 16.5 19.3371 16.5 19.328C16.5 19.3189 16.5014 19.318 16.4988 19.3274C16.4972 19.3327 16.4931 19.3456 16.4838 19.3635C16.4747 19.381 16.457 19.4102 16.4256 19.4416L15.7184 18.7344C15.612 18.8409 15.562 18.966 15.5372 19.0526C15.5106 19.146 15.5 19.2411 15.5 19.328C15.5 19.4149 15.5106 19.51 15.5372 19.6034C15.562 19.69 15.612 19.8151 15.7184 19.9216L16.4256 19.2144ZM18.0576 20.8464L16.4256 19.2144L15.7184 19.9216L17.3504 21.5536L18.0576 20.8464ZM18.5476 23.317C18.9226 22.4419 18.6701 21.459 18.0576 20.8464L17.3504 21.5536C17.6979 21.901 17.8294 22.4541 17.6284 22.923L18.5476 23.317ZM16.456 24.676C17.42 24.676 18.1792 24.1765 18.5476 23.317L17.6284 22.923C17.4208 23.4075 17.028 23.676 16.456 23.676V24.676ZM14.248 24.676H16.456V23.676H14.248V24.676ZM14.364 24.56C14.364 24.5952 14.3554 24.6191 14.3501 24.6304C14.3448 24.6417 14.3399 24.6472 14.3376 24.6496C14.3352 24.6519 14.3297 24.6568 14.3184 24.6621C14.3071 24.6674 14.2832 24.676 14.248 24.676V23.676C13.9894 23.676 13.7726 23.8003 13.6304 23.9424C13.4883 24.0846 13.364 24.3014 13.364 24.56H14.364ZM14.364 27.44V24.56H13.364V27.44H14.364ZM14.248 27.324C14.2832 27.324 14.3071 27.3326 14.3184 27.3379C14.3297 27.3432 14.3352 27.3481 14.3376 27.3504C14.3399 27.3528 14.3448 27.3583 14.3501 27.3696C14.3554 27.3809 14.364 27.4048 14.364 27.44H13.364C13.364 27.6986 13.4883 27.9154 13.6304 28.0576C13.7726 28.1997 13.9894 28.324 14.248 28.324V27.324ZM16.456 27.324H14.248V28.324H16.456V27.324ZM18.5476 28.683C18.1792 27.8235 17.42 27.324 16.456 27.324V28.324C17.028 28.324 17.4208 28.5925 17.6284 29.077L18.5476 28.683ZM18.0576 31.1536C18.6701 30.541 18.9226 29.5581 18.5476 28.683L17.6284 29.077C17.8294 29.5459 17.6979 30.099 17.3504 30.4464L18.0576 31.1536ZM16.4256 32.7856L18.0576 31.1536L17.3504 30.4464L15.7184 32.0784L16.4256 32.7856ZM16.4256 32.5584C16.457 32.5898 16.4747 32.619 16.4838 32.6365C16.4931 32.6544 16.4972 32.6673 16.4988 32.6726C16.5014 32.682 16.5 32.6811 16.5 32.672C16.5 32.6629 16.5014 32.662 16.4988 32.6714C16.4972 32.6767 16.4931 32.6896 16.4838 32.7075C16.4747 32.725 16.457 32.7542 16.4256 32.7856L15.7184 32.0784C15.612 32.1849 15.562 32.31 15.5372 32.3966C15.5106 32.49 15.5 32.5851 15.5 32.672C15.5 32.7589 15.5106 32.854 15.5372 32.9474C15.562 33.034 15.612 33.1591 15.7184 33.2656L16.4256 32.5584ZM18.4416 34.5744L16.4256 32.5584L15.7184 33.2656L17.7344 35.2816L18.4416 34.5744ZM18.2144 34.5744C18.2458 34.543 18.275 34.5253 18.2925 34.5162C18.3104 34.5069 18.3233 34.5028 18.3286 34.5012C18.338 34.4985 18.3371 34.5 18.328 34.5C18.3189 34.5 18.318 34.4985 18.3274 34.5012C18.3327 34.5028 18.3456 34.5069 18.3635 34.5162C18.381 34.5253 18.4102 34.543 18.4416 34.5744L17.7344 35.2816C17.8409 35.388 17.966 35.438 18.0526 35.4628C18.146 35.4894 18.2411 35.5 18.328 35.5C18.4149 35.5 18.51 35.4894 18.6034 35.4628C18.69 35.438 18.8151 35.388 18.9216 35.2816L18.2144 34.5744ZM19.8464 32.9424L18.2144 34.5744L18.9216 35.2816L20.5536 33.6496L19.8464 32.9424ZM21.448 32.316C20.8165 32.316 20.3279 32.5751 19.9 32.896L20.5 33.696C20.8401 33.4409 21.1195 33.316 21.448 33.316V32.316ZM22.3436 32.4648C22.1674 32.3767 21.9768 32.3448 21.8338 32.3305C21.6853 32.3156 21.5412 32.316 21.448 32.316V33.316C21.5468 33.316 21.6427 33.3164 21.7342 33.3255C21.8312 33.3352 21.8806 33.3513 21.8964 33.3592L22.3436 32.4648ZM23.676 34.544C23.676 33.58 23.1765 32.8208 22.317 32.4524L21.923 33.3716C22.4075 33.5792 22.676 33.972 22.676 34.544H23.676ZM23.676 36.752V34.544H22.676V36.752H23.676ZM23.56 36.636C23.5952 36.636 23.6191 36.6446 23.6304 36.6499C23.6417 36.6552 23.6472 36.6601 23.6496 36.6624C23.6519 36.6648 23.6568 36.6703 23.6621 36.6816C23.6674 36.6929 23.676 36.7168 23.676 36.752H22.676C22.676 37.0106 22.8003 37.2274 22.9424 37.3696C23.0846 37.5117 23.3014 37.636 23.56 37.636V36.636ZM26.44 36.636H23.56V37.636H26.44V36.636ZM26.324 36.752C26.324 36.7168 26.3326 36.6929 26.3379 36.6816C26.3432 36.6703 26.3481 36.6648 26.3504 36.6624C26.3528 36.6601 26.3583 36.6552 26.3696 36.6499C26.3809 36.6446 26.4048 36.636 26.44 36.636V37.636C26.6986 37.636 26.9154 37.5117 27.0576 37.3696C27.1997 37.2274 27.324 37.0106 27.324 36.752H26.324ZM26.324 34.544V36.752H27.324V34.544H26.324ZM27.683 32.4524C26.8235 32.8208 26.324 33.58 26.324 34.544H27.324C27.324 33.972 27.5925 33.5792 28.077 33.3716L27.683 32.4524ZM30.1536 32.9424C29.541 32.3299 28.5581 32.0774 27.683 32.4524L28.077 33.3716C28.5459 33.1706 29.099 33.3021 29.4464 33.6496L30.1536 32.9424ZM31.7856 34.5744L30.1536 32.9424L29.4464 33.6496L31.0784 35.2816L31.7856 34.5744ZM31.5585 34.5744C31.5899 34.543 31.619 34.5253 31.6365 34.5162C31.6544 34.5069 31.6673 34.5028 31.6726 34.5012C31.682 34.4985 31.6811 34.5 31.672 34.5C31.6629 34.5 31.662 34.4985 31.6714 34.5012C31.6767 34.5028 31.6896 34.5069 31.7075 34.5162C31.725 34.5253 31.7542 34.543 31.7856 34.5744L31.0784 35.2816C31.1849 35.388 31.31 35.438 31.3966 35.4628C31.49 35.4894 31.5851 35.5 31.672 35.5C31.7589 35.5 31.854 35.4894 31.9474 35.4628C32.034 35.438 32.1591 35.388 32.2656 35.2816L31.5585 34.5744ZM33.5744 32.5584L31.5584 34.5744L32.2656 35.2816L34.2816 33.2656L33.5744 32.5584ZM33.5744 32.7856C33.543 32.7542 33.5253 32.725 33.5162 32.7075C33.5069 32.6896 33.5028 32.6767 33.5012 32.6714C33.4985 32.662 33.5 32.6629 33.5 32.672C33.5 32.6811 33.4985 32.682 33.5012 32.6726C33.5028 32.6673 33.5069 32.6544 33.5162 32.6365C33.5253 32.619 33.543 32.5899 33.5744 32.5585L34.2816 33.2656C34.388 33.1591 34.438 33.034 34.4628 32.9474C34.4894 32.854 34.5 32.7589 34.5 32.672C34.5 32.5851 34.4894 32.49 34.4628 32.3966C34.438 32.31 34.388 32.1849 34.2816 32.0784L33.5744 32.7856ZM31.9424 31.1536L33.5744 32.7856L34.2816 32.0784L32.6496 30.4464L31.9424 31.1536ZM31.4524 28.683C31.0774 29.5581 31.3299 30.541 31.9424 31.1536L32.6496 30.4464C32.3021 30.099 32.1706 29.5459 32.3716 29.077L31.4524 28.683ZM33.544 27.324C32.58 27.324 31.8208 27.8235 31.4524 28.683L32.3716 29.077C32.5792 28.5925 32.972 28.324 33.544 28.324V27.324ZM35.752 27.324H33.544V28.324H35.752V27.324Z" fill="#CDD0E3"/>
<path fill-rule="evenodd" clip-rule="evenodd" d="M20.968 26C20.968 23.792 22.792 21.968 25 21.968C27.208 21.968 29.032 23.792 29.032 26C29.032 28.208 27.208 30.032 25 30.032C22.792 30.032 20.968 28.208 20.968 26ZM21.928 26C21.928 27.632 23.272 29.072 25 29.072C26.728 29.072 28.072 27.632 28.072 26C28.072 24.368 26.632 22.928 25 22.928C23.368 22.928 21.928 24.368 21.928 26Z" fill="#CDD0E3"/>
<path d="M25 21.68C22.6329 21.68 20.68 23.6329 20.68 26H21.256C21.256 23.951 22.9511 22.256 25 22.256V21.68ZM29.32 26C29.32 23.6329 27.3671 21.68 25 21.68V22.256C27.0489 22.256 28.744 23.951 28.744 26H29.32ZM25 30.32C27.3671 30.32 29.32 28.367 29.32 26H28.744C28.744 28.0489 27.0489 29.744 25 29.744V30.32ZM20.68 26C20.68 28.367 22.6329 30.32 25 30.32V29.744C22.9511 29.744 21.256 28.0489 21.256 26H20.68ZM25 28.784C23.4369 28.784 22.216 27.4788 22.216 26H21.64C21.64 27.7852 23.1071 29.36 25 29.36V28.784ZM27.784 26C27.784 27.4788 26.5631 28.784 25 28.784V29.36C26.8929 29.36 28.36 27.7852 28.36 26H27.784ZM25 23.216C26.4729 23.216 27.784 24.527 27.784 26H28.36C28.36 24.2089 26.7911 22.64 25 22.64V23.216ZM22.216 26C22.216 24.527 23.5271 23.216 25 23.216V22.64C23.2089 22.64 21.64 24.2089 21.64 26H22.216Z" fill="#CDD0E3"/>
</svg>
