<svg width="40" height="41" viewBox="0 0 40 41" fill="none" xmlns="http://www.w3.org/2000/svg">
<path d="M39.5534 19.6594C39.5309 19.4568 39.5084 19.2431 39.4747 19.0405C39.4184 18.5905 39.3734 18.1291 39.3059 17.6678C38.8446 14.4048 37.6406 11.4119 35.7504 8.79022C34.1301 6.52863 32.0711 4.69461 29.6519 3.34441C27.4579 2.11797 25.0387 1.35285 22.4509 1.06031C21.7082 0.970294 20.9431 0.925293 20.2005 0.925293C18.8841 0.925293 17.5789 1.06031 16.2737 1.33035V1.3191L16.0824 1.37536C15.7786 1.44287 15.4861 1.51037 15.1823 1.58913C14.7997 1.6904 14.4059 1.81418 14.0233 1.93795C13.6745 2.03921 13.382 2.12922 13.1007 2.23049C10.0515 3.3219 7.39607 5.15593 5.20199 7.68756C3.00791 10.2079 1.52269 13.1221 0.768822 16.3289C0.239992 18.5905 0.10497 20.8521 0.352507 23.0574C0.611297 25.3077 1.18513 27.4118 2.06276 29.3021C3.01916 31.3499 4.32436 33.1727 5.93335 34.7141C7.73362 36.4357 9.84894 37.7746 12.4031 38.8098C13.517 39.2598 14.6084 39.4736 15.6211 39.6311C16.1499 39.7437 16.7012 39.8337 17.2413 39.9012C17.4326 39.9237 17.6126 39.9462 17.8039 39.9687C18.389 40.07 19.1316 40.115 20.0205 40.115C20.3805 40.115 20.7293 40.1037 21.0556 40.0925L20.7856 40.205L21.9558 40.0475C22.4509 40.0137 22.8447 39.9574 23.0472 39.9237L23.1034 39.9124C23.1372 39.9012 23.1597 39.8899 23.1822 39.8787C24.6674 39.6649 26.0964 39.3161 27.4241 38.821C29.1906 38.1572 30.8334 37.2683 32.2848 36.1544C34.0176 34.8267 35.4916 33.2177 36.6392 31.3499C37.7869 29.5046 38.5745 27.5468 38.9909 25.5103C39.1259 24.8352 39.2271 24.1488 39.3172 23.4737C39.3622 23.1586 39.4072 22.8549 39.4522 22.5398C39.4634 22.4836 39.4747 22.416 39.4859 22.3598L39.5084 22.2585L39.5197 19.7269L39.5534 19.6594ZM24.1161 6.93369C25.5788 6.93369 26.794 8.16013 26.7828 9.60035C26.7715 11.0406 25.5563 12.267 24.1161 12.267C22.6759 12.267 21.4607 11.0406 21.4607 9.60035C21.4719 8.16013 22.6871 6.93369 24.1161 6.93369ZM27.0753 35.9068C26.0626 37.4483 24.7124 38.5735 23.0809 39.2598C22.7209 39.3048 22.3496 39.3498 21.9783 39.3836C20.6731 39.4961 19.3229 39.4849 17.9389 39.3386C17.4551 39.2486 16.9825 39.1811 16.5212 39.1136C16.2737 39.0798 16.0261 39.0461 15.7786 39.001C14.3609 38.7085 12.9882 38.2584 11.6942 37.6734C10.2765 37.032 8.96006 36.2219 7.77863 35.2767C6.69847 34.4104 5.73082 33.4427 4.8982 32.385C3.8968 31.1136 3.06417 29.7184 2.43407 28.2219C1.84898 26.8155 1.45518 25.4765 1.23015 24.1038C1.15138 23.5862 1.08387 23.0461 1.01636 22.5173C0.982605 22.281 0.960097 22.0447 0.926341 21.8084V19.5806C0.926341 19.5694 0.926339 19.5694 0.93759 19.5581C0.948842 19.5019 0.971351 19.4343 0.971351 19.3556C1.09512 17.8253 1.38766 16.3289 1.83773 14.9337C2.42281 13.1221 3.26669 11.4119 4.36936 9.84788C5.69706 7.9576 7.35107 6.31486 9.27511 4.97591C10.8278 3.89574 12.4931 3.06311 14.2371 2.47802C14.5297 2.38801 14.8335 2.30925 15.1372 2.23049C15.2835 2.18548 15.441 2.15173 15.5873 2.10672C15.5423 2.43302 15.5086 2.74807 15.4635 3.06312C15.3285 4.07577 15.2048 5.04341 15.1035 6.01106C14.9122 7.68756 14.7547 9.69037 14.991 11.7382C15.1935 13.5159 15.6773 14.9899 16.4537 16.2614C17.1963 17.4765 18.1189 18.5117 19.2104 19.3218C20.3018 20.1432 21.4382 20.9421 22.5971 21.6734C22.9684 21.9097 23.3622 22.0785 23.756 22.2473C24.0261 22.3598 24.2849 22.4723 24.5324 22.6073C26.1527 23.4624 27.3228 24.4864 28.1105 25.7465C28.8193 26.883 29.1569 28.1769 29.1119 29.5834C29.0106 31.8787 28.3355 33.994 27.0753 35.9068Z" fill="white"/>
<path d="M15.9833 25.6665H15.9383C14.138 25.6665 12.7316 27.0392 12.6753 28.8733C12.6303 30.651 14.0705 32.1363 15.8933 32.1813C15.9158 32.1813 15.9496 32.1813 15.9833 32.1813C17.7273 32.1813 19.1675 30.7298 19.2013 28.9408C19.2126 28.0856 18.8862 27.2643 18.2787 26.6454C17.6711 26.0266 16.8609 25.6778 15.9833 25.6665Z" fill="white"/>
</svg>
