<svg width="300" height="291" viewBox="0 0 300 291" fill="none" xmlns="http://www.w3.org/2000/svg">
<path d="M327.195 291.027C342.543 267.95 380.434 138.637 355.688 123.585C328.5 107.049 306.651 134.611 285.287 112.723C275.969 103.177 283.669 79.4874 264.41 71.7059C237.357 60.7764 169.57 101.86 180.251 71.5459C190.932 41.2315 118.265 20.3151 48.9574 24.3323C-20.3506 28.3494 -7.47897 69.4397 -6.51971 76.0864C-5.56045 82.7331 4.65246 114.83 -34.837 129.583C-74.3265 144.337 -65.2631 164.44 -61.3765 175.95C-57.9935 185.976 -38.8803 197.838 -66.7163 223.777C-89.8984 245.374 -71.7317 280.027 -64.9993 291.027H327.195Z" fill="#B4B4D2"/>
<g style="mix-blend-mode:multiply" opacity="0.5">
<path d="M-36.187 130.124L-36.861 130.386L-37.2203 130.53L-37.8351 130.776L-38.1945 130.923L-38.8061 131.177L-39.1351 131.314C-39.3683 131.412 -39.5993 131.511 -39.8282 131.61L-40.0502 131.704L-40.9525 132.099L-41.1122 132.17C-41.3534 132.279 -41.5913 132.386 -41.8293 132.49L-42.1056 132.618L-42.6917 132.891L-42.9839 133.03L-43.5461 133.3L-43.8239 133.436L-44.4116 133.728L-44.6336 133.838C-45.1756 134.112 -45.7031 134.386 -46.2163 134.659L-46.3568 134.736L-46.9733 135.071L-47.1777 135.185C-47.3597 135.285 -47.5402 135.386 -47.7175 135.488L-47.9283 135.608L-48.4585 135.923L-48.6389 136.028L-49.257 136.397L-49.3321 136.442C-49.8037 136.727 -50.2615 137.015 -50.7055 137.305L-50.8013 137.367C-50.9866 137.487 -51.1702 137.608 -51.3523 137.73L-51.4848 137.819C-51.6557 137.934 -51.825 138.049 -51.9927 138.166L-52.1172 138.252L-52.6491 138.626L-52.7209 138.677C-53.3342 139.118 -53.9197 139.56 -54.4776 140.004L-54.5287 140.044C-54.6884 140.177 -54.8593 140.309 -55.0206 140.442L-55.0925 140.503C-55.2522 140.634 -55.4119 140.766 -55.5716 140.899L-55.6211 140.942C-56.3206 141.542 -56.9748 142.143 -57.5838 142.746L-57.6078 142.77C-57.7515 142.912 -57.8921 143.054 -58.031 143.198L-58.0597 143.228C-58.2035 143.377 -58.3456 143.525 -58.4845 143.674L-62.1928 148.674C-66.08 155.501 -65.438 162.303 -63.8841 168.142C-63.7403 168.683 -63.5897 169.215 -63.4321 169.739C-63.4314 169.743 -63.4314 169.747 -63.4321 169.75L-63.3171 170.129C-63.3164 170.133 -63.3164 170.138 -63.3171 170.142C-63.1595 170.656 -62.9998 171.161 -62.838 171.656C-62.8336 171.667 -62.8298 171.678 -62.8268 171.69C-62.7885 171.805 -62.7502 171.92 -62.7134 172.033C-62.7134 172.033 -62.7134 172.048 -62.7055 172.054C-62.582 172.422 -62.4595 172.785 -62.3381 173.142V173.158C-62.2998 173.273 -62.2599 173.388 -62.22 173.501V173.511C-62.0826 173.909 -61.9469 174.297 -61.8143 174.678C-61.7968 174.733 -61.7776 174.786 -61.76 174.838L-61.7169 174.963C-61.6946 175.028 -61.6722 175.094 -61.6482 175.161C-61.6339 175.202 -61.6211 175.244 -61.6067 175.284C-61.5828 175.353 -61.5588 175.421 -61.5364 175.49C-61.5237 175.524 -61.5125 175.559 -61.5013 175.592C-61.4662 175.694 -61.431 175.797 -61.3975 175.897C-58.0182 185.904 -38.9259 197.742 -66.7315 223.634C-82.2322 238.067 -79.2218 258.342 -73.5205 273.461L331.393 282.088C341.9 259.404 357.084 209.543 361.876 171.492H348.427V120.332C347.525 120 346.629 119.707 345.738 119.455L345.675 119.439C345.479 119.383 345.283 119.329 345.086 119.279L344.987 119.254L344.431 119.113L344.321 119.087C344.137 119.043 343.954 119.001 343.77 118.96L343.668 118.937C343.478 118.896 343.288 118.854 343.098 118.816L343.021 118.8L342.4 118.68H342.379C341.499 118.519 340.624 118.391 339.754 118.297H339.743L339.123 118.233H339.049L338.487 118.185H338.391C338.212 118.17 338.031 118.157 337.85 118.146H337.748L337.205 118.116H337.115L336.544 118.094H336.488C335.427 118.062 334.373 118.07 333.326 118.11H333.251C333.072 118.11 332.891 118.124 332.712 118.134H332.601L332.098 118.162H331.97L331.48 118.196L331.35 118.206L330.853 118.244L330.737 118.254L330.212 118.301H330.128C329.511 118.36 328.896 118.427 328.282 118.503H328.234L327.688 118.571L327.541 118.591L327.099 118.65L326.901 118.677L326.51 118.731L326.286 118.763L325.924 118.817L325.682 118.854L325.344 118.905L325.08 118.947L324.774 118.995L324.486 119.041L324.224 119.084L323.892 119.14L323.758 119.162C318.534 120.038 313.475 121.169 308.526 121.539V130.645H283.109V115.325H264.692V140.338H245.836V96.0234H216.451V145.602H207.687V115.555H199.136L166.03 131.645H150.689V114.452H105.08V99.9723H79.2085V143.848H68.6858V124.103H55.9688V138.579H40.6214V61.5825H33.387L20.012 74.9643V112.696H7.041V103.484H-6.51926C-6.58952 103.697 -6.66138 103.912 -6.73485 104.13V138.583H-27.7835V126.538C-28.3222 126.809 -28.8711 127.076 -29.43 127.337H-29.446C-29.7159 127.463 -29.9874 127.589 -30.2637 127.714L-30.31 127.734C-30.5703 127.853 -30.8354 127.971 -31.1085 128.087L-31.1979 128.127C-31.4492 128.234 -31.7021 128.34 -31.9565 128.447L-32.0971 128.508C-32.3366 128.609 -32.5778 128.708 -32.8205 128.806L-33.0106 128.883C-33.2453 128.979 -33.4897 129.071 -33.7228 129.166L-33.9368 129.25C-34.2466 129.37 -34.5581 129.49 -34.8743 129.607C-35.1905 129.723 -35.5482 129.861 -35.8788 129.988L-36.187 130.124Z" fill="#B4B4D2"/>
</g>
<path opacity="0.8" d="M91.707 90.3808C91.5448 89.6814 91.2434 89.0215 90.8207 88.4402C90.398 87.8588 89.8626 87.3678 89.246 86.9961C88.6295 86.6245 87.9444 86.3797 87.2312 86.2764C86.5181 86.1731 85.7914 86.2133 85.0941 86.3946C84.2812 84.6627 82.8662 83.2826 81.1108 82.5096C79.3554 81.7366 77.3783 81.623 75.5452 82.1898C74.5922 80.6138 73.2106 79.3388 71.5603 78.5125C69.91 77.6862 68.0585 77.3423 66.2201 77.5206C64.3817 77.699 62.6316 78.3923 61.1724 79.5203C59.7132 80.6482 58.6045 82.1648 57.9747 83.8944C56.9533 83.3271 55.8007 83.0357 54.6313 83.0492C53.462 83.0627 52.3164 83.3806 51.3085 83.9713C50.3006 84.5621 49.4652 85.4051 48.8854 86.4167C48.3057 87.4283 48.0015 88.5734 48.0033 89.7383C48.0033 89.9583 48.0145 90.1736 48.0353 90.3872L91.707 90.3808Z" fill="#FCDDEC"/>
<path d="M56.0555 291.022C59.0214 288.458 60.8143 285.756 60.3585 283.061C59.5394 278.253 52.7501 281.343 52.492 277.872C52.0441 271.832 77.9547 273.244 77.0989 265.5C76.2622 257.928 57.2173 270.308 56.4205 264.842C55.928 261.462 84.7232 261.749 85.3081 254.065C85.893 246.381 64.4703 253.815 60.247 251.558C56.0236 249.302 100.844 235.628 96.3573 225.58C92.6918 217.385 62.8208 236.556 57.8994 234.631C52.978 232.706 76.8535 216.484 84.2339 201.64C91.8662 186.289 85.6284 178.564 73.5561 190.768C61.4837 202.973 41.6005 226.279 40.7782 219.264C39.9558 212.25 53.539 186.296 42.5089 188.238C23.1039 191.656 21.5022 223.941 15.4875 249.172C14.85 251.844 8.35885 220.388 0.490685 229.87C-3.55735 234.748 3.94904 270.665 8.62818 291.027L56.0555 291.022Z" fill="#F09A59"/>
<path opacity="0.8" d="M82.7676 58.6012C82.9879 57.6858 83.3982 56.8219 83.9742 56.0606C84.5502 55.2994 85.2803 54.6562 86.1211 54.1693C86.962 53.6824 87.8965 53.3615 88.8695 53.2258C89.8425 53.09 90.8341 53.1421 91.7857 53.3789C92.8939 51.1145 94.8234 49.3101 97.217 48.2998C99.6106 47.2895 102.306 47.1416 104.805 47.8835C106.105 45.8225 107.989 44.1552 110.239 43.0746C112.489 41.9939 115.014 41.544 117.521 41.7771C120.028 42.0101 122.414 42.9165 124.404 44.3913C126.394 45.8661 127.906 47.849 128.765 50.1106C130.159 49.3696 131.73 48.9892 133.325 49.0073C134.919 49.0253 136.481 49.4412 137.855 50.2137C139.23 50.9862 140.369 52.0884 141.159 53.411C141.95 54.7337 142.365 56.2308 142.364 57.7539C142.364 58.0409 142.348 58.3233 142.32 58.6027L82.7676 58.6012Z" fill="#FCDDEC"/>
<path opacity="0.8" d="M234.738 92.3738C234.859 91.8355 235.085 91.3275 235.402 90.88C235.719 90.4325 236.121 90.0546 236.583 89.7685C237.045 89.4824 237.559 89.294 238.094 89.2145C238.629 89.1349 239.174 89.1658 239.697 89.3054C240.309 87.974 241.37 86.9134 242.686 86.3189C244.002 85.7245 245.485 85.6362 246.859 86.0705C247.574 84.8576 248.61 83.8762 249.847 83.2402C251.085 82.6041 252.473 82.3392 253.852 82.4763C255.231 82.6134 256.543 83.1468 257.637 84.0147C258.732 84.8827 259.563 86.0497 260.036 87.3806C260.802 86.9446 261.666 86.7209 262.543 86.7316C263.42 86.7424 264.28 86.9872 265.035 87.4418C265.791 87.8965 266.418 88.5451 266.853 89.3235C267.288 90.1019 267.516 90.983 267.515 91.8794C267.515 92.0475 267.507 92.2123 267.491 92.3738H234.738Z" fill="#FCDDEC"/>
<path d="M164.517 289.452C164.859 290.816 166.189 291.996 168.121 293.014H230.925C232.959 283.151 234.17 271.818 229.695 269.582C226.089 267.781 224.835 273.848 222.395 272.323C218.148 269.669 231.741 252.975 226.16 249.75C220.698 246.609 219.662 265.451 215.626 263.31C213.131 261.986 227.38 242.799 222.544 238.641C217.708 234.483 212.205 252.507 208.64 254.232C205.076 255.957 217.839 219.191 208.95 217.289C201.701 215.738 199.894 245.166 196.21 247.528C192.525 249.89 193.365 225.933 187.072 213.719C180.563 201.088 172.365 201.496 174.606 215.575C176.846 229.654 182.679 254.39 177.601 251.507C172.524 248.625 161.847 226.84 157.758 235.186C150.563 249.882 159.953 262.918 173.839 279.286C175.309 281.015 162.038 279.533 164.517 289.452Z" fill="#F09A59"/>
<path d="M-36.4242 291.444C-36.4242 291.444 15.4666 246.164 82.3763 243.384C104.844 242.449 196.838 261.184 274.316 275.888C277.572 276.507 284.614 282.562 287.911 283.184C324.588 290.11 358.767 291.573 369.822 292.02L-36.4242 291.444Z" fill="#AEAFF7"/>
<path d="M293.04 271.162C293.241 269.526 293.341 267.881 293.34 266.233C293.34 247.561 280.666 232.424 265.033 232.424C249.4 232.424 236.724 247.561 236.724 266.233C236.724 267.88 236.824 269.526 237.024 271.162H293.04Z" fill="#7879F1"/>
<path d="M325.813 263.215C326.015 260.904 326.117 258.546 326.118 256.142C326.118 229.327 313.221 207.593 297.313 207.593C281.405 207.593 268.508 229.331 268.508 256.142C268.508 258.545 268.61 260.903 268.812 263.215H325.813Z" fill="#AEAFF7"/>
<path d="M269.879 292.02C269.627 289.713 269.501 287.394 269.502 285.073C269.502 258.737 285.51 237.391 305.259 237.391C325.008 237.391 341.017 258.74 341.017 285.073C341.017 287.394 340.891 289.713 340.639 292.02H269.879Z" fill="#7879F1"/>
<path d="M297.045 237.391C287.074 237.391 278.167 244.163 272.289 254.783C269.232 253.788 266.035 253.281 262.818 253.283C245.115 253.283 230.764 268.419 230.764 287.092C230.764 288.74 230.878 290.387 231.104 292.02H328.759C328.981 289.752 329.093 287.437 329.098 285.074C329.09 258.734 314.739 237.391 297.045 237.391Z" fill="#EF5DA8"/>
<path d="M289.422 165.807C289.446 165.01 290.543 164.387 291.125 165.096C291.707 165.805 291.68 165.326 292.246 166.849C293.91 171.263 296.192 175.415 299.024 179.181C304.34 186.283 309.601 189.866 315.576 193.415C313.114 187.839 311.465 181.892 311.255 175.891C311.179 173.704 311.22 171.43 312.152 169.428C312.412 168.867 313.411 168.982 313.512 169.608C314.013 172.705 313.274 175.039 314.273 180.581C316.651 193.804 326.072 207.836 335.16 217.659C333.417 201.029 332.573 182.133 335.69 165.356C336.2 162.603 337.014 159.987 337.768 157.298C337.946 156.661 338.841 156.938 338.73 157.566C338.572 158.461 337.09 170.003 336.999 170.8C335.558 183.573 335.847 197.723 336.968 210.627C344.017 201.035 348.735 189.815 350.942 178.099C351.593 174.636 351.767 171.059 352.685 167.659C352.811 167.193 353.581 167.142 353.676 167.659C354.616 172.757 352.735 181.762 351.365 186.656C348.587 196.576 344.144 205.467 338.069 213.41C337.833 213.719 347.825 291.337 347.557 292.32C347.104 293.979 344.228 295.142 343.784 292.201C343.603 291.003 338.114 243.808 335.636 221.945C334.699 221.427 334.098 220.511 331.69 217.785C326.116 211.489 320.606 203.656 316.922 196.269C314.712 196.141 298.75 188.336 290.833 170.565C290.605 170.052 289.576 167.647 289.43 167.11C289.3 166.659 289.408 166.261 289.422 165.807Z" fill="#7879F1"/>
<path d="M320.874 171.835C321.057 169.442 321.152 166.995 321.152 164.506C321.152 136.741 309.369 114.226 294.83 114.226C280.291 114.226 268.508 136.736 268.508 164.506C268.508 166.995 268.604 169.443 268.786 171.835H320.874Z" fill="#AEAFF7"/>
<path d="M362.517 171.835C362.747 168.453 362.865 164.999 362.869 161.472C362.869 122.213 347.97 90.3873 329.594 90.3873C311.217 90.3873 296.32 122.221 296.32 161.472C296.32 164.992 296.437 168.446 296.672 171.835H362.517Z" fill="#7879F1"/>
<path d="M-7.46916 205.064L-10.1796 198.527C-12.2823 193.726 -17.6648 191.423 -22.2085 193.406C-33.639 198.386 -38.6093 212.243 -33.3086 224.36L-29.4322 233.218C-27.7353 237.098 -28.3255 241.368 -30.6158 244.378C-32.7008 247.111 -33.0344 250.912 -31.5925 254.208L-29.5492 258.878C-28.4755 261.336 -26.8808 263.533 -24.8749 265.317C-22.869 267.102 -20.4995 268.431 -17.9294 269.214C-16.3697 269.699 -14.934 270.516 -13.7215 271.608C-12.5089 272.7 -11.5484 274.042 -10.9062 275.54L-8.01928 282.153C-4.82122 289.463 3.368 292.953 10.2645 289.949L14.2003 288.235C21.0969 285.232 24.0961 276.873 20.898 269.56C15.7256 260.819 16.1378 254.295 17.971 249.877C19.3185 246.593 19.9906 243.072 19.9474 239.524C19.9041 235.975 19.1464 232.472 17.7192 229.222L17.3102 228.287C15.8164 224.863 13.6083 221.796 10.833 219.29C8.0578 216.784 4.77918 214.897 1.21564 213.755C-1.90703 212.756 -5.16284 210.332 -7.46916 205.064Z" fill="#EF5DA8"/>
<path d="M36.0842 290.97C32.099 285.865 -5.38733 258.576 -19.6527 254.019C-35.4006 248.984 -20.5597 268.964 -20.5597 268.964C-20.5597 268.964 -48.4943 238.819 -58.7442 241.537C-68.1413 244.027 -58.7442 262.713 -58.7442 262.713C-58.7442 262.713 -69.3289 252.367 -82.1628 252.367C-94.654 252.367 -73.4368 289.062 -72.2923 291.027L36.0842 290.97Z" fill="#D3D3F4"/>
<path d="M-3.30174 240.464C-6.79886 231.462 -10.2232 222.455 -12.7098 213.089C-20.3589 184.27 -18.5125 163.263 -18.2279 153.163C-18.1891 151.83 -20.3524 151.463 -20.5416 152.844C-21.1883 157.585 -21.337 162.401 -21.3694 167.184C-21.4217 175.29 -20.9237 183.39 -19.8787 191.43C-25.4906 192.876 -30.7985 190.71 -35.1412 186.819C-42.6269 180.115 -45.2995 171.175 -46.4765 161.277C-46.5961 160.267 -46.6382 159.309 -47.466 158.723C-47.6519 158.204 -48.4166 158.045 -48.6074 158.819C-49.7941 160.026 -49.2186 162.448 -49.0359 164.006C-46.5654 185.092 -33.6133 195.312 -23.185 195.223C-22.0403 195.213 -20.6499 195.157 -19.4066 194.816C-18.6521 199.859 -17.6852 204.861 -16.5061 209.821C-14.2539 219.264 -11.093 228.376 -7.61372 237.405C4.27938 268.274 8.06914 284.045 11.4515 292.98C11.9624 294.776 14.6479 294.024 14.1774 292.205C14.0092 291.557 4.73047 261.145 -3.30174 240.464Z" fill="#7879F1"/>
<path d="M43.8371 159.555C43.7251 158.893 43.3363 158.453 43.1891 157.834C42.9939 157.015 41.6547 156.933 41.5154 157.834C41.4355 158.348 41.1491 158.665 41.0354 159.192C40.6771 160.895 41.5443 170.475 39.2755 185.141C38.6739 189.039 38.0083 192.914 36.7155 196.635C34.6131 202.648 30.7795 209.13 26.0147 213.227C25.8891 204.637 25.3225 196.058 24.3171 187.525C23.6973 182.417 22.9155 177.337 21.9715 172.284C21.5107 169.824 21.0115 167.372 20.4739 164.927C19.9123 162.361 19.3811 159.899 18.1507 157.579C17.7731 156.866 16.6979 157.199 16.6963 157.988C16.6963 160.266 17.1475 162.363 17.6243 164.575C18.1011 166.787 18.5411 168.988 18.9539 171.203C22.0163 187.623 23.1683 202.206 23.1555 218.647C18.1075 212.312 13.6931 204.723 10.4227 197.272C6.45355 188.247 3.86484 178.681 2.74268 168.892C2.43548 166.156 2.25095 163.409 2.18909 160.65C2.15922 159.225 2.12989 157.799 2.10109 156.372C2.08509 155.638 1.80348 153.424 0.565085 154.074C-0.575714 154.67 -0.466912 156.001 -0.562912 157.164C-0.666912 158.438 -0.67651 159.694 -0.66051 160.966C-0.62851 163.401 -0.498911 165.832 -0.271711 168.26C1.36669 185.827 8.01148 203.192 18.1155 217.42C19.6563 219.588 21.2467 221.913 23.1171 223.806C22.6867 251.923 18.4995 287.439 18.4259 290.279C18.4099 290.905 18.5523 291.553 18.6451 292.164C18.8355 293.438 20.5171 293.145 20.8595 292.164C21.5091 290.312 21.4419 289.591 22.4115 279.334C24.1379 261.042 26.0723 219.137 26.0643 217.441C32.0643 213.141 36.3043 206.528 39.0883 199.62C40.5603 195.957 41.4242 192.183 42.0738 188.279C44.2674 175 44.1987 161.726 43.8371 159.555Z" fill="#7879F1"/>
<path d="M1.97211 136.073C2.19988 134.015 2.31373 131.947 2.31311 129.877C2.31311 106.421 -12.1395 87.4074 -29.9672 87.4074C-47.795 87.4074 -62.2492 106.426 -62.2492 129.882C-62.2498 131.952 -62.136 134.02 -61.9082 136.077L1.97211 136.073Z" fill="#7879F1"/>
<path d="M39.711 126.145C39.9386 123.255 40.054 120.305 40.0572 117.293C40.0572 83.7806 25.3823 56.6162 7.28023 56.6162C-10.8218 56.6162 -25.4984 83.7838 -25.4984 117.293C-25.4984 120.297 -25.3829 123.248 -25.1521 126.145H39.711Z" fill="#AEAFF7"/>
<path d="M-25.0574 162.896C-25.3471 160.008 -25.4941 157.058 -25.4984 154.044C-25.4984 120.53 -6.82077 93.3669 16.218 93.3669C39.2568 93.3669 57.936 120.535 57.936 154.044C57.936 157.048 57.789 159.999 57.495 162.896H-25.0574Z" fill="#7879F1"/>
<path d="M7.12371 93.3669C-4.35742 93.3669 -14.6142 101.991 -21.3841 115.508C-24.884 114.244 -28.5758 113.598 -32.2956 113.599C-52.6744 113.599 -69.2021 132.86 -69.2021 156.62C-69.2029 158.718 -69.0727 160.814 -68.8122 162.896H43.6403C43.897 160.009 44.027 157.058 44.0302 154.045C44.0334 120.53 27.5089 93.3669 7.12371 93.3669Z" fill="#AEAFF7"/>
<path d="M-19.4718 255.346C-11.1865 263.717 -3.96347 273.205 1.43778 283.756C2.95353 286.719 4.23534 289.77 5.55722 292.819C5.73347 293.224 6.41282 292.935 6.26542 292.515L5.82319 291.26C5.73667 291.015 5.29925 291.026 5.34251 291.327C5.39805 291.76 5.45146 292.194 5.50274 292.627L6.26381 292.522C4.2097 287.005 1.35927 281.688 -1.70747 276.695C-10.9013 261.727 -20.4204 254.395 -19.4734 255.352L-19.4718 255.346Z" fill="#AEAFF7"/>
<path d="M201.96 170.842C202.501 169.908 203.101 169.025 203.719 168.157C204.337 167.289 204.981 166.446 205.641 165.619C206.301 164.793 206.985 163.98 207.691 163.19C208.397 162.4 209.122 161.629 209.906 160.909C209.364 161.844 208.764 162.727 208.148 163.594C207.531 164.461 206.886 165.305 206.223 166.133C205.559 166.962 204.879 167.771 204.175 168.561C203.47 169.351 202.743 170.12 201.96 170.842Z" fill="#FCDDEC"/>
<path d="M115.545 82.441C116.088 81.5058 116.687 80.6233 117.305 79.7568C117.923 78.8902 118.567 78.046 119.228 77.2177C119.888 76.3895 120.572 75.5788 121.278 74.7888C121.984 73.9989 122.71 73.2297 123.492 72.5083C122.951 73.4435 122.351 74.326 121.735 75.1942C121.118 76.0623 120.473 76.905 119.809 77.7316C119.146 78.5583 118.465 79.3626 117.761 80.1605C117.056 80.9585 116.327 81.7197 115.545 82.441Z" fill="#FCDDEC"/>
<path d="M82.7676 110.253C83.3775 109.317 84.0523 108.435 84.7458 107.568C85.4394 106.702 86.1654 105.858 86.9102 105.029C87.655 104.201 88.422 103.392 89.2147 102.602C90.0073 101.812 90.8256 101.041 91.707 100.32C91.0989 101.255 90.4241 102.138 89.7289 103.006C89.0336 103.874 88.3093 104.717 87.5645 105.543C86.8197 106.37 86.0509 107.181 85.2583 107.97C84.4657 108.76 83.6474 109.53 82.7676 110.253Z" fill="#FCDDEC"/>
<path d="M117.532 108.266C118.142 107.332 118.817 106.45 119.51 105.581C120.204 104.713 120.93 103.87 121.675 103.042C122.419 102.214 123.186 101.404 123.979 100.614C124.772 99.8241 125.59 99.0532 126.471 98.3333C125.863 99.2671 125.189 100.151 124.495 101.018C123.801 101.885 123.074 102.729 122.329 103.556C121.584 104.383 120.817 105.193 120.023 105.984C119.228 106.774 118.414 107.545 117.532 108.266Z" fill="#FCDDEC"/>
<path d="M87.7339 131.111C88.2758 130.177 88.8755 129.295 89.4934 128.426C90.1113 127.558 90.755 126.717 91.4169 125.889C92.0789 125.06 92.7605 124.249 93.465 123.459C94.1694 122.669 94.8966 121.9 95.68 121.178C95.138 122.114 94.5383 122.996 93.9219 123.865C93.3056 124.733 92.6603 125.574 91.9969 126.403C91.3335 127.231 90.6533 128.04 89.9489 128.83C89.2445 129.62 88.5172 130.396 87.7339 131.111Z" fill="#FCDDEC"/>
<path d="M89.7205 202.626C90.2626 201.691 90.8624 200.809 91.4789 199.942C92.0953 199.076 92.7407 198.231 93.4027 197.403C94.0648 196.575 94.7466 195.766 95.4511 194.976C96.1557 194.186 96.8831 193.415 97.6666 192.694C97.126 193.629 96.5262 194.513 95.9082 195.38C95.2902 196.246 94.6464 197.09 93.9843 197.917C93.3223 198.744 92.639 199.554 91.9344 200.344C91.2298 201.134 90.5025 201.905 89.7205 202.626Z" fill="#FCDDEC"/>
<path d="M48.9967 204.613C49.6066 203.679 50.2813 202.796 50.9766 201.928C51.6719 201.06 52.3962 200.217 53.1393 199.39C53.8824 198.563 54.6511 197.751 55.4454 196.961C56.2398 196.171 57.0563 195.4 57.9361 194.68C57.328 195.615 56.6532 196.498 55.9596 197.365C55.2661 198.231 54.54 199.076 53.7935 199.903C53.047 200.729 52.2817 201.542 51.4891 202.34C50.6964 203.138 49.8782 203.891 48.9967 204.613Z" fill="#FCDDEC"/>
<path d="M66.8755 171.835C67.4853 170.9 68.1601 170.017 68.8537 169.151C69.5472 168.284 70.2732 167.44 71.0181 166.612C71.7629 165.784 72.5299 164.974 73.3225 164.185C74.1152 163.395 74.9334 162.624 75.8149 161.902C75.2067 162.838 74.532 163.72 73.8367 164.588C73.1414 165.456 72.4171 166.299 71.6723 167.126C70.9275 167.952 70.1588 168.763 69.3661 169.553C68.5735 170.343 67.7552 171.114 66.8755 171.835Z" fill="#FCDDEC"/>
<path d="M41.0505 141.044C41.5926 140.11 42.1924 139.226 42.8089 138.359C43.4254 137.492 44.0707 136.648 44.7328 135.82C45.3948 134.991 46.0766 134.182 46.7812 133.392C47.4857 132.602 48.2131 131.831 48.9966 131.111C48.456 132.045 47.8562 132.929 47.2382 133.796C46.6202 134.663 45.9764 135.507 45.3143 136.334C44.6523 137.16 43.969 137.971 43.2644 138.761C42.5598 139.551 41.8325 140.322 41.0505 141.044Z" fill="#FCDDEC"/>
<path d="M62.9024 66.5488C63.4445 65.6137 64.0443 64.7311 64.6623 63.8646C65.2803 62.998 65.9242 62.1538 66.5847 61.3256C67.2452 60.4973 67.9286 59.6882 68.6346 58.8983C69.3407 58.1083 70.065 57.3375 70.8486 56.6162C70.308 57.5514 69.7082 58.4339 69.0917 59.302C68.4752 60.1702 67.8299 61.0128 67.1663 61.8394C66.5027 62.6661 65.8224 63.4768 65.1179 64.2747C64.4133 65.0727 63.686 65.8275 62.9024 66.5488Z" fill="#FCDDEC"/>
<path d="M39.0639 44.697C39.6736 43.7633 40.3483 42.8806 41.0434 42.0124C41.7385 41.1441 42.4627 40.3013 43.2074 39.4729C43.952 38.6445 44.7189 37.8353 45.5114 37.0452C46.3039 36.2552 47.122 35.4842 48.0033 34.7644C47.3936 35.6997 46.7189 36.5824 46.0255 37.4491C45.3321 38.3157 44.6062 39.1601 43.8598 39.9869C43.1134 40.8137 42.3483 41.6245 41.5575 42.4146C40.7667 43.2047 39.9452 43.9756 39.0639 44.697Z" fill="#FCDDEC"/>
<path d="M-1.65997 100.32C-1.05024 99.3862 -0.375593 98.5035 0.319541 97.6352C1.01468 96.7669 1.73884 95.9258 2.48351 95.0974C3.22817 94.269 3.99504 93.4582 4.78752 92.6681C5.58001 91.878 6.39812 91.1087 7.27942 90.3873C6.67139 91.3226 5.98821 92.2052 5.30504 93.0735C4.62186 93.9418 3.88573 94.783 3.13936 95.6114C2.39299 96.4397 1.62783 97.249 0.835344 98.0391C0.0428572 98.8291 -0.778673 99.5985 -1.65997 100.32Z" fill="#FCDDEC"/>
<path d="M44.0301 108.266C44.5722 107.332 45.172 106.45 45.7885 105.581C46.405 104.713 47.0503 103.87 47.7124 103.042C48.3744 102.214 49.0562 101.404 49.7608 100.614C50.4653 99.8241 51.1927 99.0532 51.9762 98.3333C51.4356 99.2671 50.8358 100.151 50.2178 101.018C49.5998 101.885 48.956 102.729 48.2939 103.556C47.6319 104.383 46.9501 105.193 46.244 105.984C45.5379 106.774 44.8151 107.545 44.0301 108.266Z" fill="#FCDDEC"/>
<path d="M-1.65997 164.882C-1.05024 163.947 -0.375593 163.064 0.319541 162.198C1.01468 161.331 1.73884 160.487 2.48351 159.659C3.22817 158.831 3.99504 158.021 4.78752 157.232C5.58001 156.442 6.39812 155.671 7.27942 154.949C6.67139 155.885 5.98821 156.767 5.30504 157.635C4.62186 158.503 3.88573 159.346 3.13936 160.173C2.39299 160.999 1.62783 161.81 0.835344 162.6C0.0428572 163.39 -0.778673 164.161 -1.65997 164.882Z" fill="#FCDDEC"/>
<path d="M2.31323 207.593C2.85532 206.657 3.45512 205.775 4.07314 204.908C4.69115 204.042 5.33498 203.198 5.99551 202.369C6.65604 201.541 7.33935 200.732 8.04544 199.942C8.75152 199.152 9.47735 198.381 10.2594 197.66C9.71879 198.595 9.11899 199.478 8.5025 200.346C7.886 201.214 7.24065 202.057 6.57708 202.883C5.91351 203.71 5.23324 204.521 4.52868 205.311C3.82411 206.1 3.09676 206.873 2.31323 207.593Z" fill="#FCDDEC"/>
<path d="M69.8551 272.155C70.3971 271.221 70.9968 270.338 71.6147 269.47C72.2326 268.602 72.8763 267.759 73.5382 266.931C74.2001 266.102 74.8818 265.293 75.5862 264.503C76.2906 263.713 77.0179 262.942 77.8012 262.222C77.2592 263.156 76.6596 264.04 76.0432 264.907C75.4268 265.774 74.7816 266.618 74.1181 267.445C73.4547 268.271 72.7746 269.082 72.0701 269.872C71.3657 270.662 70.6385 271.433 69.8551 272.155Z" fill="#FCDDEC"/>
<path d="M98.66 221.498C99.2005 220.563 99.8004 219.681 100.418 218.814C101.036 217.948 101.68 217.103 102.342 216.275C103.004 215.447 103.686 214.638 104.391 213.846C105.095 213.055 105.823 212.287 106.606 211.566C106.066 212.501 105.466 213.383 104.848 214.252C104.23 215.12 103.586 215.961 102.924 216.789C102.262 217.617 101.578 218.426 100.874 219.216C100.169 220.006 99.442 220.777 98.66 221.498Z" fill="#FCDDEC"/>
<path d="M97.6667 258.249C98.2073 257.314 98.807 256.431 99.4251 255.565C100.043 254.698 100.687 253.854 101.349 253.026C102.011 252.198 102.693 251.389 103.397 250.599C104.102 249.809 104.829 249.038 105.613 248.317C105.072 249.252 104.472 250.136 103.854 251.002C103.236 251.869 102.593 252.713 101.931 253.54C101.268 254.366 100.585 255.177 99.8806 255.967C99.176 256.757 98.4487 257.528 97.6667 258.249Z" fill="#FCDDEC"/>
<path d="M48.9967 247.323C49.6066 246.39 50.2813 245.507 50.9766 244.639C51.6719 243.77 52.3962 242.929 53.1393 242.101C53.8824 241.272 54.6511 240.462 55.4454 239.671C56.2398 238.881 57.0563 238.112 57.9361 237.391C57.328 238.326 56.6532 239.209 55.9596 240.075C55.2661 240.942 54.54 241.786 53.7935 242.615C53.047 243.443 52.2817 244.252 51.4891 245.042C50.6964 245.832 49.8782 246.6 48.9967 247.323Z" fill="#FCDDEC"/>
<path d="M7.27957 252.29C7.82015 251.354 8.41993 250.472 9.03795 249.605C9.65596 248.739 10.2998 247.895 10.9619 247.066C11.6239 246.238 12.3057 245.429 13.0103 244.639C13.7148 243.849 14.4422 243.078 15.2257 242.357C14.6836 243.292 14.0853 244.175 13.4673 245.043C12.8493 245.911 12.2055 246.753 11.5434 247.58C10.8814 248.407 10.1981 249.218 9.49349 250.007C8.78892 250.797 8.06158 251.568 7.27957 252.29Z" fill="#FCDDEC"/>
<path d="M32.1111 282.088C32.7141 281.159 33.3974 280.271 34.0893 279.403C34.7811 278.535 35.5089 277.692 36.2537 276.865C36.9985 276.038 37.7655 275.226 38.5598 274.436C39.3542 273.646 40.169 272.875 41.0505 272.155C40.4424 273.09 39.7676 273.973 39.074 274.84C38.3805 275.706 37.6545 276.551 36.9079 277.377C36.1614 278.204 35.3961 279.015 34.6035 279.805C33.8109 280.595 32.9926 281.366 32.1111 282.088Z" fill="#FCDDEC"/>
<path d="M197.986 232.424C198.596 231.489 199.271 230.607 199.964 229.74C200.658 228.874 201.386 228.029 202.129 227.201C202.872 226.373 203.641 225.564 204.435 224.774C205.229 223.984 206.044 223.213 206.926 222.492C206.318 223.427 205.643 224.309 204.949 225.177C204.256 226.046 203.53 226.888 202.783 227.715C202.037 228.542 201.271 229.352 200.479 230.142C199.686 230.932 198.868 231.703 197.986 232.424Z" fill="#FCDDEC"/>
<path d="M264.535 195.673C265.145 194.74 265.82 193.857 266.513 192.989C267.207 192.12 267.933 191.278 268.678 190.449C269.423 189.621 270.19 188.812 270.982 188.022C271.775 187.231 272.593 186.461 273.475 185.741C272.867 186.676 272.192 187.559 271.497 188.425C270.801 189.292 270.077 190.136 269.332 190.963C268.587 191.79 267.819 192.601 267.026 193.391C266.233 194.181 265.415 194.952 264.535 195.673Z" fill="#FCDDEC"/>
<path d="M213.879 202.626C214.489 201.691 215.163 200.809 215.857 199.942C216.55 199.076 217.277 198.231 218.021 197.403C218.766 196.575 219.533 195.766 220.326 194.976C221.118 194.186 221.937 193.415 222.818 192.694C222.21 193.629 221.535 194.513 220.842 195.38C220.148 196.246 219.42 197.09 218.676 197.917C217.931 198.744 217.164 199.554 216.369 200.344C215.575 201.134 214.759 201.905 213.879 202.626Z" fill="#FCDDEC"/>
<path d="M246.657 164.882C247.199 163.947 247.798 163.064 248.415 162.198C249.031 161.331 249.677 160.487 250.339 159.659C251.001 158.831 251.683 158.021 252.387 157.232C253.092 156.442 253.819 155.671 254.603 154.949C254.062 155.885 253.462 156.767 252.846 157.635C252.229 158.503 251.584 159.346 250.92 160.173C250.257 160.999 249.577 161.81 248.87 162.6C248.164 163.39 247.44 164.161 246.657 164.882Z" fill="#FCDDEC"/>
<path d="M238.71 126.145C239.253 125.211 239.852 124.328 240.469 123.46C241.085 122.592 241.731 121.749 242.393 120.922C243.055 120.095 243.737 119.283 244.441 118.493C245.146 117.703 245.873 116.934 246.657 116.212C246.116 117.147 245.516 118.03 244.898 118.897C244.28 119.763 243.636 120.608 242.974 121.436C242.312 122.265 241.629 123.074 240.924 123.864C240.22 124.654 239.492 125.423 238.71 126.145Z" fill="#FCDDEC"/>
<path d="M201.96 137.071C202.501 136.137 203.101 135.253 203.719 134.386C204.337 133.519 204.981 132.675 205.641 131.847C206.301 131.018 206.985 130.209 207.691 129.419C208.397 128.629 209.122 127.858 209.906 127.138C209.364 128.072 208.764 128.956 208.148 129.823C207.531 130.689 206.886 131.534 206.223 132.361C205.559 133.187 204.879 133.998 204.175 134.788C203.47 135.578 202.743 136.349 201.96 137.071Z" fill="#FCDDEC"/>
<path d="M269.502 131.111C270.042 130.177 270.642 129.293 271.26 128.426C271.878 127.56 272.522 126.715 273.184 125.887C273.846 125.059 274.528 124.249 275.232 123.459C275.937 122.669 276.664 121.898 277.448 121.178C276.906 122.112 276.307 122.996 275.689 123.863C275.071 124.73 274.428 125.574 273.765 126.401C273.103 127.228 272.42 128.039 271.716 128.829C271.011 129.619 270.291 130.39 269.502 131.111Z" fill="#FCDDEC"/>
<path d="M264.535 100.32C265.077 99.3862 265.677 98.5035 266.294 97.6352C266.91 96.7669 267.556 95.9258 268.218 95.0974C268.88 94.269 269.561 93.4582 270.266 92.6681C270.971 91.878 271.698 91.1087 272.481 90.3873C271.941 91.3226 271.341 92.2052 270.723 93.0735C270.105 93.9418 269.461 94.783 268.799 95.6114C268.137 96.4397 267.454 97.249 266.749 98.0391C266.045 98.8291 265.317 99.5985 264.535 100.32Z" fill="#FCDDEC"/>
<path d="M174.148 215.539C174.758 214.605 175.433 213.722 176.127 212.854C176.82 211.986 177.546 211.143 178.291 210.315C179.036 209.486 179.803 208.677 180.595 207.887C181.388 207.097 182.206 206.326 183.088 205.606C182.48 206.54 181.805 207.424 181.11 208.291C180.414 209.158 179.69 210.002 178.945 210.829C178.2 211.655 177.432 212.466 176.639 213.256C175.846 214.047 175.028 214.817 174.148 215.539Z" fill="#FCDDEC"/>
<path d="M173.155 266.195C173.697 265.26 174.297 264.377 174.913 263.511C175.53 262.644 176.175 261.8 176.837 260.971C177.499 260.143 178.181 259.334 178.886 258.543C179.59 257.753 180.318 256.982 181.101 256.263C180.56 257.196 179.961 258.081 179.343 258.947C178.725 259.814 178.082 260.658 177.419 261.485C176.755 262.312 176.075 263.123 175.369 263.913C174.663 264.703 173.94 265.474 173.155 266.195Z" fill="#FCDDEC"/>
<path d="M190.041 288.047C190.583 287.113 191.182 286.231 191.799 285.362C192.415 284.494 193.061 283.651 193.723 282.825C194.385 281.998 195.067 281.185 195.771 280.395C196.476 279.605 197.203 278.836 197.987 278.114C197.446 279.05 196.846 279.932 196.23 280.799C195.613 281.666 194.968 282.51 194.304 283.339C193.641 284.167 192.961 284.976 192.254 285.766C191.548 286.556 190.824 287.326 190.041 288.047Z" fill="#FCDDEC"/>
<path d="M223.811 259.242C224.421 258.309 225.096 257.426 225.79 256.558C226.483 255.69 227.209 254.848 227.954 254.02C228.699 253.192 229.466 252.381 230.258 251.591C231.051 250.801 231.869 250.031 232.751 249.31C232.143 250.245 231.468 251.128 230.774 251.996C230.081 252.864 229.353 253.706 228.608 254.534C227.863 255.362 227.096 256.172 226.302 256.962C225.508 257.752 224.696 258.523 223.811 259.242Z" fill="#FCDDEC"/>
<path d="M264.535 280.101C265.077 279.167 265.677 278.285 266.294 277.416C266.91 276.548 267.556 275.705 268.218 274.878C268.88 274.052 269.561 273.239 270.266 272.449C270.971 271.659 271.698 270.888 272.481 270.168C271.941 271.104 271.341 271.986 270.723 272.853C270.105 273.72 269.461 274.564 268.799 275.392C268.137 276.221 267.454 277.03 266.749 277.82C266.045 278.61 265.317 279.38 264.535 280.101Z" fill="#FCDDEC"/>
<path d="M293.34 242.357C293.882 241.422 294.482 240.539 295.098 239.673C295.715 238.806 296.36 237.962 297.022 237.134C297.684 236.305 298.366 235.496 299.071 234.706C299.775 233.916 300.503 233.146 301.286 232.424C300.745 233.36 300.146 234.242 299.529 235.11C298.913 235.978 298.266 236.821 297.604 237.648C296.942 238.474 296.26 239.285 295.554 240.075C294.848 240.865 294.123 241.636 293.34 242.357Z" fill="#FCDDEC"/>
<path d="M264.535 222.491C265.145 221.556 265.82 220.674 266.513 219.807C267.207 218.941 267.933 218.096 268.678 217.268C269.423 216.44 270.19 215.631 270.982 214.841C271.775 214.051 272.593 213.28 273.475 212.559C272.867 213.494 272.192 214.377 271.497 215.245C270.801 216.113 270.077 216.955 269.332 217.782C268.587 218.609 267.819 219.419 267.026 220.209C266.233 220.999 265.415 221.77 264.535 222.491Z" fill="#FCDDEC"/>
<path d="M222.818 95.3535C223.428 94.4183 224.103 93.5358 224.798 92.6693C225.493 91.8027 226.217 90.9585 226.962 90.1302C227.706 89.302 228.473 88.4929 229.266 87.7029C230.058 86.913 230.876 86.1422 231.758 85.4208C231.148 86.356 230.473 87.2401 229.78 88.1067C229.086 88.9732 228.361 89.8174 227.614 90.6441C226.868 91.4708 226.103 92.2815 225.31 93.0714C224.518 93.8614 223.7 94.6322 222.818 95.3535Z" fill="#FCDDEC"/>
<path d="M160.242 77.4747C160.785 76.541 161.384 75.6568 162.001 74.7901C162.617 73.9234 163.263 73.079 163.925 72.2506C164.587 71.4223 165.269 70.613 165.973 69.8229C166.678 69.0329 167.405 68.2619 168.189 67.5421C167.648 68.4758 167.048 69.3601 166.43 70.2268C165.812 71.0935 165.168 71.9378 164.506 72.7646C163.844 73.5914 163.161 74.4022 162.456 75.1923C161.752 75.9824 161.021 76.7533 160.242 77.4747Z" fill="#FCDDEC"/>
<path d="M194.014 111.246C194.554 110.312 195.154 109.429 195.772 108.561C196.39 107.693 197.034 106.85 197.696 106.023C198.358 105.197 199.04 104.384 199.744 103.594C200.449 102.804 201.176 102.035 201.96 101.313C201.419 102.248 200.819 103.131 200.201 103.998C199.583 104.865 198.94 105.709 198.278 106.537C197.616 107.366 196.932 108.175 196.228 108.965C195.523 109.755 194.796 110.524 194.014 111.246Z" fill="#FCDDEC"/>
<path d="M158.256 113.232C158.796 112.297 159.396 111.415 160.014 110.548C160.632 109.681 161.276 108.837 161.938 108.009C162.6 107.181 163.282 106.372 163.987 105.582C164.691 104.792 165.418 104.021 166.202 103.3C165.66 104.235 165.062 105.117 164.444 105.985C163.826 106.854 163.182 107.696 162.52 108.523C161.858 109.35 161.174 110.16 160.47 110.95C159.765 111.74 159.038 112.511 158.256 113.232Z" fill="#FCDDEC"/>
<path d="M143.913 137.071L143.809 144.46C143.809 144.46 155.428 152.987 157.746 167.418C160.063 181.85 159.578 203.65 157.136 217.656C154.695 231.662 149.923 259.408 149.275 268.163C148.627 276.917 150.144 285.642 148.36 289.228C146.575 292.815 144.237 294.007 144.237 294.007C144.237 294.007 140.139 256.401 140.011 254.618L136.013 198.822C136.013 198.822 133.083 175.729 135.165 170.968C137.247 166.208 143.239 164.367 143.239 164.367L135.44 164.674L143.913 137.071Z" fill="#944441"/>
<path d="M151.464 158.628L153.29 155.943C153.232 156.083 153.143 156.208 153.029 156.309C152.915 156.409 152.779 156.482 152.632 156.522C150.119 157.212 138.091 161.003 131.099 172.046C123.256 184.43 115.093 204.708 111.829 218.575C108.565 232.443 102.038 259.904 99.1837 268.227C96.3297 276.549 91.4701 283.988 91.716 287.997C91.7901 289.521 92.1356 291.021 92.7364 292.425C92.8106 292.592 92.9298 292.735 93.0809 292.839C93.2319 292.943 93.4089 293.003 93.5921 293.012C93.7753 293.022 93.9576 292.98 94.1186 292.893C94.2796 292.805 94.4131 292.675 94.5041 292.516C98.1681 286.026 112.409 260.789 113.126 259.404L138.857 209.597L138.881 209.552C139.305 208.83 150.709 189.356 150.654 184.245C150.632 182.004 149.716 179.962 148.684 178.376C148.569 178.195 148.516 177.981 148.533 177.767C148.55 177.553 148.636 177.351 148.779 177.19C148.921 177.029 149.112 176.919 149.323 176.876C149.534 176.832 149.754 176.858 149.949 176.95L151.613 177.737C151.758 177.805 151.916 177.837 152.075 177.831C152.235 177.825 152.39 177.781 152.529 177.702C152.668 177.624 152.785 177.514 152.872 177.38C152.959 177.247 153.012 177.095 153.028 176.937L152.118 161.354C152.245 160.217 151.899 157.57 151.464 158.628Z" fill="#944441"/>
<path d="M158.573 173.231C157.366 154.021 143.752 143.995 143.752 143.995L143.857 136.351L137.411 133.11V133.098H137.398H137.385V133.11L130.939 136.351L131.043 143.995C131.043 143.995 117.429 154.021 116.221 173.231C115.014 192.44 115.792 203.619 115.792 203.619H159.001C159.001 203.619 159.782 192.448 158.573 173.231Z" fill="#EF5DA8"/>
<path opacity="0.1" d="M161.508 173.329C154.808 150.825 143.938 143.941 143.938 143.941L144.044 136.335L137.505 133.11V133.098H137.492H137.479V133.11L130.939 136.335L128.642 147.418C128.642 147.418 125.058 144.845 111.096 173.337C100.808 194.34 93.6936 247.323 93.6936 247.323L134.008 237.399C134.461 237.284 134.92 237.198 135.383 237.139C137.373 236.897 139.382 236.854 141.381 237.011C141.851 237.051 142.319 237.12 142.781 237.216L183.088 245.399C183.088 245.399 170.218 202.571 161.508 173.329Z" fill="#AEAFF7"/>
<path d="M138.887 94.3603C143.001 94.3603 146.337 91.025 146.337 86.9108C146.337 82.7965 143.001 79.4613 138.887 79.4613C134.773 79.4613 131.438 82.7965 131.438 86.9108C131.438 91.025 134.773 94.3603 138.887 94.3603Z" fill="#371B34"/>
<path d="M146.833 110.252C149.302 110.252 151.303 108.474 151.303 106.279C151.303 104.085 149.302 102.306 146.833 102.306C144.365 102.306 142.364 104.085 142.364 106.279C142.364 108.474 144.365 110.252 146.833 110.252Z" stroke="#EF5DA8" stroke-width="2.1" stroke-miterlimit="10"/>
<path d="M131.934 110.252C134.403 110.252 136.404 108.474 136.404 106.279C136.404 104.085 134.403 102.306 131.934 102.306C129.466 102.306 127.465 104.085 127.465 106.279C127.465 108.474 129.466 110.252 131.934 110.252Z" stroke="#EF5DA8" stroke-width="2.1" stroke-miterlimit="10"/>
<path d="M105.266 136.929C105.266 136.929 113.449 128.41 121.962 123.21C130.474 118.009 136.105 115.083 136.105 110.734C136.105 106.384 135.716 99.837 136.105 97.4382C136.469 95.1872 139.277 93.0091 141.595 95.4015C142.352 96.1809 142.601 97.0684 142.601 99.0972V110.734C142.601 110.734 141.752 114.139 153.03 120.998C164.308 127.858 171.935 134.938 173.152 136.376C174.369 137.815 176.027 145.449 167.514 143.789C159.001 142.128 149.27 139.026 149.27 139.026C149.27 139.026 136.777 136.591 134.675 134.821C132.573 133.051 130.032 132.055 130.032 132.055C130.032 132.055 128.84 130.174 131.758 130.506C134.675 130.838 139.871 129.842 145.179 131.944C150.487 134.046 161.984 132.387 165.301 134.268L148.769 132.784L146.775 130.512L140.472 123.659L133.576 125.088L126.469 131.712L129.699 132.009C129.699 132.009 134.248 132.009 134.642 131.841C135.035 131.673 140.54 127.682 144.192 129.649C147.844 131.616 147.394 134.371 147.394 134.371C147.394 134.371 141.72 134.989 139.192 134.371C136.663 133.754 138.798 136.677 131.832 137.856C131.832 137.856 108.138 146.964 105.266 141.566C105.266 141.566 103.811 139.544 105.266 136.929Z" fill="#944441"/>
<path d="M148.068 123.709C146.711 120.335 148.63 118.199 148.63 118.199C148.63 118.199 146.78 119.518 145.368 120.732C143.505 122.333 139.665 122.396 139.665 122.396C131.396 122.741 128.72 118.743 128.72 118.743C128.72 118.743 128.805 122.652 126.09 125.226C123.121 128.044 125.145 132.13 125.327 132.608C125.466 132.631 129.392 132.542 129.392 132.542H129.7C129.54 132.235 128.818 130.707 131.476 131.013C132.8 131.166 134.589 131.046 136.642 131.06C138.694 130.001 141.739 128.874 144.049 130.132C145.726 131.044 146.546 132.12 146.937 133.025C147.731 133.039 148.525 133.063 149.321 133.098C149.631 132.478 149.887 131.832 150.085 131.167C150.877 127.45 149.427 127.083 148.068 123.709Z" fill="#EF5DA8"/>
<path d="M114.552 240.202C115.189 240.239 115.829 240.231 116.464 240.179C117.092 240.127 117.71 240.026 118.309 239.877C118.908 239.728 119.48 239.525 120.014 239.274C120.549 239.015 121.048 238.717 121.505 238.384C121.134 238.786 120.676 239.139 120.15 239.429C119.885 239.575 119.606 239.705 119.315 239.819C119.021 239.929 118.718 240.024 118.409 240.105C117.786 240.258 117.138 240.346 116.483 240.366C115.832 240.388 115.181 240.332 114.552 240.202Z" fill="#371B34"/>
<path d="M143.357 238.384C143.988 238.607 144.643 238.782 145.314 238.906C145.978 239.029 146.656 239.096 147.337 239.106C148.017 239.114 148.696 239.056 149.358 238.933C150.028 238.802 150.679 238.618 151.303 238.384C150.733 238.716 150.1 238.971 149.427 239.138C149.089 239.22 148.743 239.282 148.393 239.323C148.042 239.36 147.687 239.378 147.332 239.377C146.628 239.365 145.929 239.275 145.255 239.109C144.579 238.95 143.938 238.705 143.357 238.384Z" fill="#371B34"/>
<path d="M142.364 203.619L137.52 213.121L132.646 222.606L122.844 241.553C122.033 243.132 121.182 244.693 120.345 246.262L117.823 250.961L112.78 260.356L107.716 269.733L102.633 279.108L107.583 269.663L112.565 260.236L117.566 250.818L120.07 246.112C120.904 244.542 121.749 242.978 122.557 241.397L132.422 222.485L137.377 213.044L142.364 203.619Z" fill="#371B34"/>
<path d="M116.539 203.619C116.539 203.619 114.515 208.869 112.566 218.518L116.539 203.619Z" fill="#371B34"/>
<path d="M135.411 81.4479C136.016 81.543 136.606 81.7102 137.167 81.9455C137.737 82.1784 138.282 82.4654 138.792 82.8021C139.835 83.4878 140.705 84.3879 141.339 85.4367C141.964 86.4977 142.314 87.6874 142.359 88.9053C142.401 90.0918 142.182 91.2735 141.716 92.3738C141.791 91.2428 141.746 90.1074 141.581 88.9852C141.408 87.9078 141.035 86.8689 140.479 85.9178C139.905 84.9715 139.174 84.1209 138.315 83.3993C137.426 82.6468 136.452 81.9922 135.411 81.4479Z" fill="#83455E"/>
<path d="M138.391 79.4613C138.995 79.5647 139.585 79.7465 140.147 80.0025C140.716 80.2571 141.26 80.5707 141.77 80.9386C142.815 81.6852 143.686 82.6674 144.319 83.8127C144.945 84.9701 145.294 86.268 145.339 87.5966C145.38 88.8909 145.161 90.18 144.697 91.3805C144.772 90.1466 144.727 88.908 144.562 87.6838C144.389 86.509 144.016 85.3762 143.46 84.3392C142.887 83.3063 142.156 82.3783 141.297 81.5918C140.407 80.7701 139.433 80.0554 138.391 79.4613Z" fill="#83455E"/>
<path d="M139.384 94.3603C139.384 94.3603 138.949 100.236 135.474 100.32C135.474 100.32 134.593 94.3339 139.384 94.3603Z" fill="#371B34"/>
<path d="M139.384 94.3603C139.384 94.3603 139.723 100.217 142.292 100.32C142.296 100.32 143.075 94.3354 139.384 94.3603Z" fill="#371B34"/>
<path d="M140.398 94.3602C140.458 94.8767 140.522 95.3838 140.6 95.8861C140.643 96.1349 140.683 96.3853 140.734 96.6278C140.782 96.8724 140.839 97.1132 140.906 97.349C141.024 97.8195 141.204 98.2551 141.435 98.6339C141.677 99.0087 142.007 99.2498 142.364 99.3142C142.175 99.345 141.984 99.3181 141.804 99.2354C141.62 99.1463 141.451 99.0042 141.308 98.8181C141.03 98.4415 140.817 97.9796 140.687 97.4686C140.555 96.9726 140.466 96.4561 140.421 95.9302C140.371 95.4097 140.364 94.8831 140.398 94.3602Z" fill="#83455E"/>
<path d="M140.406 94.3602C140.467 94.7556 140.532 95.1476 140.608 95.538C140.68 95.9233 140.776 96.3042 140.894 96.6787C141.002 97.0499 141.17 97.4024 141.391 97.7235C141.5 97.8847 141.642 98.0218 141.81 98.1256C141.978 98.2295 142.167 98.2977 142.364 98.3258C142.151 98.3499 141.936 98.3155 141.743 98.2265C141.548 98.1344 141.375 98.003 141.236 97.8413C140.968 97.5198 140.769 97.1496 140.652 96.7527C140.531 96.3653 140.451 95.9675 140.411 95.5649C140.368 95.1645 140.366 94.7609 140.406 94.3602Z" fill="#83455E"/>
<path d="M137.366 94.3602C137.408 94.7604 137.408 95.1636 137.366 95.5637C137.326 95.9665 137.246 96.3645 137.125 96.752C137.008 97.1491 136.809 97.5194 136.54 97.8411C136.401 98.0029 136.228 98.1343 136.032 98.2265C135.839 98.3155 135.623 98.3499 135.411 98.3258C135.608 98.2977 135.797 98.2295 135.965 98.1256C136.133 98.0217 136.276 97.8845 136.385 97.7232C136.606 97.402 136.774 97.0493 136.882 96.678C137.001 96.3032 137.097 95.9222 137.17 95.5368C137.24 95.1547 137.305 94.7625 137.366 94.3602Z" fill="#83455E"/>
<path d="M138.358 94.3602C138.411 94.8841 138.4 95.4119 138.324 95.9334C138.257 96.4588 138.124 96.9747 137.926 97.4704C137.731 97.9809 137.413 98.4423 136.996 98.8186C136.781 99.0048 136.527 99.1468 136.25 99.2355C135.98 99.3182 135.693 99.345 135.411 99.3141C135.947 99.2502 136.441 99.0093 136.805 98.6345C137.151 98.2561 137.421 97.8209 137.599 97.3508C137.698 97.1152 137.783 96.8747 137.854 96.6303C137.933 96.388 137.993 96.1379 138.055 95.8894C138.173 95.3828 138.269 94.8762 138.358 94.3602Z" fill="#83455E"/>
<path d="M136.041 108.266C136.041 108.266 137.235 112.184 140.377 110.448C140.377 110.448 138.824 112.227 135.411 113.232C135.411 113.232 136.037 112.198 136.04 110.23L136.041 108.266Z" fill="#371B34"/>
<path d="M92.7002 292.02C92.941 291.307 93.2757 290.638 93.6935 290.034C93.452 290.746 93.1173 291.416 92.7002 292.02Z" fill="#371B34"/>
<path d="M92.7002 290.034C92.8176 289.677 92.9617 289.332 93.1308 289.001C93.2932 288.666 93.4814 288.347 93.6935 288.047C93.5763 288.404 93.4323 288.748 93.2629 289.078C93.0997 289.413 92.9115 289.733 92.7002 290.034Z" fill="#371B34"/>
<path d="M91.707 288.047C92.1904 287.335 92.8598 286.665 93.6936 286.061C93.4587 286.418 93.1706 286.764 92.8324 287.095C92.5048 287.429 92.1285 287.748 91.707 288.047Z" fill="#371B34"/>
<path d="M141.341 106.483C141.23 106.681 141.065 106.853 140.861 106.984C140.657 107.115 140.419 107.202 140.168 107.237C139.979 107.261 139.789 107.273 139.598 107.273C139.5 107.273 139.385 107.273 139.384 107.163C139.382 107.053 139.51 107.05 139.601 107.051C140.041 107.059 140.452 106.996 140.801 106.738C140.936 106.632 141.047 106.505 141.127 106.363C141.167 106.296 141.225 106.261 141.309 106.29C141.393 106.318 141.377 106.396 141.341 106.483Z" fill="#371B34"/>
<path d="M141.37 101.473C141.368 101.495 141.362 101.516 141.354 101.534C141.346 101.553 141.336 101.569 141.324 101.581C141.312 101.594 141.298 101.602 141.284 101.607C141.269 101.611 141.254 101.611 141.24 101.606C140.939 101.56 140.735 101.769 140.59 102.148C140.557 102.236 140.514 102.361 140.425 102.281C140.337 102.201 140.391 102.097 140.425 102.003C140.594 101.556 140.839 101.299 141.19 101.314C141.271 101.315 141.359 101.314 141.37 101.473Z" fill="#371B34"/>
<path d="M136.404 101.473C136.409 101.495 136.42 101.516 136.436 101.534C136.452 101.553 136.473 101.569 136.497 101.581C136.521 101.594 136.548 101.602 136.577 101.607C136.606 101.611 136.636 101.611 136.665 101.606C137.266 101.56 137.675 101.769 137.964 102.148C138.03 102.236 138.117 102.361 138.294 102.281C138.471 102.201 138.363 102.097 138.294 102.003C137.957 101.556 137.466 101.299 136.764 101.314C136.606 101.315 136.431 101.314 136.404 101.473Z" fill="#371B34"/>
<path d="M163.3 74.6563C192.153 86.6001 214.436 98.9787 213.076 102.306C220.677 83.7537 203.449 59.0318 174.598 47.088C145.747 35.1443 116.193 40.5016 108.592 59.0543C109.956 55.7266 134.449 62.7125 163.3 74.6563Z" fill="#EB258B"/>
<path d="M164.357 74.3967C168.484 76.0854 172.478 77.7821 176.289 79.4612C177.791 69.5998 178.654 57.2165 179.115 48.5021C177.997 47.9912 176.861 47.4989 175.705 47.0252C174.549 46.5516 173.394 46.1065 172.239 45.6902C166.388 52.1981 158.221 61.5944 152.296 69.6476C156.192 71.1212 160.229 72.7144 164.357 74.3967Z" fill="#F09A59"/>
<path d="M135.36 63.569C150.145 48.8018 167.959 45.3124 170.175 44.9268C164.394 42.8546 158.401 41.4448 152.31 40.7239C135.887 44.1397 123.498 51.84 115.545 58.2397C120.1 58.9372 126.998 60.7995 135.36 63.569Z" fill="#F09A59"/>
<path d="M191.967 87.041C199.782 90.9848 206.014 94.5584 209.906 97.34C208.684 87.041 205.202 72.6899 195.879 58.5101C191.002 54.6442 185.712 51.3435 180.108 48.67C181.425 50.5385 191.733 65.8367 191.967 87.041Z" fill="#F09A59"/>
<path d="M163.199 73.9629C134.433 62.075 110.011 55.1211 108.652 58.4359C107.293 61.7508 129.51 74.0667 158.279 85.953C187.047 97.8393 211.467 104.795 212.826 101.48C214.185 98.1651 191.966 85.8476 163.199 73.9629Z" fill="#7879F1"/>
<path d="M164.398 74.7413L138.415 137.887L139.684 138.409L165.667 75.2641L164.398 74.7413Z" fill="#F3FCFF"/>
<path d="M140.74 143.651C143.468 144.728 146.572 143.386 147.685 140.705L148.219 139.423C148.36 139.083 148.358 138.702 148.215 138.363C148.071 138.025 147.798 137.755 147.455 137.615C147.11 137.476 146.724 137.478 146.38 137.62C146.037 137.762 145.764 138.032 145.622 138.371L145.079 139.673C144.831 140.28 144.353 140.768 143.745 141.033C143.138 141.298 142.451 141.318 141.828 141.09C141.515 140.971 141.228 140.791 140.986 140.561C140.744 140.332 140.551 140.057 140.418 139.752C140.285 139.448 140.215 139.12 140.212 138.789C140.209 138.457 140.273 138.128 140.401 137.822L143.826 129.615C143.861 129.532 143.879 129.442 143.879 129.352C143.878 129.261 143.86 129.172 143.825 129.089C143.789 129.005 143.738 128.93 143.673 128.866C143.608 128.802 143.531 128.752 143.446 128.718L142.132 128.183C142.047 128.149 141.956 128.131 141.865 128.131C141.773 128.131 141.683 128.149 141.598 128.184C141.514 128.219 141.437 128.269 141.373 128.333C141.308 128.397 141.257 128.473 141.222 128.557L137.796 136.763C137.53 137.406 137.394 138.094 137.397 138.789C137.401 139.484 137.544 140.171 137.817 140.811C138.091 141.451 138.49 142.031 138.992 142.519C139.493 143.006 140.088 143.391 140.74 143.651Z" fill="#7879F1"/>
<path d="M167.541 132.309C167.009 132.255 148.77 132.805 148.77 132.805C148.172 132.726 147.602 132.628 147.06 132.513C146.67 131.625 145.859 130.564 144.192 129.667C143.294 129.183 142.288 129.061 141.267 129.153L141.098 129.17C139.58 129.34 138.056 129.963 136.866 130.575C134.837 130.561 133.068 130.678 131.759 130.529C129.131 130.231 129.836 131.725 130.003 132.025H129.698L122.369 132.367C120.89 132.651 119.388 132.798 117.881 132.808C115.408 132.808 105.266 136.931 105.266 136.931C103.811 139.543 105.266 141.563 105.266 141.563C108.138 146.955 131.832 137.857 131.832 137.857C134.723 137.369 136.044 136.579 136.783 135.869C140.997 137.421 149.27 139.031 149.27 139.031C149.27 139.031 158.999 142.126 167.514 143.788C176.028 145.45 174.369 137.821 173.152 136.384C172.36 135.452 172.998 136.402 167.541 132.309ZM148.781 132.807L151.637 133.062C150.653 133.005 149.689 132.927 148.781 132.807Z" fill="#944441"/>
<path d="M125.478 132.158C123.854 132.176 122.236 132.351 120.642 132.681C119.054 133.008 117.496 133.484 115.987 134.101C114.475 134.706 113.058 135.514 111.642 136.366C110.934 136.786 110.226 137.205 109.526 137.64C109.174 137.855 108.826 138.074 108.483 138.302C108.312 138.416 108.142 138.534 107.976 138.659C107.894 138.719 107.814 138.784 107.737 138.852C107.698 138.886 107.663 138.924 107.631 138.965C107.623 138.974 107.617 138.985 107.613 138.997C107.608 139.009 107.607 139.021 107.607 139.034C107.617 139.058 107.649 139.058 107.672 139.056C107.649 139.056 107.617 139.065 107.6 139.037C107.598 139.023 107.599 139.009 107.602 138.996C107.606 138.982 107.612 138.969 107.62 138.959C107.648 138.913 107.681 138.871 107.719 138.834C107.791 138.757 107.867 138.685 107.946 138.615C108.108 138.478 108.271 138.35 108.434 138.223C108.759 137.972 109.101 137.729 109.44 137.491C110.122 137.019 110.813 136.566 111.51 136.123C112.207 135.68 112.906 135.244 113.626 134.838C113.981 134.621 114.36 134.457 114.729 134.27C115.099 134.084 115.48 133.928 115.869 133.766C117.397 133.142 118.982 132.687 120.6 132.408C122.211 132.121 123.848 132.037 125.478 132.158Z" fill="#371B34"/>
<path d="M130.444 132.104C131.116 132.631 131.82 133.112 132.551 133.544C133.277 133.98 134.024 134.377 134.79 134.733C135.556 135.085 136.334 135.404 137.13 135.675C137.926 135.947 138.737 136.163 139.55 136.396C140.363 136.628 141.174 136.85 141.987 137.069L144.43 137.731C146.061 138.165 147.69 138.607 149.317 139.057C147.662 138.738 146.013 138.383 144.369 137.99C142.726 137.598 141.091 137.176 139.464 136.726C138.651 136.493 137.84 136.258 137.032 135.983C136.234 135.692 135.453 135.356 134.691 134.976C133.158 134.222 131.73 133.256 130.444 132.104Z" fill="#371B34"/>
<path d="M137.397 131.111C138.541 131.353 139.688 131.586 140.841 131.791C141.994 131.996 143.147 132.199 144.307 132.346C144.888 132.418 145.47 132.481 146.052 132.54C146.634 132.598 147.212 132.627 147.802 132.645L151.331 132.77H151.317C152.497 132.737 153.673 132.728 154.849 132.733C156.026 132.738 157.205 132.756 158.38 132.819C159.554 132.881 160.731 132.963 161.899 133.112C162.483 133.187 163.061 133.291 163.631 133.424C163.916 133.491 164.197 133.574 164.47 133.672C164.745 133.769 164.996 133.911 165.209 134.091C164.987 133.923 164.73 133.794 164.451 133.713C164.177 133.625 163.896 133.553 163.611 133.497C163.039 133.386 162.46 133.304 161.878 133.251C160.714 133.13 159.544 133.071 158.369 133.037C157.194 133.003 156.022 132.987 154.849 132.993C153.676 132.998 152.501 133.014 151.331 133.054H151.317L147.79 132.904C146.608 132.86 145.431 132.746 144.267 132.562C143.105 132.384 141.95 132.167 140.805 131.927C139.66 131.686 138.522 131.416 137.397 131.111Z" fill="#371B34"/>
</svg>
