<svg width="25" height="41" viewBox="0 0 25 41" fill="none" xmlns="http://www.w3.org/2000/svg">
<path d="M11.3304 21.8985C11.6125 22.0877 11.9935 22.0118 12.1821 21.7309C12.2184 21.6767 12.2562 21.6239 12.2946 21.5711C12.494 21.297 12.4334 20.9131 12.1593 20.7138C11.8853 20.5145 11.5014 20.575 11.302 20.8491C11.2545 20.9145 11.2078 20.9798 11.1629 21.0468C10.974 21.3282 11.049 21.7095 11.3304 21.8985Z" fill="white"/>
<path d="M39.1943 38.8862H34.2653C37.9648 35.7684 35.7852 29.68 30.9087 29.68H30.4736C30.7757 28.6114 30.5577 28.1838 29.7302 24.4611C28.9713 21.047 26.4129 18.2063 22.9042 17.1838C23.7397 16.621 24.3926 15.808 24.7568 14.8534C24.8842 14.772 24.851 14.7943 25.6346 13.7343C28.3587 10.0494 26.4898 5.15366 22.6231 3.71911V3.28895C22.6231 1.93526 21.5219 0.833969 20.1682 0.833969C18.8145 0.833969 17.7132 1.93526 17.7132 3.28895V3.71911C13.8453 5.15404 11.9786 10.0507 14.7018 13.7343C15.4884 14.7983 15.4521 14.772 15.5796 14.8534C15.9435 15.8074 16.5959 16.62 17.4306 17.1828C16.1257 17.5631 14.9036 18.2132 13.8519 19.1012C13.5929 19.3198 13.5602 19.707 13.7789 19.966C13.9976 20.2249 14.3848 20.2577 14.6438 20.039C16.9076 18.1275 20.0398 17.4932 22.9335 18.4806C22.0446 21.8217 19.3305 24.3305 15.8864 24.9381L15.4221 25.0201L15.8573 23.0619C15.9308 22.731 15.7222 22.4032 15.3913 22.3296C15.0604 22.2561 14.7325 22.4648 14.659 22.7956C14.5164 23.4374 13.7222 27.0113 13.5383 27.8387H12.8032C12.4643 27.8387 12.1895 28.1135 12.1895 28.4524C12.1895 28.7914 12.4643 29.0662 12.8032 29.0662H15.1093C16.9523 29.0662 18.685 28.3485 19.9884 27.0452C20.1082 26.9253 20.1682 26.7683 20.1682 26.6112C20.1781 26.6112 20.1385 26.8357 20.3479 27.0452C22.5954 29.2926 24.8672 29.0662 27.5331 29.0662C27.872 29.0662 28.1468 28.7914 28.1468 28.4525C28.1468 28.1136 27.872 27.8388 27.5331 27.8388H26.7979L25.9796 24.1563H28.3819C28.505 24.5711 28.4417 24.3244 29.3229 28.2897C29.6213 29.6323 28.598 30.9075 27.223 30.9075H22.1084C22.7898 29.4771 21.7346 27.8388 20.168 27.8388C19.8291 27.8388 19.5543 28.1136 19.5543 28.4525C19.5543 28.7914 19.8291 29.0662 20.168 29.0662C20.4137 29.0662 20.6448 29.1621 20.8188 29.336C21.3939 29.911 20.991 30.9075 20.1682 30.9075H13.1132C11.927 30.9075 10.962 29.9424 10.962 28.7563C10.962 28.4347 10.9427 28.5989 11.8042 24.728C11.8905 24.34 12.0044 23.9568 12.1421 23.5889C12.2609 23.2714 12.0999 22.9177 11.7824 22.799C11.465 22.6802 11.1114 22.8412 10.9925 23.1587C10.835 23.5796 10.7048 24.0177 10.6061 24.4613C9.77378 28.201 9.56226 28.6204 9.86392 29.68H9.42762C4.57482 29.68 2.36242 35.7571 6.06699 38.8862H1.14207C0.803125 38.8862 0.52832 39.161 0.52832 39.4999C0.52832 39.8389 0.803125 40.1137 1.14207 40.1137H39.1943C39.5332 40.1137 39.808 39.8389 39.808 39.4999C39.808 39.161 39.5332 38.8862 39.1943 38.8862ZM16.4857 13.1089C16.4857 9.73788 16.4685 9.8294 16.5372 9.42203C17.144 9.3793 17.6799 9.02401 17.9557 8.47249C17.9965 8.39055 18.0598 8.32135 18.1361 8.27402C18.3067 8.16945 18.099 8.19891 21.9373 8.19891C22.4592 8.19891 22.2979 8.72328 23.0181 9.17016C23.2559 9.316 23.5237 9.40208 23.799 9.42195C23.8714 9.85096 23.8506 9.80117 23.8506 13.1089C23.8506 15.1394 22.1987 16.7913 20.1682 16.7913C18.1377 16.7913 16.4857 15.1394 16.4857 13.1089ZM14.5149 38.8862C13.9862 38.8862 13.8407 38.1502 14.3351 37.9524C16.9158 36.9203 16.7494 36.9928 16.8261 36.9418C18.1271 36.0757 18.373 35.8174 19.0531 35.8174C19.8226 35.8174 20.503 36.3079 20.7463 37.0378L20.8134 37.239C20.9148 37.5433 21.2329 37.7182 21.5445 37.6404L29.3743 35.6829V38.8862H14.5149ZM10.962 35.6829L14.4954 36.5662L13.8792 36.8127C13.0424 37.1474 12.6268 38.0515 12.8734 38.8861H10.962V35.6829Z" fill="white"/>
</svg>
