<svg width="22" height="18" viewBox="0 0 22 18" fill="none" xmlns="http://www.w3.org/2000/svg">
<path d="M0.4375 2H13.5625C13.804 2 14 1.553 14 1C14 0.447 13.804 0 13.5625 0H0.4375C0.196 0 0 0.447 0 1C0 1.553 0.195563 2 0.4375 2Z" fill="#371B34"/>
<path d="M7.46875 18H21.5312C21.79 18 22 17.553 22 17C22 16.447 21.79 16 21.5312 16H7.46875C7.21 16 7 16.447 7 17C7 17.553 7.20953 18 7.46875 18Z" fill="#371B34"/>
<path d="M0.6875 10H21.3125C21.692 10 22 9.553 22 9C22 8.447 21.692 8 21.3125 8H0.6875C0.308 8 0 8.447 0 9C0 9.553 0.307313 10 0.6875 10Z" fill="#371B34"/>
</svg>
