<svg width="39" height="39" viewBox="0 0 39 39" fill="none" xmlns="http://www.w3.org/2000/svg">
<g clip-path="url(#clip0_2_465)">
<path d="M0 19.5C0 8.73033 8.73033 0 19.5 0C30.2697 0 39 8.73033 39 19.5C39 30.2697 30.2697 39 19.5 39C8.73033 39 0 30.2697 0 19.5Z" fill="white"/>
<path d="M13.7565 14.7689C13.7565 16.107 13.1134 17.1912 12.3199 17.1912C11.5264 17.1912 10.8826 16.107 10.8826 14.7689C10.8826 13.4308 11.5264 12.3474 12.3199 12.3474C13.1134 12.3474 13.7565 13.4316 13.7565 14.7689Z" fill="#EF5DA8"/>
<path d="M28.1212 14.7689C28.1212 16.107 27.4774 17.1912 26.6839 17.1912C25.8904 17.1912 25.2473 16.107 25.2473 14.7689C25.2473 13.4308 25.8904 12.3474 26.6839 12.3474C27.4774 12.3474 28.1212 13.4316 28.1212 14.7689Z" fill="#EF5DA8"/>
<path d="M6.39685 21.3437C7.13998 27.9247 12.7212 33.0394 19.5001 33.0394C26.279 33.0394 31.8603 27.9247 32.6034 21.3437H6.39685Z" fill="#EF5DA8"/>
</g>
<defs>
<clipPath id="clip0_2_465">
<rect width="39" height="39" fill="white"/>
</clipPath>
</defs>
</svg>
