<svg width="325" height="611" viewBox="0 0 325 611" fill="none" xmlns="http://www.w3.org/2000/svg">
<g clip-path="url(#clip0_2_31)">
<path d="M185.069 207.25L184.697 233.658C184.697 233.658 226.403 264.134 234.698 315.689C242.994 367.243 241.265 445.157 232.501 495.199C223.738 545.241 206.63 644.377 204.301 675.658C201.972 706.939 207.423 738.076 201.024 750.919C194.625 763.763 186.234 768 186.234 768C186.234 768 171.54 633.634 171.083 627.26L156.737 427.896C156.737 427.896 146.233 345.385 153.7 328.376C161.167 311.368 182.656 304.79 182.656 304.79L154.697 305.882L185.069 207.25Z" fill="#954441"/>
<path d="M212.297 285.093L218.78 275.49C218.576 275.99 218.26 276.436 217.856 276.794C217.452 277.152 216.971 277.412 216.451 277.554C207.519 280.015 164.829 293.543 139.931 332.95C112.067 377.122 83.0629 449.443 71.502 498.909C59.9412 548.375 36.6875 646.274 26.6033 675.946C16.519 705.619 -0.828228 732.206 0.000118723 746.49C0.24823 751.928 1.46797 757.278 3.60163 762.287C3.86457 762.886 4.28924 763.401 4.82811 763.773C5.36698 764.146 5.9988 764.361 6.65288 764.394C7.30696 764.428 7.9575 764.279 8.53171 763.964C9.10593 763.649 9.58117 763.18 9.90426 762.611C22.9177 739.456 73.5309 649.455 76.0639 644.498L167.47 466.848L167.554 466.692C169.067 464.111 209.572 394.671 209.38 376.426C209.296 368.408 206.054 361.146 202.381 355.492C201.967 354.847 201.775 354.084 201.834 353.319C201.892 352.554 202.199 351.83 202.706 351.254C203.213 350.679 203.894 350.285 204.646 350.131C205.397 349.978 206.178 350.073 206.871 350.403L212.789 353.212C213.299 353.452 213.859 353.568 214.422 353.548C214.985 353.528 215.536 353.373 216.027 353.097C216.518 352.821 216.936 352.431 217.246 351.96C217.556 351.49 217.748 350.951 217.807 350.391L214.578 294.803C215.07 290.758 213.846 281.311 212.297 285.093Z" fill="#954441"/>
<path d="M238.708 335.074C234.326 267.015 184.889 231.497 184.889 231.497L185.273 204.417L161.864 192.942L138.454 204.417L138.838 231.497C138.838 231.497 89.3173 267.015 84.9354 335.074C80.5536 403.133 83.3748 442.72 83.3748 442.72H240.268C240.268 442.72 243.09 403.121 238.708 335.074Z" fill="#EF5DA8"/>
<path opacity="0.1" d="M247.772 336.095C223.762 255.972 184.889 231.461 184.889 231.461L185.273 204.382L161.864 192.906L138.454 204.382L130.23 243.813C130.23 243.813 117.313 234.69 67.3601 336.095C30.5407 410.912 5.078 599.557 5.078 599.557L149.366 564.219C150.986 563.809 152.63 563.5 154.288 563.294C161.41 562.429 168.601 562.276 175.753 562.838C177.435 562.981 179.107 563.225 180.76 563.571L325 592.727C325 592.727 278.949 440.26 247.772 336.095Z" fill="#FCDDEC"/>
<path d="M167.818 54.0152C182.736 54.0152 194.83 41.9235 194.83 27.0076C194.83 12.0917 182.736 0 167.818 0C152.901 0 140.807 12.0917 140.807 27.0076C140.807 41.9235 152.901 54.0152 167.818 54.0152Z" fill="#371B34"/>
<path d="M195.466 112.208C204.105 112.208 211.109 105.205 211.109 96.5672C211.109 87.9293 204.105 80.9268 195.466 80.9268C186.827 80.9268 179.824 87.9293 179.824 96.5672C179.824 105.205 186.827 112.208 195.466 112.208Z" stroke="#EF5DA8" stroke-miterlimit="10"/>
<path d="M140.806 112.208C149.446 112.208 156.449 105.205 156.449 96.5672C156.449 87.9293 149.446 80.9268 140.806 80.9268C132.167 80.9268 125.164 87.9293 125.164 96.5672C125.164 105.205 132.167 112.208 140.806 112.208Z" stroke="#EF5DA8" stroke-miterlimit="10"/>
<path d="M45.4638 206.458C45.4638 206.458 74.9122 175.825 105.549 157.124C136.186 138.423 156.45 127.896 156.45 112.255C156.45 96.615 155.046 73.0764 156.45 64.4579C157.759 56.3557 167.843 48.5295 176.199 57.1239C178.924 59.9327 179.8 63.1256 179.8 70.4236V112.195C179.8 112.195 176.751 124.439 217.328 149.106C257.905 173.773 285.372 199.232 289.742 204.405C294.112 209.579 300.09 237.031 269.454 231.053C238.817 225.075 203.798 213.948 203.798 213.948C203.798 213.948 158.863 205.258 151.264 198.836C146.2 194.735 140.572 191.384 134.553 188.885C134.553 188.885 130.267 182.127 140.772 183.315C151.276 184.504 169.968 180.915 189.068 188.489C208.168 196.063 249.549 190.085 261.482 196.891L201.985 191.562L194.782 183.363L172.093 158.72L147.278 163.87L121.72 187.685L133.341 188.753C133.341 188.753 149.715 188.753 151.132 188.141C152.549 187.529 172.357 173.185 185.502 180.267C198.648 187.349 197.027 197.239 197.027 197.239C197.027 197.239 176.619 199.46 167.507 197.239C158.395 195.019 166.09 205.534 141.024 209.771C141.024 209.771 55.7882 242.516 45.4158 223.119C45.4638 223.071 40.2296 215.797 45.4638 206.458Z" fill="#954441"/>
<path d="M200.136 158.444C195.334 146.561 202.129 139.011 202.129 139.011C202.129 139.011 195.551 143.668 190.532 147.929C183.906 153.571 170.232 153.799 170.232 153.799C140.808 154.999 131.288 140.931 131.288 140.931C131.288 140.931 131.588 154.699 121.924 163.738C111.359 173.665 118.562 188.057 119.211 189.737C119.703 189.821 133.617 189.509 133.617 189.509H134.709C134.121 188.441 131.576 183.051 141.036 184.132C145.742 184.672 152.104 184.24 159.415 184.3C166.714 180.567 177.555 176.593 185.826 181.023C191.829 184.24 194.71 188.033 196.115 191.214C198.948 191.214 201.781 191.358 204.602 191.478C205.709 189.295 206.617 187.017 207.315 184.672C210.089 171.648 204.974 170.34 200.136 158.444Z" fill="#EF5DA8"/>
<path d="M78.1527 576.294C80.6078 576.487 83.0755 576.451 85.5238 576.186C87.9423 575.918 90.3249 575.391 92.6308 574.614C94.9467 573.88 97.1519 572.834 99.1855 571.505C101.256 570.179 103.191 568.651 104.96 566.944C103.51 568.995 101.739 570.799 99.7138 572.285C98.7014 573.036 97.634 573.711 96.5204 574.302C95.3829 574.857 94.2122 575.343 93.015 575.754C90.6189 576.556 88.1208 577.013 85.5959 577.111C83.0875 577.226 80.5765 576.95 78.1527 576.294Z" fill="#371B34"/>
<path d="M181.348 568.024C183.604 569.014 185.947 569.794 188.347 570.352C190.712 570.889 193.125 571.179 195.55 571.217C197.975 571.283 200.398 571.021 202.753 570.436C205.145 569.873 207.474 569.068 209.704 568.036C207.66 569.497 205.394 570.62 202.993 571.361C201.787 571.735 200.555 572.02 199.308 572.213C198.053 572.364 196.79 572.433 195.526 572.417C192.996 572.375 190.486 571.971 188.071 571.217C185.679 570.503 183.412 569.426 181.348 568.024Z" fill="#371B34"/>
<path d="M181.048 443.105L163.508 477.23L145.801 511.272L110.374 579.343C107.421 585.021 104.372 590.626 101.298 596.256L92.1506 613.121L73.8789 646.862L55.5833 680.592L37.1315 714.201L55.067 680.279L73.2306 646.49C85.2357 623.912 97.4328 601.405 109.378 578.791L145.153 510.9L163.052 476.954L181.048 443.105Z" fill="#371B34"/>
<path d="M88.405 443.105C88.405 443.105 79.7854 462.766 71.4659 498.932L88.405 443.105Z" fill="#371B34"/>
<path d="M191.288 244.629C202.176 240.284 195.369 221.174 198.995 217.441C210.436 205.666 203.305 196.351 202.777 195.679C201.3 193.278 200.099 193.278 199.979 190.59C199.379 187.889 200.724 185.92 201.564 183.22C201.828 182.127 200.64 175.345 200.16 174.445C198.227 169.104 192.956 166.043 189.979 164.35C189.556 164.114 189.208 163.764 188.974 163.34C188.741 162.915 188.631 162.433 188.659 161.95C188.983 157.148 185.153 148.146 174.553 145.145C173.905 144.653 170.663 133.55 162.548 131.833C159.723 131.531 156.873 131.531 154.048 131.833C153.712 131.893 151.767 132.313 151.143 130.825C150.381 128.716 148.879 126.954 146.917 125.867C144.906 124.657 142.731 123.744 140.459 123.155C138.47 122.885 136.462 122.785 134.456 122.855C133.039 122.853 131.636 123.131 130.326 123.671C127.505 124.871 122.571 126.96 121.623 128.472C120.71 128.928 120.29 129.877 119.57 130.525C118.828 131.331 118.296 132.309 118.021 133.37C117.942 133.737 117.769 134.077 117.519 134.357C117.268 134.637 116.949 134.847 116.593 134.966C114.552 135.35 108.933 138.855 108.285 140.187C106.616 141.904 104.792 143.512 104.023 145.925C102.991 149.19 102.187 152.395 103.927 155.756C104.564 156.956 105.716 158.505 104.143 159.981L99.6415 163.702C97.1194 166.189 95.6022 169.518 95.3797 173.053C95.0555 177.47 98.7411 183.352 103.015 185.248C103.507 185.476 104.215 185.464 104.215 186.256C104.217 186.363 104.188 186.467 104.131 186.557C102.734 188.553 102.174 191.018 102.571 193.422C102.908 194.943 102.722 196.534 102.042 197.936C101.043 198.848 100.26 199.972 99.7495 201.225C97.8887 204.994 96.6162 208.931 97.2765 213.228C97.1623 214.082 97.2111 214.949 97.4205 215.785C98.2489 218.918 100.386 221.03 102.907 222.855C105.632 224.823 108.837 225.255 112.031 225.664C112.421 225.778 112.824 225.843 113.231 225.856C114.54 226.336 115.92 226.732 116.148 228.436C116.046 228.834 115.884 229.215 115.668 229.565C114.801 231.403 114.593 233.485 115.08 235.458C115.455 238.576 116.938 241.456 119.258 243.573C122.223 245.993 125.87 247.428 129.69 247.678C130.034 247.708 130.379 247.708 130.722 247.678C131.407 247.606 132.019 247.678 132.079 248.542C132.427 251.232 133.313 253.824 134.684 256.164C135.08 256.968 134.912 257.484 134.096 257.809C133.548 258.233 133.088 258.759 132.739 259.357C127.001 267.399 119.318 273.041 110.518 277.266C103.627 280.579 96.112 282.187 88.909 284.228C87.7544 284.847 86.4979 285.254 85.1994 285.428C80.6855 286.749 76.0156 287.553 71.9939 290.23C67.0838 293.531 67.9962 295.991 72.4381 304.43C74.0072 307.344 75.7678 310.151 77.7083 312.832C79.1729 314.921 80.3974 317.501 83.0385 318.594C84.0596 318.81 85.1147 318.81 86.1358 318.594C86.592 318.594 87.0482 318.462 87.5044 318.45C88.6194 318.475 89.7085 318.112 90.5847 317.422C91.461 316.732 92.0697 315.758 92.3064 314.669C92.7465 310.95 91.7456 307.205 89.5092 304.202C88.0723 301.898 86.2394 299.866 84.095 298.2C85.7725 298.001 87.4659 297.973 89.1491 298.116C89.7373 297.816 90.3496 298.116 90.9858 297.864L97.1204 297.072C97.6966 296.748 98.3929 297.144 98.9692 296.76C99.9393 296.252 100.973 295.877 102.042 295.643C102.72 295.81 103.433 295.764 104.083 295.511C107.241 294.407 110.398 293.387 113.471 292.006C120.126 289.071 126.422 285.382 132.235 281.011C136.914 277.617 140.91 273.369 144.012 268.492C144.925 266.885 145.696 265.202 146.317 263.462C146.605 262.694 146.917 261.866 147.926 261.902C149.653 261.824 151.37 261.583 153.052 261.182C154.769 260.893 154.865 261.001 154.48 262.754C153.324 268.185 151.37 273.415 148.682 278.274C145.216 284.528 140.397 289.929 134.576 294.083C129.102 298.056 123.183 301.285 117.529 304.994C116.136 305.894 114.48 306.434 113.459 307.851C111.767 309.159 110.026 310.395 108.417 311.8C106.727 313.06 105.272 314.608 104.119 316.373C102.619 318.99 102.847 320.49 105.68 323.083C106.244 323.587 106.88 324.067 107.457 324.523C110.362 326.644 113.295 328.737 116.256 330.801C119.054 332.734 121.575 335.146 124.9 336.275C125.804 336.521 126.757 336.521 127.661 336.275C127.881 336.22 128.107 336.188 128.333 336.179C129.175 336.234 130.018 336.08 130.786 335.732C131.554 335.383 132.225 334.85 132.738 334.181C133.251 333.511 133.591 332.725 133.727 331.893C133.863 331.06 133.792 330.207 133.52 329.409C133.57 328.501 133.339 327.6 132.859 326.828C131.319 324.31 129.23 322.173 126.749 320.574C125.296 319.578 123.712 318.822 122.211 317.909C122.326 317.752 122.473 317.62 122.643 317.523C122.813 317.425 123.001 317.365 123.195 317.345C126.879 316.211 130.426 314.673 133.772 312.76C139.964 309.309 145.717 305.121 150.903 300.289C153.651 297.915 156.167 295.287 158.418 292.438C159.09 291.502 165.621 282.283 168.562 279.091C168.562 279.091 175.981 268.684 179.979 265.527C194.481 253.992 192.08 245.601 191.288 244.629Z" fill="#371B34"/>
<path d="M129.799 247.27C128.418 247.858 126.99 247.39 125.597 247.522C120.003 246.765 114.552 242.504 113.784 237.523C113.436 236.971 113.784 236.323 113.484 235.722C113.333 233.194 113.961 230.68 115.285 228.52C115.369 228.433 115.481 228.377 115.602 228.364C115.722 228.351 115.844 228.381 115.945 228.448C116.003 228.495 116.05 228.553 116.083 228.619C116.116 228.686 116.134 228.758 116.137 228.832C116.17 229.35 116.079 229.869 115.873 230.345C115.019 232.689 115.118 235.275 116.149 237.547C116.605 238.995 117.268 240.37 118.118 241.628C119.983 243.894 122.497 245.535 125.321 246.333C126.747 246.907 128.263 247.224 129.799 247.27Z" fill="#F09A59"/>
<path d="M99.6424 163.702C98.9239 164.651 98.2739 165.65 97.6976 166.691C96.5297 168.817 95.8914 171.192 95.8368 173.617C95.8932 176.443 96.9674 179.154 98.8621 181.251C99.6751 182.369 100.669 183.342 101.803 184.132C102.936 184.751 104.107 185.296 105.309 185.765C105.269 185.881 105.204 185.987 105.12 186.076C105.036 186.165 104.933 186.235 104.82 186.282C104.706 186.328 104.584 186.35 104.461 186.346C104.339 186.342 104.218 186.311 104.108 186.257C101.707 185.404 99.1742 184.828 97.3135 182.812C95.3765 180.833 94.1954 178.238 93.9761 175.478C93.7483 174.808 93.7483 174.082 93.9761 173.413C94.2402 169.248 96.5571 166.259 99.6424 163.702Z" fill="#F09E54"/>
<path d="M108.261 140.152C108.345 140.656 107.769 141.292 107.264 141.784C106.174 142.868 105.302 144.152 104.695 145.565C103.516 148.058 103.098 150.843 103.495 153.571C103.845 154.977 104.382 156.329 105.092 157.592C105.752 159.141 105.932 159.069 104.071 159.993C99.1371 152.443 101.862 144.317 108.261 140.152Z" fill="#F09E54"/>
<path d="M104.084 186.557C104.192 187.661 103.436 188.489 103.184 189.486C102.787 191.272 102.787 193.124 103.184 194.911C103.352 195.477 103.325 196.083 103.108 196.632C102.89 197.18 102.494 197.64 101.983 197.936C100.302 194.455 100.386 188.897 104.084 186.557Z" fill="#F09E54"/>
<path d="M115.837 228.472H115.669L112.391 226.348C111.959 225.255 113.087 225.736 113.424 225.399C114.804 225.568 115.549 226.792 116.665 227.428C117.109 227.68 116.737 228.136 116.569 228.472C116.522 228.524 116.464 228.565 116.4 228.594C116.336 228.622 116.267 228.636 116.197 228.636C116.127 228.636 116.058 228.622 115.993 228.594C115.929 228.565 115.872 228.524 115.825 228.472H115.837Z" fill="#F09A59"/>
<path d="M119.738 130.453C119.09 131.722 118.56 133.048 118.154 134.414C118.01 135.314 117.133 134.834 116.569 134.93C117.171 133.224 118.129 131.665 119.378 130.357C119.439 130.325 119.51 130.317 119.577 130.335C119.644 130.353 119.701 130.395 119.738 130.453Z" fill="#F09E54"/>
<path d="M172.296 147.102C172.434 147.517 172.432 147.965 172.291 148.379C172.151 148.793 171.878 149.15 171.516 149.394C170.941 149.773 170.54 150.365 170.399 151.039C170.063 152.239 168.839 152.491 167.878 152.923C167.326 153.187 167.266 152.623 167.218 152.215C166.776 150.065 165.657 148.113 164.025 146.646C163.689 146.297 163.376 145.913 162.824 146.297C162.272 146.682 162.476 147.21 162.824 147.654C163.172 148.098 163.497 148.434 163.857 148.854C164.845 149.902 165.503 151.217 165.751 152.636C165.998 154.055 165.824 155.516 165.249 156.836C164.233 158.397 162.641 159.493 160.819 159.885C160.231 160.065 159.367 160.089 159.619 160.966C159.883 162.022 160.819 161.482 161.336 161.302C164.109 160.401 166.534 159.093 167.218 155.888C167.249 155.6 167.36 155.326 167.538 155.097C167.716 154.868 167.954 154.693 168.226 154.592C171.432 153.584 172.56 150.703 174.085 148.17C176.005 148.314 177.868 148.892 179.531 149.861C181.195 150.83 182.617 152.164 183.689 153.764C184.013 154.184 187.29 158.481 187.194 159.225C186.21 159.585 187.411 161.086 187.362 162.01C187.314 162.934 186.438 163.606 185.442 164.543C182.488 164.675 179.919 165.587 178.239 168.144C177.782 168.663 177.434 169.268 177.214 169.923C176.993 170.579 176.905 171.271 176.954 171.961C177.026 172.441 177.23 172.885 177.806 172.849C178.383 172.813 178.431 172.453 178.515 172.009C179.139 168.264 181.144 166.463 184.913 166.211C187.307 166.332 189.639 167.015 191.72 168.204C192.547 168.595 193.225 169.244 193.653 170.052C197.123 178.455 195.166 186.485 192.453 194.539C191.117 194.802 189.736 194.698 188.455 194.239C187.565 193.995 186.651 193.85 185.73 193.807C185.238 193.807 184.709 193.807 184.649 194.407C184.589 195.007 185.106 195.247 185.67 195.271C186.649 195.292 187.609 195.552 188.465 196.029C189.321 196.506 190.047 197.186 190.58 198.008C191.054 198.653 191.412 199.376 191.636 200.145C191.87 200.797 191.87 201.509 191.636 202.161C191.144 202.953 190.436 202.029 189.872 201.921C187.471 201.513 182.092 203.422 182.092 203.422C181.732 204.286 197.699 215.869 197.315 216.625C193.437 224.896 198.359 237.547 192.621 241.892C174.541 255.588 129.654 223.779 112.187 223.779C96.1723 223.779 96.0643 204.754 101.947 201.129C102.223 200.961 103.519 203.109 104.684 204.178C108.045 207.203 117.649 209.459 119.246 205.858C119.03 205.654 117.421 204.478 117.637 204.274L119.81 202.857C120.17 202.629 119.534 201.345 119.078 201.561C118.622 201.777 118.081 202.137 117.589 202.437C115.188 203.914 109.87 203.542 107.985 201.525C106.868 200.3 105.985 198.88 105.38 197.336C104.429 195.035 104.187 192.502 104.684 190.062C105.284 187.313 106.797 185.897 109.63 185.789C111.023 185.789 112.475 186.101 113.544 184.408C116.149 187.229 118.982 185.993 121.695 185.368C122.779 184.97 123.789 184.394 124.684 183.664C125.2 183.34 125.885 182.932 125.369 182.188C124.852 181.443 124.324 182.056 123.856 182.392C122.112 183.821 119.903 184.56 117.649 184.468C115.705 184.336 113.003 182.668 112.415 180.735C112.235 180.123 112.331 179.079 111.335 179.331C110.338 179.583 110.89 180.531 110.999 181.215C111.067 181.85 111.341 182.444 111.779 182.908C112.571 183.688 112.031 184.108 111.323 184.108C108.706 184.108 106.028 184.684 103.555 183.292C101.474 182.07 99.7679 180.302 98.6214 178.178C96.6285 174.709 97.0487 171.289 98.7774 167.976C100.242 164.687 104.624 161.806 104.9 161.542C106.845 159.633 107.301 159.789 109.45 161.278C110.136 161.745 110.913 162.062 111.73 162.209C112.547 162.356 113.386 162.329 114.192 162.13C115.392 161.938 115.536 162.322 115.5 163.33C115.392 166.055 117.217 167.976 118.442 170.136C118.487 170.248 118.557 170.347 118.646 170.428C118.735 170.509 118.84 170.569 118.956 170.604C119.071 170.638 119.192 170.647 119.311 170.628C119.43 170.609 119.543 170.564 119.642 170.496C120.266 170.088 119.894 169.632 119.642 169.164C118.91 167.868 118.19 166.559 117.445 165.287C116.245 163.162 117.445 159.081 119.714 158.193C120.314 157.953 121.047 157.677 120.555 156.848C120.062 156.02 119.522 156.632 119.03 156.848C118.125 157.245 117.343 157.875 116.761 158.673C115.248 160.846 112.847 161.11 110.446 160.041C108.935 159.598 107.649 158.598 106.845 157.245C105.728 154.844 104.612 152.443 105.188 149.61C105.75 146.824 107.081 144.25 109.03 142.18C110.419 140.778 111.99 139.567 113.7 138.579C114.276 138.195 119.03 136.515 119.882 133.778C120.314 131.809 122.283 131.041 123.136 129.469C124.168 127.692 126.161 126.756 127.83 125.94C129.138 125.104 130.648 124.64 132.199 124.595C132.884 124.703 134.997 124.595 135.393 124.595C135.789 124.595 136.329 124.595 136.785 124.595C139.593 124.683 142.32 125.552 144.661 127.104C146.384 128.279 147.704 129.955 148.442 131.905C148.85 133.034 151.443 133.826 152.044 133.682C153.496 133.358 154.973 133.154 156.438 132.902C156.822 132.998 158.959 133.13 159.679 133.274C161.691 133.634 163.605 134.415 165.293 135.568C166.982 136.72 168.407 138.217 169.475 139.96C169.715 140.344 170.003 140.704 170.267 141.076C171.624 142.612 171.468 144.497 171.468 146.322C171.444 147.054 171.996 146.225 172.296 147.102Z" fill="#F09E54"/>
<path d="M177.207 238.243C180.218 240.609 183.465 242.66 186.895 244.364C187.164 244.462 187.383 244.662 187.507 244.92C187.63 245.178 187.648 245.474 187.555 245.745C186.991 246.345 186.354 246.009 185.826 245.745C185.082 245.445 184.374 245.049 183.653 244.689C181.252 243.488 181.252 243.488 179.944 245.721C178.816 247.726 177.297 249.485 175.478 250.894C173.7 252.187 171.553 252.873 169.355 252.851C168.035 252.851 166.714 252.851 165.394 252.851C164.954 252.9 164.509 252.848 164.093 252.698C163.677 252.548 163.3 252.305 162.993 251.987C162.996 249.762 162.381 247.58 161.216 245.685C160.856 245.181 160.832 244.076 159.871 244.581C158.911 245.085 159.631 245.781 159.871 246.417C160.4 247.617 161.432 248.746 161.168 250.258C161.048 251.146 160.472 251.338 159.679 251.218C159.048 251.121 158.402 251.201 157.814 251.452C157.227 251.702 156.721 252.112 156.354 252.635C155.39 253.788 154.165 254.694 152.781 255.278C151.397 255.863 149.893 256.109 148.395 255.996C145.98 256.088 143.564 255.902 141.192 255.444C137.59 254.591 135.117 252.587 134.217 248.89C133.424 247.833 134.613 246.381 133.532 245.385C133.172 245.229 132.716 245.241 132.488 244.845C131.936 243.884 131.035 243.86 130.087 243.836C124.661 243.728 120.699 241.148 117.866 236.634C117.504 236.047 117.293 235.379 117.254 234.69C116.305 232.517 117.254 230.645 118.238 228.796C119.775 228.556 121.335 228.508 122.884 228.652C126.63 228.667 130.329 227.812 133.688 226.155C136.877 224.632 140.47 224.17 143.941 224.835C146.666 225.291 149.331 226.035 152.008 226.684C152.264 226.727 152.509 226.822 152.727 226.962C152.946 227.102 153.134 227.285 153.281 227.5C153.281 228.376 152.62 228.64 152.08 229C149.043 230.969 148.479 233.934 148.707 237.198C148.904 235.901 149.185 234.618 149.547 233.357C150.652 229.996 152.788 228.556 156.306 228.7C157.106 228.878 157.94 228.82 158.707 228.532C160.616 227.5 162.645 228.028 164.625 228.016C166.426 228.448 167.134 230.128 168.227 231.329C169.571 232.829 170.988 234.246 172.405 235.662C173.783 236.884 175.427 237.768 177.207 238.243Z" fill="#F09E54"/>
<path d="M163.053 251.999C165.697 252.572 168.424 252.649 171.096 252.227C175.61 251.566 178.035 248.218 180.028 244.58C180.82 243.116 181.444 242.9 182.873 243.716C184.268 244.724 185.865 245.417 187.555 245.745C186.991 248.145 186.883 250.546 185.598 252.827C184.31 255.024 182.424 256.81 180.16 257.976C176.69 259.873 173.101 261.577 169.043 261.673C166.33 261.854 163.623 261.254 161.24 259.945C159.595 258.997 159.511 258.3 160.928 257.1C162.536 255.732 162.632 253.823 163.053 251.999Z" fill="#F09A59"/>
<path d="M153.28 227.752C147.794 226.024 142.344 224.151 136.473 225.675C134.432 226.18 132.739 227.44 130.735 228.076C126.719 229.348 122.451 229.612 118.309 228.844C119.054 228.124 119.222 227.044 120.122 226.384C122.367 224.727 124.804 225.351 127.217 225.567C127.837 225.68 128.451 225.828 129.054 226.012C129.606 226.144 130.158 226.084 130.338 225.471C130.519 224.859 129.918 224.571 129.426 224.463C128.43 224.247 127.409 224.103 126.257 223.911C126.796 223.343 127.511 222.971 128.286 222.855C131.242 221.953 134.141 220.871 136.965 219.614C138.6 218.757 140.443 218.379 142.283 218.521C146.377 219.11 150.027 221.33 154.156 221.75C155.513 221.894 156.798 222.374 158.166 222.471H160.339C160.571 222.462 160.801 222.51 161.011 222.61C161.22 222.711 161.401 222.86 161.54 223.047C162.74 224.415 163.832 225.94 164.949 227.392C165.085 227.545 165.177 227.731 165.215 227.932C165.253 228.133 165.236 228.34 165.165 228.532C163.604 228.532 162.056 228.532 160.507 228.532C160.197 228.503 159.884 228.548 159.594 228.663C159.304 228.777 159.045 228.959 158.838 229.192C157.706 228.323 156.285 227.92 154.865 228.064C154.313 228.064 153.724 228.28 153.28 227.752Z" fill="#F09A59"/>
<path d="M200.088 213.924C199.379 214.657 198.251 215.125 198.299 216.325C197.999 216.481 197.615 216.325 197.351 216.625L193.161 213.216C192.961 212.288 192.989 211.325 193.242 210.409C193.495 209.494 193.966 208.653 194.613 207.959C195.246 208.711 195.591 209.664 195.586 210.647C195.586 211.104 195.766 211.44 196.294 211.428C196.822 211.416 196.918 211.044 196.978 210.599C197.029 209.271 196.65 207.962 195.898 206.866C195.55 206.206 195.238 205.534 194.913 204.862C194.542 202.501 193.905 200.19 193.017 197.972C192.789 197.396 192.464 196.772 192.813 196.171C194.577 195.283 196.63 194.971 198.071 193.447C198.731 193.315 199.091 193.759 199.451 194.203C202.38 198.424 203.523 203.631 202.633 208.691C202.488 209.728 202.074 210.708 201.432 211.536C201.156 212.46 200.292 212.988 200.088 213.924Z" fill="#F09A59"/>
<path d="M134.276 248.902C136.677 254.352 141.275 255.552 146.569 255.54C148.349 255.647 150.135 255.506 151.875 255.12C153.343 254.743 154.648 253.901 155.597 252.719C156.797 251.195 158.166 250.031 160.303 250.799C160.867 250.991 160.939 250.427 161.227 250.223C161.356 251.422 161.32 252.634 161.119 253.824C160.915 254.659 160.515 255.433 159.951 256.083C159.387 256.732 158.676 257.237 157.878 257.557C155.263 258.861 152.395 259.577 149.474 259.657C147.289 259.657 145.117 259.405 142.956 259.225C139.198 258.901 136.953 256.332 135.573 253.067C134.96 251.771 133.82 250.547 134.276 248.902Z" fill="#F09A59"/>
<path d="M192.465 194.526C192.326 193.151 192.506 191.763 192.993 190.469C195.59 183.885 195.654 176.572 193.173 169.944C194.59 169.884 194.998 171.228 195.91 171.9C197.274 173.684 198.378 175.652 199.188 177.746C199.995 180.091 200.215 182.598 199.83 185.048C199.445 187.498 198.466 189.817 196.979 191.802C196.655 193.266 195.418 193.59 194.242 193.986C193.654 194.178 193.065 194.346 192.465 194.526Z" fill="#F09A59"/>
<path d="M194.614 208.007C194.133 209.759 193.641 211.512 193.161 213.264C189.727 210.863 186.87 207.755 183.653 205.03C187.915 202.113 193.521 203.541 194.614 208.007Z" fill="#F09E54"/>
<path d="M165.153 228.484C163.749 226.429 162.226 224.457 160.591 222.579C160.471 222.507 160.435 222.447 160.471 222.375C160.507 222.303 160.555 222.279 160.603 222.279C161.277 222.201 161.959 222.316 162.571 222.609C163.182 222.902 163.699 223.361 164.061 223.935C166.758 227.664 169.749 231.172 173.005 234.426C174.349 235.758 175.802 236.971 177.206 238.243C176.251 238.243 175.307 238.045 174.433 237.66C173.558 237.276 172.774 236.714 172.128 236.01C169.595 233.682 167.482 230.993 165.153 228.484Z" fill="#3F3632"/>
<path d="M117.313 234.69C118.125 236.146 119.04 237.542 120.05 238.867C121.338 240.395 122.968 241.597 124.808 242.377C126.647 243.157 128.645 243.493 130.639 243.356C132.487 243.236 132.643 244.665 133.544 245.445C130.661 246.012 127.676 245.733 124.948 244.641C122.247 243.536 119.642 242.012 118.417 239.311C117.865 237.931 116.449 236.467 117.313 234.69Z" fill="#F09A59"/>
<path d="M88.8371 316.613C89.9656 310.935 87.5285 306.722 84.2992 302.797C83.3868 301.693 82.3304 300.684 81.394 299.604C81.0818 299.256 80.5416 298.764 81.2739 298.332C81.8261 297.996 82.4744 297.828 82.9066 298.572C84.4432 300.973 86.9163 302.617 88.3569 305.186C89.9415 308.007 91.118 310.827 90.7579 314.116C90.7033 314.67 90.4944 315.198 90.1548 315.639C89.8153 316.081 89.3587 316.418 88.8371 316.613Z" fill="#F09E54"/>
<path d="M130.351 334.09C130.999 331.173 129.835 329.024 128.334 326.984C126.246 324.202 123.464 322.017 120.267 320.646C119.439 320.262 118.586 319.914 117.758 319.518C117.458 319.374 117.002 319.194 117.086 318.821C117.242 318.185 117.902 318.077 118.406 317.825C118.91 317.573 119.066 317.825 119.15 318.197C119.379 319.146 120.171 319.314 120.915 319.638C125.225 321.474 129.091 323.923 131.336 328.208C132.608 330.657 133.1 332.157 130.351 334.09Z" fill="#F09E54"/>
<path d="M201.108 211.836C203.665 205.594 202.308 199.832 198.995 194.299C199.451 193.506 200.195 193.902 200.832 193.842C203.313 197.29 204.46 201.521 204.061 205.75C204.016 208.142 203.088 210.434 201.456 212.184C201.144 212.256 200.976 212.196 201.108 211.836Z" fill="#F09E54"/>
<path d="M134.288 257.941C131.659 254.844 130.879 251.135 130.687 247.222C132.055 246.754 132.499 247.222 132.535 248.686C132.785 251.234 133.646 253.684 135.044 255.828C135.369 256.428 135.777 257.028 135.345 257.737C135.08 258.313 134.732 258.217 134.288 257.941Z" fill="#F09A59"/>
<path d="M170.951 270.268C170.507 268.479 170.027 266.667 169.607 264.89C169.403 264.014 169.067 263.69 168.058 263.834C166.455 264.067 164.822 263.973 163.256 263.558C162.5 263.378 161.984 262.874 162.224 262.238C162.56 261.337 163.16 262.154 163.568 262.334C165.341 263.05 167.281 263.249 169.163 262.91C170.363 262.742 171.204 263.09 171.288 264.446C171.408 266.451 172.632 268.227 172.488 270.292C172.258 270.441 171.99 270.518 171.716 270.513C171.443 270.509 171.176 270.424 170.951 270.268Z" fill="#F09A59"/>
<path d="M117.649 206.626C114.024 206.631 110.435 205.904 107.097 204.49C105.541 203.71 104.244 202.497 103.363 200.997C103.111 200.624 103.003 200.12 102.427 200.072C102.715 199.34 103.363 198.956 103.879 198.44C105.44 199.64 105.716 201.561 107.049 202.857C108.241 203.814 109.618 204.513 111.094 204.91C113.243 205.762 115.632 205.51 117.649 206.626Z" fill="#F09E54"/>
<path d="M171.084 270.076C171.504 270.364 172.38 269.632 172.452 270.304C169.452 274.415 165.779 277.991 161.588 280.879C161.143 281.179 160.783 281.731 160.099 281.563C159.907 281.167 160.267 280.915 160.351 280.591C164.502 277.724 168.132 274.168 171.084 270.076Z" fill="#F09E54"/>
<path d="M158.166 222.567C152.666 222.157 147.283 220.766 142.272 218.462C145.189 217.885 147.578 219.662 150.207 220.298C152.836 220.934 155.513 221.618 158.166 222.267C158.286 222.339 158.322 222.399 158.286 222.459C158.277 222.485 158.261 222.509 158.24 222.528C158.219 222.547 158.194 222.56 158.166 222.567Z" fill="#F09E54"/>
<path d="M144.708 262.082C143.16 265.683 141.875 269.368 138.706 271.961C138.68 271.968 138.653 271.97 138.627 271.965C138.6 271.96 138.576 271.949 138.554 271.932C138.533 271.916 138.516 271.895 138.505 271.87C138.494 271.846 138.489 271.819 138.49 271.793C140.459 268.624 142.535 265.527 143.292 261.782C143.322 261.671 143.375 261.568 143.449 261.479C143.522 261.391 143.615 261.32 143.718 261.271C143.822 261.222 143.936 261.196 144.051 261.195C144.166 261.194 144.279 261.218 144.384 261.266C144.84 261.398 144.84 261.734 144.708 262.082Z" fill="#EE8631"/>
<path d="M192.812 196.219C193.808 198.445 194.564 200.771 195.069 203.157C195.165 203.769 195.453 204.357 194.913 204.909C193.292 203.901 193.196 202.341 193.208 200.636C193.214 199.856 193.044 199.084 192.711 198.378C192.379 197.671 191.892 197.048 191.287 196.555C191.804 196.111 192.356 196.387 192.812 196.219Z" fill="#F09E54"/>
<path d="M144.709 262.082C144.48 260.881 143.892 261.41 143.328 261.782C142.308 260.977 141.011 261.53 139.871 261.097C138.892 260.79 137.934 260.421 137.001 259.993C136.437 259.693 136.269 259.333 136.617 258.793C136.965 258.253 137.47 258.265 137.818 258.697C139.474 260.485 141.743 260.677 143.928 261.097C144.709 261.121 145.321 261.145 144.709 262.082Z" fill="#F09A59"/>
<path d="M201.108 211.836L201.456 212.184C201.118 212.848 200.653 213.439 200.087 213.924C199.835 212.94 200.724 212.46 201.108 211.836Z" fill="#F09E54"/>
<path d="M158.862 220.538C159.559 220.298 160.399 220.85 160.999 220.118C161.407 220.394 161.66 220.778 160.999 220.814C160.339 220.85 159.499 221.09 158.862 220.538Z" fill="#F09E54"/>
<path d="M158.166 222.566V222.278H160.567C160.561 222.378 160.561 222.479 160.567 222.578L158.166 222.566Z" fill="#F09E54"/>
<path d="M117.649 204.274V204.898C117.301 204.898 116.869 204.898 116.881 204.502C116.893 204.105 117.361 204.286 117.649 204.274Z" fill="#F09A59"/>
<path d="M137.433 142.168C137.061 143.488 137.65 143.56 139.054 143.368C141.875 142.912 144.204 144.197 146.257 146.069C146.653 146.441 147.025 146.885 146.545 147.401C146.065 147.918 145.621 147.521 145.213 147.173C142.728 145.049 140.123 143.896 136.893 145.709C135.345 146.585 134.744 148.11 133.976 149.454C133.664 150.042 133.484 150.978 132.559 150.474C131.635 149.97 132.367 149.274 132.559 148.794C133.066 147.565 133.767 146.426 134.636 145.421C135.572 144.337 136.049 142.931 135.966 141.502C135.883 140.072 135.247 138.731 134.192 137.763C133.007 136.509 131.512 135.59 129.858 135.098C129.294 134.978 128.85 134.69 129.09 134.018C129.33 133.345 129.822 133.562 130.29 133.658C133.388 134.282 138.058 138.039 137.433 142.168Z" fill="#3F3632"/>
<path d="M150.244 184.768C147.734 184.084 144.949 183.087 143.641 179.967C143.532 179.598 143.319 179.269 143.027 179.02C142.735 178.771 142.377 178.612 141.996 178.562C137.266 177.674 134.709 174.625 133.845 170.004C133.737 169.44 133.436 168.803 134.241 168.587C135.045 168.371 135.153 169.056 135.309 169.632C135.525 170.412 135.789 171.168 136.006 171.936C136.87 175.069 139.391 176.174 142.14 177.026C142.86 177.254 142.944 176.858 142.896 176.342C142.895 175.19 143.065 174.046 143.401 172.945C143.509 172.428 143.713 171.864 144.409 172.032C145.105 172.2 145.033 172.777 144.901 173.293C144.505 174.726 144.394 176.222 144.577 177.698C144.961 180.951 147.842 182.739 150.796 183.159C151.468 183.244 152.404 182.751 152.645 183.856C152.765 184.468 152.068 184.768 150.244 184.768Z" fill="#3F3632"/>
<path d="M172.032 188.669C169.547 188.393 167.398 187.577 166.281 185.068C165.717 183.808 165.081 182.571 164.541 181.323C164.468 181.224 164.42 181.109 164.401 180.987C164.381 180.866 164.39 180.742 164.428 180.625C164.465 180.508 164.53 180.402 164.616 180.314C164.702 180.227 164.808 180.161 164.925 180.122C165.489 179.906 165.765 180.327 165.969 180.759C166.377 181.647 166.834 182.511 167.17 183.423C168.634 187.385 172.284 187.565 175.117 186.532C175.765 186.292 176.702 185.332 177.134 186.532C177.566 187.733 176.269 187.733 175.585 187.961C174.469 188.462 173.254 188.704 172.032 188.669Z" fill="#3F3632"/>
<path d="M153.28 227.752C154.737 227.448 156.241 227.448 157.698 227.752C158.574 227.884 158.898 228.268 158.826 229.108C158.649 229.257 158.435 229.355 158.207 229.393C157.979 229.431 157.745 229.407 157.53 229.324C152.32 228.052 149.967 231.629 149.522 235.998C149.438 236.851 150.051 238.399 148.706 238.399C147.361 238.399 148.106 236.779 148.118 235.998C148.214 232.253 149.702 229.324 153.28 227.752Z" fill="#3F3632"/>
<path d="M155.837 6.34973C160.29 7.18971 164.512 8.97152 168.22 11.5758C171.929 14.1801 175.037 17.5466 177.338 21.45C179.608 25.4617 180.872 29.9631 181.024 34.5697C181.184 39.0494 180.394 43.5124 178.707 47.6653C178.972 43.3828 178.811 39.0845 178.227 34.8337C177.577 30.7589 176.215 26.83 174.205 23.2265C172.123 19.6268 169.476 16.3846 166.366 13.6238C163.132 10.8219 159.602 8.38265 155.837 6.34973Z" fill="#84455E"/>
<path d="M164.193 1.9207C168.646 2.76068 172.868 4.54249 176.576 7.14676C180.284 9.75103 183.393 13.1176 185.694 17.0209C187.969 21.0305 189.234 25.5332 189.38 30.1406C189.536 34.6124 188.747 39.0668 187.063 43.2123C187.334 38.9338 187.173 34.6389 186.582 30.3927C185.946 26.3108 184.584 22.3758 182.561 18.7734C180.484 15.1912 177.836 11.972 174.721 9.24276C171.492 6.42173 167.962 3.96614 164.193 1.9207Z" fill="#84455E"/>
<path d="M168.25 53.3188C168.25 53.3188 166.858 74.9249 155.837 75.189C155.837 75.189 153.028 53.2348 168.25 53.3188Z" fill="#371B34"/>
<path d="M167.818 53.031C167.818 53.031 169.271 74.421 179.823 74.8411C179.823 74.8411 183.029 52.9349 167.818 53.031Z" fill="#371B34"/>
<path d="M170.591 53.3192C170.879 55.1917 171.239 57.0403 171.624 58.8528C172.012 60.6573 172.534 62.4306 173.184 64.1583C173.789 65.864 174.705 67.4431 175.885 68.8156C177.118 70.1759 178.795 71.0526 180.615 71.2883C179.652 71.3911 178.679 71.2889 177.758 70.9882C176.834 70.6682 175.987 70.1569 175.273 69.4878C173.858 68.1198 172.777 66.4439 172.116 64.5904C171.44 62.7913 170.985 60.9172 170.759 59.0088C170.487 57.1248 170.431 55.216 170.591 53.3192Z" fill="#84455E"/>
<path d="M173.689 54.3872C174.022 57.0436 174.552 59.6716 175.274 62.2494C175.624 63.5285 176.175 64.744 176.907 65.8504C177.265 66.3868 177.732 66.8415 178.279 67.1848C178.825 67.5282 179.437 67.7525 180.076 67.843C179.382 67.9162 178.681 67.8001 178.047 67.5069C177.405 67.1937 176.836 66.7478 176.378 66.1985C175.508 65.1015 174.86 63.8459 174.47 62.5015C173.697 59.8708 173.432 57.117 173.689 54.3872Z" fill="#84455E"/>
<path d="M162.248 54.3872C162.491 57.1185 162.218 59.8711 161.444 62.5015C161.053 63.8459 160.405 65.1015 159.535 66.1985C159.077 66.7478 158.509 67.1937 157.866 67.5069C157.233 67.8001 156.531 67.9162 155.837 67.843C156.483 67.747 157.101 67.5143 157.65 67.1603C158.198 66.8063 158.665 66.3393 159.019 65.7904C159.75 64.6839 160.301 63.4685 160.651 62.1894C161.375 59.6315 161.908 57.0237 162.248 54.3872Z" fill="#84455E"/>
<path d="M165.669 53.3192C165.839 55.2144 165.799 57.1225 165.549 59.0088C165.324 60.9172 164.868 62.7913 164.193 64.5904C163.531 66.4439 162.45 68.1198 161.035 69.4878C160.297 70.1671 159.421 70.6789 158.466 70.9882C157.546 71.2889 156.572 71.3911 155.609 71.2883C157.43 71.0526 159.106 70.1759 160.339 68.8156C161.519 67.4431 162.435 65.864 163.04 64.1583C163.69 62.4306 164.212 60.6573 164.601 58.8528C165.009 57.0403 165.369 55.2157 165.669 53.3192Z" fill="#84455E"/>
<path d="M156.449 102.737C156.449 102.737 160.903 117.141 172.656 110.791C172.656 110.791 166.846 117.357 154.084 121.078C154.084 121.078 156.485 117.273 156.485 110.011L156.449 102.737Z" fill="#371B34"/>
<path d="M269.885 189.713C267.976 189.521 202.332 191.49 202.332 191.49C200.184 191.214 198.131 190.866 196.186 190.446C194.781 187.253 191.864 183.436 185.862 180.207C182.612 178.562 178.949 177.915 175.333 178.346L174.733 178.418C169.399 179.201 164.243 180.912 159.499 183.472C152.2 183.472 145.825 183.844 141.119 183.303C131.659 182.235 134.204 187.613 134.804 188.693H133.7L107.289 189.893C101.998 190.917 96.6262 191.459 91.238 191.514C82.3423 191.514 45.847 206.374 45.847 206.374C40.6008 215.785 45.847 223.059 45.847 223.059C56.1713 242.456 141.443 209.711 141.443 209.711C151.839 207.946 156.605 205.114 159.258 202.509C174.421 208.09 204.205 213.888 204.205 213.888C204.205 213.888 239.212 225.027 269.849 230.993C300.486 236.959 294.519 209.519 290.137 204.345C287.232 201.02 289.525 204.441 269.885 189.713ZM202.381 191.502L212.669 192.426C209.103 192.222 205.646 191.934 202.381 191.502Z" fill="#954441"/>
<path d="M119.522 189.773C116.671 189.777 113.821 189.937 110.987 190.254C108.154 190.53 105.345 190.998 102.583 191.514C97.0075 192.591 91.5423 194.179 86.2566 196.255C84.948 196.771 83.6155 197.264 82.3309 197.876C81.0464 198.488 79.7378 199.076 78.5013 199.712C75.9683 200.985 73.5072 202.425 71.0102 203.805C68.5131 205.186 66.0281 206.614 63.6271 208.067C62.4266 208.787 61.1661 209.519 59.9656 210.275C59.3653 210.659 58.7771 211.059 58.2008 211.476C57.9007 211.68 57.6246 211.896 57.3485 212.124C57.2133 212.237 57.0923 212.366 56.9883 212.508C56.9553 212.535 56.9301 212.57 56.9153 212.61C56.9005 212.651 56.8967 212.694 56.9043 212.736C56.9043 212.808 57.0483 212.82 57.1324 212.808C57.2164 212.796 56.9283 212.808 56.8803 212.748C56.8714 212.702 56.8722 212.655 56.8825 212.61C56.8928 212.564 56.9125 212.521 56.9403 212.484C57.0468 212.336 57.1631 212.196 57.2884 212.064C57.5405 211.812 57.8167 211.572 58.0808 211.331C58.633 210.875 59.2092 210.455 59.7855 210.023C60.986 209.183 62.1865 208.379 63.315 207.622C65.716 206.05 68.117 204.55 70.578 203.061C75.4256 199.983 80.5404 197.348 85.8604 195.187C91.225 193.126 96.7833 191.61 102.451 190.662C108.086 189.688 113.817 189.39 119.522 189.773Z" fill="#371B34"/>
<path d="M135.093 189.533C137.545 191.39 140.12 193.078 142.8 194.587C145.45 196.133 148.183 197.531 150.988 198.776C153.797 199.976 156.63 201.177 159.535 202.089C162.44 203.001 165.418 203.817 168.395 204.598C174.325 206.254 180.292 207.743 186.258 209.291L195.202 211.584L204.134 213.984C201.109 213.444 198.131 212.784 195.07 212.208L186.078 210.191C180.076 208.823 174.073 207.322 168.071 205.75C165.093 204.934 162.14 204.093 159.187 203.121C156.249 202.124 153.375 200.95 150.579 199.604C144.987 196.961 139.777 193.573 135.093 189.533Z" fill="#371B34"/>
<path d="M159.787 184.324C163.988 185.344 168.19 186.316 172.416 187.169C176.642 188.021 180.819 188.873 185.141 189.497C189.388 190.148 193.669 190.549 197.963 190.698L210.916 191.226C215.238 191.094 219.548 191.046 223.869 191.07C228.191 191.094 232.513 191.166 236.823 191.43C241.133 191.694 245.455 192.03 249.728 192.63C251.872 192.945 253.997 193.382 256.091 193.938C258.218 194.415 260.191 195.418 261.829 196.855C261.018 196.15 260.076 195.612 259.056 195.271C258.046 194.907 257.016 194.602 255.971 194.359C253.871 193.895 251.747 193.55 249.608 193.326C245.334 192.822 241.037 192.582 236.739 192.438C232.441 192.294 228.131 192.222 223.821 192.246C219.512 192.27 215.202 192.342 210.916 192.51H210.856L197.915 191.874C193.581 191.695 189.264 191.213 184.997 190.433C180.723 189.689 176.498 188.789 172.296 187.769C168.094 186.748 163.916 185.596 159.787 184.324Z" fill="#371B34"/>
<path d="M177.302 97.3951C176.766 98.4952 175.974 99.4508 174.992 100.182C174.01 100.913 172.868 101.398 171.66 101.596C170.749 101.726 169.83 101.791 168.911 101.788C168.43 101.788 167.878 101.788 167.878 101.188C167.878 100.588 168.49 100.552 168.923 100.564C171.001 100.739 173.067 100.112 174.697 98.8115C175.348 98.2248 175.881 97.5202 176.27 96.735C176.462 96.3508 176.75 96.1348 177.158 96.3148C177.566 96.4949 177.482 96.915 177.302 97.3951Z" fill="#371B34"/>
<path d="M177.158 79.4984C177.121 79.684 177.011 79.8473 176.854 79.9529C176.697 80.0585 176.504 80.0979 176.318 80.0625C175.464 79.9524 174.597 80.1192 173.845 80.5384C173.093 80.9576 172.496 81.607 172.14 82.3912C171.924 82.7633 171.636 83.2914 171.072 82.9433C170.508 82.5952 170.844 82.1631 171.072 81.743C171.511 80.8207 172.212 80.0479 173.087 79.5208C173.962 78.9936 174.973 78.7354 175.994 78.7782C176.474 78.8022 177.062 78.8022 177.158 79.4984Z" fill="#371B34"/>
<path d="M158.971 79.4984C159.009 79.684 159.118 79.8473 159.275 79.9529C159.433 80.0585 159.625 80.0979 159.811 80.0625C160.665 79.9524 161.532 80.1192 162.284 80.5384C163.036 80.9576 163.634 81.607 163.989 82.3912C164.205 82.7633 164.493 83.2914 165.057 82.9433C165.622 82.5952 165.286 82.1631 165.057 81.743C164.618 80.8207 163.917 80.0479 163.042 79.5208C162.167 78.9936 161.156 78.7354 160.135 78.7782C159.667 78.8022 159.067 78.8022 158.971 79.4984Z" fill="#371B34"/>
<g clip-path="url(#clip1_2_31)">
<path d="M240.283 113.559C241.392 113.259 242.44 112.903 243.52 112.692C246.143 112.179 248.685 112.45 251.13 113.621C256.502 116.193 258.904 122.28 257.119 127.833C255.901 131.621 253.319 134.149 249.897 135.966C246.528 137.754 242.902 138.772 239.182 139.503C235.603 140.189 231.978 140.617 228.335 140.782C225.767 140.912 223.894 139.836 222.736 137.544C220.227 132.599 218.082 127.514 216.867 122.09C216.18 119.028 215.839 115.939 216.327 112.812C217.182 107.323 221.497 102.996 226.858 102.292C229.033 101.99 231.253 102.345 233.232 103.309C237.294 105.264 239.353 108.636 240.131 112.928C240.158 113.098 240.185 113.259 240.218 113.423C240.234 113.471 240.256 113.517 240.283 113.559Z" fill="#FCDDEC"/>
</g>
<g clip-path="url(#clip2_2_31)">
<path d="M212.958 60.5304C213.027 59.8637 213.053 59.2183 213.164 58.5855C213.435 57.0497 214.115 55.7218 215.265 54.6358C217.792 52.2487 221.611 52.2164 224.261 54.3524C226.069 55.8102 226.905 57.7464 227.177 59.9911C227.445 62.2006 227.239 64.3889 226.858 66.5681C226.481 68.6611 225.954 70.7251 225.281 72.7442C224.813 74.1699 223.834 74.9642 222.343 75.1149C219.124 75.4448 215.905 75.547 212.696 75.0719C210.884 74.8044 209.131 74.3425 207.53 73.4212C204.72 71.8053 203.268 68.5481 204.007 65.4807C204.299 64.2326 204.957 63.0979 205.897 62.2222C207.813 60.4199 210.082 60.0052 212.583 60.4807C212.681 60.502 212.774 60.521 212.87 60.537C212.9 60.5387 212.929 60.5365 212.958 60.5304Z" fill="#FCDDEC"/>
</g>
</g>
<defs>
<clipPath id="clip0_2_31">
<rect width="325" height="768" fill="white"/>
</clipPath>
<clipPath id="clip1_2_31">
<rect width="44" height="36" fill="white" transform="translate(223.941 97.8926) rotate(29.9863)"/>
</clipPath>
<clipPath id="clip2_2_31">
<rect width="25.6778" height="21.0091" fill="white" transform="translate(201 66.1475) rotate(-38.9646)"/>
</clipPath>
</defs>
</svg>
