<svg width="18" height="17" viewBox="0 0 18 17" fill="none" xmlns="http://www.w3.org/2000/svg">
<path opacity="0.75" d="M14.58 12.5041H15.7871L14.9335 11.6505L14.6435 11.3605C14.549 11.266 14.4959 11.1378 14.4959 11.0041C14.4959 10.8704 14.549 10.7422 14.6435 10.6476C14.7381 10.5531 14.8663 10.5 15 10.5C15.1337 10.5 15.2619 10.5531 15.3564 10.6476L17.355 12.6462C17.3552 12.6464 17.3555 12.6467 17.3557 12.6469C17.4017 12.6935 17.4381 12.7486 17.4629 12.8092C17.4877 12.8701 17.5004 12.9354 17.5 13.0012H17.4999L17.5 13.007C17.5004 13.0728 17.4877 13.138 17.4629 13.1989C17.4381 13.2595 17.4017 13.3147 17.3557 13.3612C17.3555 13.3615 17.3552 13.3617 17.355 13.362L15.3579 15.3591C15.3576 15.3593 15.3574 15.3595 15.3572 15.3597C15.3106 15.4058 15.2554 15.4422 15.1948 15.467C15.1339 15.4919 15.0687 15.5045 15.0029 15.5041V15.5041L14.9971 15.5041C14.9313 15.5045 14.866 15.4919 14.8051 15.467C14.7442 15.4421 14.6888 15.4054 14.6421 15.3591L14.6421 15.3591C14.5952 15.3126 14.558 15.2573 14.5326 15.1964C14.5072 15.1354 14.4942 15.0701 14.4942 15.0041C14.4942 14.9381 14.5072 14.8727 14.5326 14.8118C14.5577 14.7517 14.5942 14.6971 14.6402 14.651L14.9375 14.3636L15.8266 13.5041H14.59H13.0003C12.0922 13.5034 11.1983 13.2779 10.3985 12.8476C9.59878 12.4173 8.918 11.7957 8.417 11.0382L7.99997 10.4077L7.58294 11.0382C7.08193 11.7957 6.40116 12.4173 5.6014 12.8476C4.80163 13.2779 3.90777 13.5034 2.9996 13.5041H0.999969C0.86736 13.5041 0.740184 13.4514 0.646416 13.3576C0.552648 13.2639 0.499969 13.1367 0.499969 13.0041C0.499969 12.8715 0.552648 12.7443 0.646416 12.6505C0.740184 12.5568 0.86736 12.5041 0.999969 12.5041H2.99997C4.19344 12.5041 5.33804 12.03 6.18195 11.1861C7.02586 10.3421 7.49997 9.19755 7.49997 8.00408C7.49997 6.8106 7.02586 5.66601 6.18195 4.8221C5.33804 3.97818 4.19344 3.50408 2.99997 3.50408H0.999969C0.867361 3.50408 0.740184 3.4514 0.646416 3.35763C0.552648 3.26386 0.499969 3.13668 0.499969 3.00408C0.499969 2.87147 0.552648 2.74429 0.646416 2.65052C0.740184 2.55675 0.867361 2.50408 0.999969 2.50408L2.9996 2.50408C2.99971 2.50408 2.99981 2.50408 2.99992 2.50408C2.99993 2.50408 2.99995 2.50408 2.99997 2.50408C3.90801 2.5048 4.80174 2.73034 5.6014 3.16055C6.40116 3.59082 7.08193 4.21244 7.58294 4.96991L7.99997 5.60042L8.417 4.96991C8.918 4.21244 9.59878 3.59082 10.3985 3.16055C11.1982 2.73034 12.0919 2.5048 13 2.50408C13 2.50408 13 2.50408 13 2.50408C13.0001 2.50408 13.0002 2.50408 13.0003 2.50408L14.58 2.50408H15.7871L14.9335 1.65052L14.6435 1.36052L14.5 1.50408L14.6435 1.36052C14.549 1.26599 14.4959 1.13777 14.4959 1.00408C14.4959 0.870384 14.549 0.742166 14.6435 0.64763C14.7381 0.553094 14.8663 0.499985 15 0.499985C15.0662 0.499985 15.1317 0.513023 15.1929 0.538357C15.254 0.563689 15.3096 0.60082 15.3564 0.64763L17.355 2.64619C17.3552 2.64642 17.3554 2.64665 17.3557 2.64687C17.4017 2.69345 17.4381 2.74861 17.4629 2.80923C17.4877 2.87015 17.5004 2.93538 17.5 3.00119L17.4999 3.00118L17.5 3.00697C17.5004 3.07277 17.4877 3.138 17.4629 3.19892C17.4381 3.25954 17.4017 3.3147 17.3557 3.36128C17.3554 3.36151 17.3552 3.36174 17.355 3.36197L15.3579 5.35909C15.3576 5.35931 15.3574 5.35953 15.3572 5.35975C15.3106 5.40578 15.2554 5.44221 15.1948 5.46697C15.1339 5.49185 15.0687 5.50447 15.0029 5.50409V5.50405L14.9971 5.50409C14.9313 5.50447 14.866 5.49185 14.8051 5.46697C14.7442 5.44209 14.6888 5.40543 14.6421 5.35909L14.6421 5.35908C14.5952 5.31259 14.558 5.25729 14.5326 5.19636C14.5072 5.13544 14.4942 5.07009 14.4942 5.00408C14.4942 4.93807 14.5072 4.87272 14.5326 4.81179C14.5577 4.75167 14.5942 4.69703 14.6402 4.65094L14.9375 4.36357L15.8266 3.50408H14.59H13C11.8065 3.50408 10.6619 3.97818 9.81799 4.8221C8.97407 5.66601 8.49997 6.8106 8.49997 8.00408C8.49997 9.19755 8.97407 10.3421 9.81799 11.1861C10.6619 12.03 11.8065 12.5041 13 12.5041H14.58Z" fill="#EF5DA8" stroke="#EF5DA8"/>
</svg>
