<svg width="86" height="80" viewBox="0 0 86 80" fill="none" xmlns="http://www.w3.org/2000/svg">
<g clip-path="url(#clip0_2_472)">
<path d="M0 66.6299C0.44227 65.0512 1.02014 63.5518 2.23013 62.3693C4.31631 60.3423 6.78843 59.6228 9.55679 60.3506C12.3252 61.0784 14.1339 62.8928 14.8515 65.6685C16.1366 70.6361 12.3794 75.2616 7.25156 75.0989C5.57734 75.038 3.97113 74.4213 2.68665 73.3461C1.40217 72.2709 0.512632 70.7986 0.15855 69.1616C0.118283 69.0342 0.0651597 68.9113 0 68.7946L0 66.6299Z" fill="#EF5DA8"/>
<path d="M81.3304 55.6812C78.0446 54.7469 74.8861 55.0076 71.8695 56.5613C69.6284 57.7065 67.7986 59.5197 66.6332 61.7499C64.2654 66.1669 64.6096 72.2418 69.1512 76.7651C67.5224 78.5674 65.2811 79.6995 62.8635 79.9413C60.4915 80.204 58.3156 79.5805 56.2732 78.3793C53.6467 76.8339 50.9848 75.3491 48.3645 73.7913C45.1247 71.8706 44.6824 67.7643 47.4779 65.487C49.0154 64.2357 50.7907 63.8916 52.6099 64.7613C54.2538 65.5475 55.8122 66.5089 57.4999 67.4432L67.4656 50.1944C66.095 49.3998 64.741 48.6115 63.385 47.8274C61.6055 46.7993 60.6375 45.2706 60.6605 43.206C60.7085 39.7192 64.5032 37.1853 67.5929 38.7891C71.1981 40.6203 74.6898 42.6671 78.0488 44.9182C81.1343 47.0266 82.6613 51.3602 81.3304 55.6812Z" fill="#EF5DA8"/>
<path d="M17.8275 50.2004L27.7953 67.4575C29.1993 66.6546 30.5512 65.8601 31.9218 65.101C34.1143 63.8852 36.284 64.0854 38.0009 65.6349C40.3249 67.7203 40.1789 71.5283 37.6004 73.3031C35.9314 74.4459 34.1436 75.401 32.3849 76.4083C30.7765 77.3322 29.1847 78.2956 27.5137 79.0964C23.7252 80.9108 19.0354 79.916 16.1711 76.7733C20.4165 72.0601 21.4554 66.8674 18.299 61.1699C16.9075 58.6674 14.7379 56.9615 12.0405 55.9438C9.46226 54.9564 6.62789 54.8588 3.98781 55.6664C2.59841 51.9439 4.02119 46.9868 7.35908 44.797C10.6198 42.6594 14.0349 40.7283 17.4562 38.8681C19.7844 37.6043 22.6487 38.5866 23.9421 40.8284C24.5896 41.9128 24.7936 43.205 24.5119 44.4361C24.2302 45.6671 23.4843 46.7421 22.4297 47.4372C20.9798 48.4278 19.4026 49.2599 17.8275 50.2004Z" fill="#EF5DA8"/>
<path d="M54.8671 10.2898C59.102 11.1573 62.5004 15.0571 62.611 19.3364C62.7028 22.9401 62.6819 26.5479 62.6298 30.1516C62.6194 30.7981 62.4817 31.4362 62.2244 32.0295C61.967 32.6227 61.5952 33.1594 61.1301 33.6088C60.6651 34.0582 60.1159 34.4115 59.5141 34.6484C58.9123 34.8854 58.2697 35.0014 57.6229 34.9898C56.3201 34.9804 55.0723 34.4636 54.1445 33.5494C53.2166 32.6351 52.6818 31.3953 52.6537 30.0932C52.6224 28.4248 52.6537 26.7732 52.6537 25.0548H32.6451C32.6451 26.6877 32.6597 28.3143 32.6451 29.941C32.6117 32.9482 30.2439 35.1546 27.2419 34.9794C24.8678 34.8459 22.7149 32.7605 22.6794 30.3914C22.621 26.6751 22.5876 22.9547 22.694 19.2426C22.815 15.0133 26.3073 11.0718 30.4254 10.3044C32.3739 16.3751 36.4065 20.01 42.9008 19.8974C49.1217 19.7973 52.9749 16.1958 54.8671 10.2898Z" fill="#EF5DA8"/>
<path d="M85.2744 67.7393C85.2744 71.7518 81.8489 75.1177 77.8038 75.0947C73.5813 75.0718 70.1371 71.758 70.1412 67.7289C70.1412 63.558 73.4645 60.1567 77.4324 60.0878C81.8989 60.0086 85.3244 63.7499 85.2744 67.7393Z" fill="#EF5DA8"/>
<path d="M42.6449 -0.000163417C44.1344 -0.00213018 45.5909 0.438725 46.8292 1.26635C48.0674 2.09398 49.0315 3.271 49.5989 4.64777C50.1663 6.02454 50.3113 7.53888 50.0155 8.99825C49.7197 10.4576 48.9965 11.7961 47.9378 12.8435C46.8791 13.891 45.5328 14.6 44.0699 14.8806C42.6071 15.1612 41.0938 15.0005 39.7225 14.4192C38.3512 13.8378 37.1838 12.8619 36.3687 11.6156C35.5536 10.3692 35.1277 8.90879 35.1451 7.41987C35.1589 5.44284 35.9559 3.55184 37.3616 2.16108C38.7673 0.770323 40.6671 -0.00683302 42.6449 -0.000163417Z" fill="#EF5DA8"/>
</g>
<defs>
<clipPath id="clip0_2_472">
<rect width="85.2747" height="80" fill="white"/>
</clipPath>
</defs>
</svg>
