<svg width="9" height="15" viewBox="0 0 9 15" fill="none" xmlns="http://www.w3.org/2000/svg">
<path d="M-7.04293 14.7715C-6.79731 14.7715 -6.58451 14.6812 -6.40502 14.4997C-5.7696 13.8593 -0.688221 8.73411 -0.0532975 8.09321C0.126192 7.91217 0.216185 7.69804 0.216185 7.4498C0.216185 7.20207 0.126192 6.98743 -0.0532975 6.8064C-0.688221 6.166 -5.7696 1.04082 -6.40502 0.399918C-6.58451 0.218882 -6.79731 0.128113 -7.04293 0.128113C-7.28854 0.128113 -7.50135 0.218882 -7.68084 0.399918C-7.86032 0.580954 -7.95032 0.79559 -7.95032 1.04332C-7.95032 2.32462 -7.95032 12.575 -7.95032 13.8563C-7.95032 14.1045 -7.86032 14.3187 -7.68084 14.4997C-7.50135 14.6812 -7.28854 14.7715 -7.04293 14.7715Z" fill="#EF5DA8"/>
<path d="M0.957072 14.7715C1.20269 14.7715 1.41549 14.6812 1.59498 14.4997C2.2304 13.8593 7.31178 8.73411 7.9467 8.09321C8.12619 7.91217 8.21618 7.69804 8.21618 7.4498C8.21618 7.20207 8.12619 6.98743 7.9467 6.8064C7.31178 6.166 2.2304 1.04082 1.59498 0.399918C1.41549 0.218882 1.20269 0.128113 0.957072 0.128113C0.711455 0.128113 0.498654 0.218882 0.319165 0.399918C0.139676 0.580954 0.0496826 0.79559 0.0496826 1.04332C0.0496826 2.32462 0.0496826 12.575 0.0496826 13.8563C0.0496826 14.1045 0.139676 14.3187 0.319165 14.4997C0.498654 14.6812 0.711455 14.7715 0.957072 14.7715Z" fill="#EF5DA8"/>
</svg>
