<svg width="9" height="15" viewBox="0 0 9 15" fill="none" xmlns="http://www.w3.org/2000/svg">
<path d="M15.4081 14.7715C15.1625 14.7715 14.9497 14.6812 14.7702 14.4997C14.1348 13.8593 9.05339 8.73409 8.41847 8.09319C8.23898 7.91216 8.14899 7.69802 8.14899 7.44979C8.14899 7.20205 8.23898 6.98742 8.41847 6.80638C9.05339 6.16598 14.1348 1.0408 14.7702 0.399903C14.9497 0.218866 15.1625 0.128098 15.4081 0.128098C15.6537 0.128098 15.8665 0.218866 16.046 0.399903C16.2255 0.580939 16.3155 0.795575 16.3155 1.04331C16.3155 2.3246 16.3155 12.575 16.3155 13.8563C16.3155 14.1045 16.2255 14.3186 16.046 14.4997C15.8665 14.6812 15.6537 14.7715 15.4081 14.7715Z" fill="#EF5DA8"/>
<path d="M7.4081 14.7715C7.16249 14.7715 6.94968 14.6812 6.77019 14.4997C6.13477 13.8593 1.05339 8.73409 0.418471 8.09319C0.238982 7.91216 0.148989 7.69802 0.148989 7.44979C0.148989 7.20205 0.238982 6.98742 0.418471 6.80638C1.05339 6.16598 6.13477 1.0408 6.77019 0.399903C6.94968 0.218866 7.16249 0.128098 7.4081 0.128098C7.65372 0.128098 7.86652 0.218866 8.04601 0.399903C8.2255 0.580939 8.31549 0.795575 8.31549 1.04331C8.31549 2.3246 8.31549 12.575 8.31549 13.8563C8.31549 14.1045 8.2255 14.3186 8.04601 14.4997C7.86652 14.6812 7.65372 14.7715 7.4081 14.7715Z" fill="#EF5DA8"/>
</svg>
