<svg width="40" height="37" viewBox="0 0 40 37" fill="none" xmlns="http://www.w3.org/2000/svg">
<path d="M34.8404 19.924C33.7348 19.3656 32.5063 19.0752 31.3002 19.0752C28.6757 19.0752 26.4645 20.4377 25.5264 22.6266C24.7781 24.3688 24.8786 27.0157 25.7609 28.635C26.3305 29.6848 27.6148 30.8016 29.5357 30.8016C29.9154 30.8016 30.3062 30.7569 30.6971 30.6787C31.7581 30.4554 33.2546 28.8695 33.612 27.6076C33.88 26.6583 32.8525 25.0389 31.7916 24.2795C31.7134 24.2237 31.6241 24.2237 31.5571 24.2237C31.423 24.2237 30.753 24.246 30.4291 24.6592C30.3174 24.7932 30.1946 25.0389 30.2727 25.3963L30.2951 25.4856L30.3621 25.5415C31.0433 26.2004 31.4007 26.9933 31.2555 27.5182C31.155 27.8756 30.8423 28.1213 30.3174 28.2553C29.8149 28.166 29.1001 27.7416 28.8544 27.44C28.3965 26.8705 27.9833 25.4745 28.1732 24.7151C28.5082 23.3749 29.8707 22.4368 31.5012 22.4368C32.6292 22.4368 33.6343 22.917 34.2597 23.7546C35.2872 25.1394 36.0242 27.7751 35.4212 29.0817C34.6729 30.7234 32.5845 32.4321 30.5631 33.0575C30.0494 33.2139 29.5245 33.292 29.0219 33.292C27.0564 33.292 25.1355 32.0747 23.6278 29.8747C21.8074 27.2278 21.7069 24.447 23.3263 21.8114C24.0075 20.7169 24.9456 19.7342 25.8614 18.7849C26.297 18.3382 26.7437 17.8803 27.1569 17.4112C29.9824 14.206 30.6636 10.5094 29.2006 6.41078C27.9498 2.89287 25.1913 0.737456 21.2267 0.156722C20.8582 0.100883 20.4896 0.0785522 20.1211 0.0785522C16.6255 0.0785522 13.2863 2.33448 12.002 5.55085C10.6953 8.82306 11.7116 12.3968 14.5259 14.4517C15.5981 15.2335 16.9829 15.6578 18.4124 15.6578C20.2774 15.6578 21.9861 14.9208 23.0136 13.6811C25.0015 11.2688 24.9903 8.53269 22.9689 6.72348C22.2877 6.10925 21.1039 5.88589 20.2216 5.88589C19.7749 5.88589 19.384 5.94173 19.0825 6.03107C18.39 6.25443 16.8824 7.66159 16.8712 8.5662C16.8712 8.9124 17.0611 9.18043 17.4184 9.30328L17.4743 9.32562H17.5301C17.6753 9.32562 17.7646 9.23627 17.9322 9.07992C18.2784 8.74488 19.0043 8.06364 19.9982 8.06364C20.3668 8.06364 20.7576 8.16415 21.1374 8.354C21.4612 8.52152 21.5282 8.92357 21.5394 9.1581C21.5729 9.96219 21.0592 11.1237 20.1546 11.6709C19.652 11.9724 18.8814 12.1623 18.1443 12.1623C17.72 12.1623 17.3291 12.1064 17.0276 11.9836C15.9554 11.5815 15.2183 10.7216 14.928 9.54898C14.5706 8.08597 15.0173 6.44428 16.0783 5.26048C17.1392 4.08784 18.6134 3.4401 20.2328 3.4401C22.2095 3.4401 24.108 4.42288 25.303 6.07574C26.8554 8.20882 27.0899 10.9561 25.9284 13.4131C24.7558 15.9147 22.4217 17.5006 19.6967 17.6681C19.5068 17.6792 19.3058 17.6792 19.1048 17.6792C17.653 17.6792 16.1453 17.3777 14.6934 17.0873C13.733 16.8975 12.7391 16.6965 11.7674 16.5848C11.3654 16.5401 10.9522 16.5178 10.5501 16.5178C5.39054 16.5178 0.945696 20.2925 0.197443 25.2846C-0.528474 30.1538 2.73257 34.7215 7.62413 35.6932C8.12669 35.7937 8.65159 35.8495 9.15414 35.8495C12.4599 35.8495 15.33 33.7946 16.458 30.6117C17.6306 27.3172 16.2681 23.8886 13.3533 22.8053C12.7056 22.5708 11.935 22.448 11.1085 22.448C9.99174 22.448 8.88611 22.6713 7.98151 23.0622C6.84238 23.5648 5.83726 25.4968 5.97128 26.9486C6.1388 28.8919 7.0769 29.3721 7.97034 29.83L8.07085 29.8858C8.38355 30.0422 8.96429 30.232 9.57852 30.232C10.5278 30.232 11.1532 29.7965 11.3319 29.0036L11.3431 28.97C11.4771 27.6969 10.4161 27.1608 9.71254 26.7923C9.48918 26.6806 9.10947 26.4908 9.08714 26.3902C9.08714 26.2451 9.38867 26.1446 9.81305 26.1446C10.807 26.1446 12.1472 26.6471 12.5045 27.3619C12.9512 28.2776 13.0629 29.8076 12.3817 30.8351C11.6111 31.9854 10.5836 32.5661 9.29933 32.5661C8.33888 32.5661 7.25559 32.2199 6.1723 31.5833C3.62601 30.0645 2.74374 26.5801 4.19557 23.8105C5.64741 21.0408 8.09319 19.6671 11.2202 19.857C14.6376 20.058 17.1616 21.9454 18.5352 25.3181C18.8479 26.0999 19.0825 26.9375 19.3058 27.7416C19.5962 28.8137 19.9089 29.9193 20.4114 30.9244C22.2542 34.5764 25.504 36.5866 29.5692 36.5866C29.7143 36.5866 29.8707 36.5866 30.0159 36.5754C34.2374 36.4302 37.2862 34.286 38.8162 30.3772C40.3574 26.4238 38.6152 21.8337 34.8404 19.924Z" fill="white"/>
</svg>
